<svg width="17" height="17" viewBox="0 0 17 17" fill="none" xmlns="http://www.w3.org/2000/svg">
<path d="M15.077 5.21209C15.0775 5.12436 15.0607 5.03738 15.0275 4.95616C14.9943 4.87493 14.9455 4.80105 14.8837 4.73876L12.057 1.91209C11.9947 1.85031 11.9208 1.80142 11.8396 1.76825C11.7584 1.73507 11.6714 1.71825 11.5837 1.71876C11.4959 1.71825 11.409 1.73507 11.3277 1.76825C11.2465 1.80142 11.1726 1.85031 11.1103 1.91209L9.22367 3.79876L1.937 11.0854C1.87521 11.1477 1.82633 11.2216 1.79315 11.3028C1.75997 11.384 1.74316 11.471 1.74366 11.5588V14.3854C1.74366 14.5622 1.8139 14.7318 1.93893 14.8568C2.06395 14.9819 2.23352 15.0521 2.41033 15.0521H5.237C5.33028 15.0572 5.42359 15.0426 5.51088 15.0093C5.59816 14.976 5.67747 14.9247 5.74366 14.8588L12.9903 7.57209L14.8837 5.71876C14.9445 5.65415 14.9941 5.57978 15.0303 5.49876C15.0368 5.44562 15.0368 5.3919 15.0303 5.33876C15.0335 5.30773 15.0335 5.27646 15.0303 5.24543L15.077 5.21209ZM4.96366 13.7188H3.077V11.8321L9.697 5.21209L11.5837 7.09876L4.96366 13.7188ZM12.5237 6.15876L10.637 4.27209L11.5837 3.33209L13.4637 5.21209L12.5237 6.15876Z" fill="white"/>
</svg>
