<svg width="17" height="12" viewBox="0 0 17 12" fill="none" xmlns="http://www.w3.org/2000/svg">
<g clip-path="url(#clip0_3347_6362)">
<rect width="16" height="12" transform="translate(0.700439)" fill="#F5F8FB"/>
<path d="M16.7004 12H0.700439V0.666547H16.7004V12Z" fill="#F0F0F0"/>
<path d="M9.70044 12H7.70044V7.39586H0.700439V5.27086H7.70044V0.666713H9.70044V5.27086H16.7004V7.39586H9.70044V12Z" fill="#D80027"/>
<path d="M13.0061 4.36328L16.7003 2.18263V4.36328H13.0061Z" fill="#0052B4"/>
<path d="M10.4395 4.36328L16.7003 0.667641V1.71268L12.2099 4.36328H10.4395Z" fill="#0052B4"/>
<path d="M15.0326 0.667408L10.4395 3.37891V0.667408H15.0326Z" fill="#0052B4"/>
<path d="M10.4395 4.36328L16.7003 0.667641V1.71268L12.2099 4.36328H10.4395Z" fill="#F0F0F0"/>
<path d="M10.4395 4.36328L16.7003 0.667641V1.71268L12.2099 4.36328H10.4395Z" fill="#D80027"/>
<path d="M3.5236 4.36328L0.700439 2.69682V4.36328H3.5236Z" fill="#0052B4"/>
<path d="M6.96111 3.89453V0.668814H1.49683L6.96111 3.89453Z" fill="#0052B4"/>
<path d="M5.19085 4.36328L0.700439 1.71268V0.667641L6.96131 4.36328H5.19085Z" fill="#D80027"/>
<path d="M4.39466 8.30373L0.700439 10.4844V8.30373H4.39466Z" fill="#0052B4"/>
<path d="M6.96131 8.30436L0.700439 12V10.955L5.19085 8.30436H6.96131Z" fill="#0052B4"/>
<path d="M2.36792 12L6.96111 9.2885V12H2.36792Z" fill="#0052B4"/>
<path d="M6.96131 8.30436L0.700439 12V10.955L5.19085 8.30436H6.96131Z" fill="#F0F0F0"/>
<path d="M6.96131 8.30436L0.700439 12V10.955L5.19085 8.30436H6.96131Z" fill="#D80027"/>
<path d="M13.8772 8.30619L16.7004 9.97266V8.30619H13.8772Z" fill="#0052B4"/>
<path d="M10.4395 8.77429V12H15.9037L10.4395 8.77429Z" fill="#0052B4"/>
<path d="M12.2099 8.30436L16.7003 10.955V12L10.4395 8.30436H12.2099Z" fill="#D80027"/>
</g>
<defs>
<clipPath id="clip0_3347_6362">
<rect width="16" height="12" fill="white" transform="translate(0.700439)"/>
</clipPath>
</defs>
</svg>
