<svg width="15" height="20" viewBox="0 0 15 20" fill="none" xmlns="http://www.w3.org/2000/svg">
<path d="M10.6758 9.94824H4.34766C4.05618 9.94824 3.82031 9.71238 3.82031 9.4209C3.82031 9.12942 4.05618 8.89355 4.34766 8.89355H10.6758C10.9673 8.89355 11.2031 9.12942 11.2031 9.4209C11.2031 9.71238 10.9673 9.94824 10.6758 9.94824Z" fill="#01A747"/>
<path d="M10.6758 13.1123H4.34766C4.05618 13.1123 3.82031 12.8764 3.82031 12.585C3.82031 12.2935 4.05618 12.0576 4.34766 12.0576H10.6758C10.9673 12.0576 11.2031 12.2935 11.2031 12.585C11.2031 12.8764 10.9673 13.1123 10.6758 13.1123Z" fill="#01A747"/>
<path d="M8.56641 16.2764H4.34766C4.05618 16.2764 3.82031 16.0405 3.82031 15.749C3.82031 15.4575 4.05618 15.2217 4.34766 15.2217H8.56641C8.85789 15.2217 9.09375 15.4575 9.09375 15.749C9.09375 16.0405 8.85789 16.2764 8.56641 16.2764Z" fill="#01A747"/>
<path d="M9.625 1.48926L9.14424 1.62662C9.21274 1.86637 9.44741 2.01901 9.69435 1.98443C9.94129 1.94984 10.125 1.73861 10.125 1.48926H9.625ZM9.62109 1.47559L10.1019 1.33823C10.0405 1.12357 9.84433 0.975586 9.62109 0.975586V1.47559ZM14.3672 6.22168L14.3671 5.72168C14.091 5.72171 13.8672 5.94556 13.8672 6.22168H14.3672ZM14.3711 6.22168L14.3712 6.72168C14.6473 6.72165 14.8711 6.4978 14.8711 6.22168H14.3711ZM14.2129 5.85257L13.8593 6.20613C13.8655 6.21237 13.8719 6.21844 13.8785 6.22434L14.2129 5.85257ZM9.99411 1.63382L9.62234 1.96818C9.62824 1.97474 9.63431 1.98114 9.64055 1.98738L9.99411 1.63382ZM9.625 1.47559V0.975586C9.34886 0.975586 9.125 1.19944 9.125 1.47559H9.625ZM10.1058 1.3519L10.1019 1.33823L9.14033 1.61295L9.14424 1.62662L10.1058 1.3519ZM9.62109 0.975586H2.23828V1.97559H9.62109V0.975586ZM2.23828 0.975586C1.0884 0.975586 0.15625 1.90774 0.15625 3.05762H1.15625C1.15625 2.46002 1.64069 1.97559 2.23828 1.97559V0.975586ZM0.15625 3.05762V17.8936H1.15625V3.05762H0.15625ZM0.15625 17.8936C0.15625 19.0434 1.0884 19.9756 2.23828 19.9756V18.9756C1.64069 18.9756 1.15625 18.4912 1.15625 17.8936H0.15625ZM2.23828 19.9756H12.7852V18.9756H2.23828V19.9756ZM12.7852 19.9756C13.935 19.9756 14.8672 19.0434 14.8672 17.8936H13.8672C13.8672 18.4912 13.3828 18.9756 12.7852 18.9756V19.9756ZM14.8672 17.8936V6.22168H13.8672V17.8936H14.8672ZM14.371 5.72168L14.3671 5.72168L14.3672 6.72168L14.3712 6.72168L14.371 5.72168ZM13.8785 6.22434C13.8725 6.2189 13.8703 6.21422 13.87 6.21364C13.87 6.21361 13.8711 6.21655 13.8711 6.22168H14.8711C14.8711 5.96098 14.771 5.68205 14.5472 5.48081L13.8785 6.22434ZM9.64055 1.98738L13.8593 6.20613L14.5664 5.49902L10.3477 1.28027L9.64055 1.98738ZM9.625 1.97559C9.63013 1.97559 9.63307 1.97668 9.63304 1.97666C9.63245 1.97642 9.62778 1.97422 9.62234 1.96818L10.3659 1.29947C10.1646 1.07571 9.8857 0.975586 9.625 0.975586V1.97559ZM10.125 1.48926V1.47559H9.125V1.48926H10.125Z" fill="#01A747"/>
<path d="M14.3711 6.22168H10.6797C10.0996 6.22168 9.625 5.74707 9.625 5.16699V1.47559C9.76211 1.47559 9.89922 1.52832 9.99411 1.63382L14.2129 5.85257C14.3184 5.94746 14.3711 6.08457 14.3711 6.22168Z" stroke="#01A747"/>
</svg>
