<svg width="26" height="26" viewBox="0 0 26 26" fill="none" xmlns="http://www.w3.org/2000/svg">
<circle cx="12.8359" cy="13.0508" r="12.5" transform="rotate(-180 12.8359 13.0508)" fill="#E44258"/>
<path d="M11.998 15.1365L11.998 8.31951L13.6676 8.31951L13.6676 15.1365L11.998 15.1365ZM13.781 16.9196C13.781 17.1674 13.697 17.3732 13.529 17.537C13.3567 17.7008 13.1257 17.7827 12.8359 17.7827C12.5461 17.7827 12.3172 17.7008 12.1492 17.537C11.977 17.3732 11.8909 17.1674 11.8909 16.9196C11.8909 16.6759 11.977 16.4722 12.1492 16.3084C12.3172 16.1446 12.5461 16.0627 12.8359 16.0627C13.1257 16.0627 13.3567 16.1446 13.529 16.3084C13.697 16.4722 13.781 16.6759 13.781 16.9196Z" fill="white"/>
</svg>
