<svg width="502" height="410" viewBox="0 0 502 410" fill="none" xmlns="http://www.w3.org/2000/svg">
<g clip-path="url(#clip0)">
<path d="M188.4 242.841C199.603 223.508 202.101 175.938 175.549 155.352C117.227 110.134 31.2252 198.605 -9.30431 169.115C-50.7883 138.93 -34.6765 83.2646 -22.1552 60" stroke="url(#paint0_linear)" stroke-width="4" stroke-linecap="round" stroke-linejoin="round"/>
<path d="M283.867 209.467C303.521 234.87 327.886 289.005 371.07 282.238C472.181 266.394 473.912 111.651 554.218 112.752C634.524 113.853 644.719 253.727 713.704 266.394C765.155 275.842 819.724 220.86 885.681 146.365" stroke="url(#paint1_linear)" stroke-width="4" stroke-linecap="round" stroke-linejoin="round"/>
<path d="M287.995 127.841L269.497 138.764L243.115 122.379V272.274L353.799 359.662L380.787 342.973V181.548L287.995 127.841Z" fill="url(#paint2_linear)"/>
<path d="M287.995 127.841L269.497 138.764L243.115 122.379V272.274L353.799 359.662L380.787 342.973V181.548L287.995 127.841Z" fill="url(#paint3_linear)"/>
<path d="M271.62 136.943V149.991L185.196 99.9248C181.86 98.1042 178.221 100.532 178.221 103.869V263.171L343.186 359.055C347.128 361.179 351.98 361.179 355.619 358.752L359.258 356.628C362.593 354.504 364.413 351.166 364.413 347.221V190.044C364.413 185.492 361.987 181.548 358.045 179.12L278.595 132.999C275.259 131.178 271.62 133.606 271.62 136.943Z" fill="url(#paint4_linear)"/>
<path d="M271.62 136.943V149.991L185.196 99.9248C181.86 98.1042 178.221 100.532 178.221 103.869V263.171L343.186 359.055C347.128 361.179 351.98 361.179 355.619 358.752L359.258 356.628C362.593 354.504 364.413 351.166 364.413 347.221V190.044C364.413 185.492 361.987 181.548 358.045 179.12L278.595 132.999C275.259 131.178 271.62 133.606 271.62 136.943Z" fill="url(#paint5_linear)"/>
<path d="M183.072 101.444L269.497 151.511V148.78L185.195 99.9272C183.072 98.7135 180.343 99.3203 179.13 101.444C180.343 100.837 181.859 100.837 183.072 101.444Z" fill="#5EE5AE"/>
<path d="M183.072 101.444L269.497 151.511V148.78L185.195 99.9272C183.072 98.7135 180.343 99.3203 179.13 101.444C180.343 100.837 181.859 100.837 183.072 101.444Z" fill="url(#paint6_linear)"/>
<path d="M358.347 179.123L278.594 133.001C276.471 131.788 273.742 132.395 272.529 134.519C273.742 133.912 275.258 133.912 276.774 134.822L356.527 180.944C360.47 183.068 362.896 187.316 362.896 191.867V349.348C362.896 352.079 361.683 354.81 359.863 356.934C362.896 354.81 364.715 351.472 364.715 347.831V190.046C364.412 185.495 361.986 181.247 358.347 179.123Z" fill="#5EE5AE"/>
<path d="M358.347 179.123L278.594 133.001C276.471 131.788 273.742 132.395 272.529 134.519C273.742 133.912 275.258 133.912 276.774 134.822L356.527 180.944C360.47 183.068 362.896 187.316 362.896 191.867V349.348C362.896 352.079 361.683 354.81 359.863 356.934C362.896 354.81 364.715 351.472 364.715 347.831V190.046C364.412 185.495 361.986 181.247 358.347 179.123Z" fill="url(#paint7_linear)"/>
<g style="mix-blend-mode:multiply" opacity="0.6">
<path d="M334.5 157.204L333 168.704L302.5 151.704L313.5 145.204L334.5 157.204Z" fill="url(#paint8_linear)"/>
</g>
<path d="M223.028 210.527L356.127 286.237L354.556 180.127L221.85 104.417L223.028 210.527Z" fill="url(#paint9_linear)"/>
<path d="M197.176 239.079L339.119 321.397V88.7237L197.176 6.40625V239.079Z" fill="url(#paint10_linear)"/>
<g opacity="0.3">
<path d="M328.232 206.938L329.07 207.358V201.059L328.232 200.639V206.938Z" fill="url(#paint11_linear)"/>
<path d="M328.232 214.5L329.07 214.92V209.04L328.232 208.62V214.5Z" fill="url(#paint12_linear)"/>
<path d="M328.232 222.479L329.07 222.899V216.599L328.232 216.179V222.479Z" fill="url(#paint13_linear)"/>
<path d="M328.232 230.456L329.07 230.876V224.576L328.232 224.156V230.456Z" fill="url(#paint14_linear)"/>
<path d="M328.232 238.018L329.07 238.857V232.558L328.232 232.138V238.018Z" fill="url(#paint15_linear)"/>
<path d="M328.232 245.996L329.07 246.416V240.116L328.232 239.696V245.996Z" fill="url(#paint16_linear)"/>
<path d="M275.474 175.44L326.557 204.839V200.639L275.474 170.82V175.44Z" fill="url(#paint17_linear)"/>
<path d="M280.917 186.359L326.557 212.818V208.198L280.917 181.739V186.359Z" fill="url(#paint18_linear)"/>
<path d="M306.04 208.621L326.557 220.8V216.181L306.04 204.001V208.621Z" fill="url(#paint19_linear)"/>
<path d="M290.129 207.359L326.557 228.358V224.159L290.129 202.739V207.359Z" fill="url(#paint20_linear)"/>
<path d="M292.641 216.598L326.557 236.338V231.718L292.641 211.979V216.598Z" fill="url(#paint21_linear)"/>
<path d="M299.341 228.359L326.557 244.319V239.699L299.341 224.159V228.359Z" fill="url(#paint22_linear)"/>
<path d="M301.016 203.58C301.016 204.42 301.434 205.26 302.272 205.68C303.109 206.1 303.528 205.68 303.528 204.84C303.528 204 303.109 203.16 302.272 202.74C301.434 202.32 301.016 202.74 301.016 203.58Z" fill="url(#paint23_linear)"/>
<path d="M285.105 202.318C285.105 203.158 285.523 203.998 286.361 204.418C287.198 204.838 287.617 204.418 287.617 203.578C287.617 202.738 287.198 201.898 286.361 201.478C285.942 201.058 285.105 201.478 285.105 202.318Z" fill="url(#paint24_linear)"/>
<path d="M287.617 211.557C287.617 212.397 288.036 213.237 288.874 213.657C289.711 214.077 290.13 213.657 290.13 212.817C290.13 211.977 289.711 211.137 288.874 210.717C288.036 210.298 287.617 210.717 287.617 211.557Z" fill="url(#paint25_linear)"/>
<path d="M270.869 170.4C270.869 171.24 271.288 172.08 272.125 172.5C272.963 172.92 273.381 172.5 273.381 171.66C273.381 170.82 272.963 169.98 272.125 169.56C271.288 169.14 270.869 169.56 270.869 170.4Z" fill="url(#paint26_linear)"/>
<path d="M294.735 223.32C294.735 224.16 295.154 225 295.991 225.42C296.828 225.84 297.247 225.42 297.247 224.58C297.247 223.74 296.828 222.9 295.991 222.48C295.154 222.48 294.735 222.9 294.735 223.32Z" fill="url(#paint27_linear)"/>
<path d="M276.312 181.318C276.312 182.158 276.731 182.998 277.568 183.418C278.406 183.838 278.824 183.418 278.824 182.578C278.824 181.738 278.406 180.898 277.568 180.478C276.731 180.058 276.312 180.478 276.312 181.318Z" fill="url(#paint28_linear)"/>
</g>
<path opacity="0.3" d="M291.804 167.307V166.467L274.637 156.807V157.647L291.804 167.307ZM295.991 170.247V169.407L292.641 167.727V168.567L295.991 170.247ZM316.089 181.586V180.747L297.666 170.247V171.087L316.089 181.586ZM329.069 189.146V188.306L317.345 181.586V182.426L329.069 189.146ZM283.43 156.807L266.262 147.148V147.988L283.43 157.647V156.807ZM265.006 146.308L257.888 142.108V142.948L265.006 147.148V146.308ZM288.035 160.587V159.747L284.686 158.067V158.907L288.035 160.587ZM308.134 171.927V171.087L289.71 160.587V161.427L308.134 171.927ZM329.069 184.106V183.266L308.971 171.927V172.767L329.069 184.106ZM216.436 114.389V113.549L206.387 107.669V108.509L216.436 114.389ZM230.253 121.948V121.108L218.111 113.969V114.809L230.253 121.948ZM238.209 126.988V126.148L231.091 121.948V122.788L238.209 126.988ZM252.026 134.548V133.708L239.884 126.568V127.408L252.026 134.548ZM264.169 141.688V140.848L253.282 134.548V135.388L264.169 141.688ZM278.824 150.507V149.667L265.425 142.108V142.948L278.824 150.507ZM293.06 158.907V157.647L280.08 150.087V150.927L293.06 158.907ZM311.483 169.407V168.567L294.735 158.907V159.747L311.483 169.407ZM329.069 179.487V178.647L312.739 168.987V169.827L329.069 179.487ZM234.022 119.428V118.588L206.805 102.629V103.469L234.022 119.428ZM247.42 127.408V126.568L235.278 119.428V120.268L247.42 127.408ZM262.075 135.808V134.968L248.676 127.408V128.248L262.075 135.808ZM269.193 140.008V139.168L263.331 135.808V136.648L269.193 140.008ZM277.986 145.048V144.208L270.868 140.008V140.848L277.986 145.048ZM296.41 155.547V154.707L279.242 145.048V145.888L296.41 155.547ZM300.597 158.487V157.647L297.247 155.967V156.807L300.597 158.487ZM320.695 169.827V168.987L302.272 158.487V159.327L320.695 169.827ZM329.069 174.867V174.027L321.951 169.827V170.667L329.069 174.867Z" fill="url(#paint29_linear)"/>
<path d="M285.523 91.1642L329.069 116.363V109.224L285.523 84.0244V91.1642Z" fill="url(#paint30_linear)"/>
<path d="M324.882 114.265L329.069 116.365V109.225L324.882 107.125V114.265Z" fill="url(#paint31_linear)"/>
<path d="M245.745 68.0656L289.291 93.2648V86.125L245.745 60.9258V68.0656Z" fill="url(#paint32_linear)"/>
<path d="M285.523 91.1652L289.291 93.2651V86.1253L285.523 84.0254V91.1652Z" fill="url(#paint33_linear)"/>
<path d="M205.968 45.3859L249.514 70.5852V63.4454L205.968 37.8262V45.3859Z" fill="url(#paint34_linear)"/>
<path d="M245.746 68.0656L249.514 70.5855V63.4457L245.746 60.9258V68.0656Z" fill="url(#paint35_linear)"/>
<path d="M236.953 58.4054L243.652 62.1853V61.3453L236.953 57.5654V58.4054Z" fill="#E1E9F4"/>
<path d="M233.185 55.8858L236.116 57.5657V56.7258L233.185 55.4658V55.8858Z" fill="#E1E9F4"/>
<path d="M239.884 63.4464L243.652 65.5464V64.7064L239.884 62.6064V63.4464Z" fill="#E1E9F4"/>
<path d="M231.09 57.9874L239.046 63.0273V62.1873L231.09 57.1475V57.9874Z" fill="#E1E9F4"/>
<path d="M225.229 55.047L229.835 57.567V56.727L225.229 54.207V55.047Z" fill="#E1E9F4"/>
<path d="M276.312 81.0822L283.011 84.8621V84.0221L276.312 80.2422V81.0822Z" fill="#E1E9F4"/>
<path d="M272.544 78.9826L275.475 80.2425V79.8225L272.544 78.1426V78.9826Z" fill="#E1E9F4"/>
<path d="M279.243 86.1232L283.011 88.2231V87.3831L279.243 85.2832V86.1232Z" fill="#E1E9F4"/>
<path d="M270.449 81.0822L278.405 85.702V84.8621L270.449 80.2422V81.0822Z" fill="#E1E9F4"/>
<path d="M264.588 77.7238L269.194 80.2437V79.4037L264.588 76.8838V77.7238Z" fill="#E1E9F4"/>
<path d="M315.671 103.763L322.371 107.543V106.703L315.671 102.923V103.763Z" fill="#E1E9F4"/>
<path d="M311.903 101.663L314.834 103.343V102.503L311.903 100.823V101.663Z" fill="#E1E9F4"/>
<path d="M318.602 109.223L322.371 111.323V110.483L318.602 108.383V109.223Z" fill="#E1E9F4"/>
<path d="M309.809 103.763L317.764 108.383V107.543L309.809 102.923V103.763Z" fill="#E1E9F4"/>
<path d="M303.948 100.404L308.554 102.924V102.504L303.948 99.5645V100.404Z" fill="#E1E9F4"/>
<path d="M285.523 113.747L329.069 138.946V131.807L285.523 106.607V113.747Z" fill="url(#paint36_linear)"/>
<path d="M324.882 136.847L329.07 138.947V131.807L324.882 129.707V136.847Z" fill="url(#paint37_linear)"/>
<path d="M245.745 90.6486L289.291 115.848V108.708L245.745 83.5088V90.6486Z" fill="url(#paint38_linear)"/>
<path d="M285.523 113.748L289.292 115.848V108.708L285.523 106.608V113.748Z" fill="url(#paint39_linear)"/>
<path d="M205.968 67.9689L249.514 93.1682V86.0284L205.968 60.4092V67.9689Z" fill="url(#paint40_linear)"/>
<path d="M245.746 90.6486L249.514 93.1685V86.0287L245.746 83.5088V90.6486Z" fill="url(#paint41_linear)"/>
<path d="M236.953 80.9884L243.653 84.7683V83.9283L236.953 80.1484V80.9884Z" fill="#E1E9F4"/>
<path d="M233.185 78.4688L236.116 80.1488V79.3088L233.185 78.0488V78.4688Z" fill="#E1E9F4"/>
<path d="M239.884 86.0294L243.653 88.1294V87.2894L239.884 85.1895V86.0294Z" fill="#E1E9F4"/>
<path d="M231.091 80.5704L239.046 85.6103V84.7703L231.091 79.7305V80.5704Z" fill="#E1E9F4"/>
<path d="M225.23 77.63L229.836 80.15V79.31L225.23 76.79V77.63Z" fill="#E1E9F4"/>
<path d="M276.312 103.665L283.011 107.445V106.605L276.312 102.825V103.665Z" fill="#E1E9F4"/>
<path d="M272.544 101.566L275.475 102.826V102.406L272.544 100.726V101.566Z" fill="#E1E9F4"/>
<path d="M279.243 108.706L283.011 110.806V109.966L279.243 107.866V108.706Z" fill="#E1E9F4"/>
<path d="M270.45 103.665L278.405 108.285V107.445L270.45 102.825V103.665Z" fill="#E1E9F4"/>
<path d="M264.589 100.307L269.195 102.827V101.987L264.589 99.4668V100.307Z" fill="#E1E9F4"/>
<path d="M315.672 126.346L322.371 130.126V129.286L315.672 125.506V126.346Z" fill="#E1E9F4"/>
<path d="M311.904 124.246L314.835 125.926V125.086L311.904 123.406V124.246Z" fill="#E1E9F4"/>
<path d="M318.603 131.806L322.371 133.906V133.066L318.603 130.966V131.806Z" fill="#E1E9F4"/>
<path d="M309.809 126.346L317.765 130.966V130.126L309.809 125.506V126.346Z" fill="#E1E9F4"/>
<path d="M303.948 122.987L308.554 125.507V125.087L303.948 122.147V122.987Z" fill="#E1E9F4"/>
<path d="M285.523 136.33L329.069 161.529V154.39L285.523 129.19V136.33Z" fill="url(#paint42_linear)"/>
<path d="M324.882 159.43L329.07 161.53V154.39L324.882 152.29V159.43Z" fill="url(#paint43_linear)"/>
<path d="M245.745 113.232L289.291 138.431V131.291L245.745 106.092V113.232Z" fill="url(#paint44_linear)"/>
<path d="M285.523 136.331L289.292 138.431V131.291L285.523 129.191V136.331Z" fill="url(#paint45_linear)"/>
<path d="M205.968 90.552L249.514 115.751V108.611L205.968 82.9922V90.552Z" fill="url(#paint46_linear)"/>
<path d="M245.746 113.232L249.514 115.752V108.612L245.746 106.092V113.232Z" fill="url(#paint47_linear)"/>
<path d="M236.953 103.57L243.652 107.35V106.51L236.953 102.73V103.57Z" fill="#E1E9F4"/>
<path d="M233.185 101.051L236.116 102.731V101.891L233.185 100.631V101.051Z" fill="#E1E9F4"/>
<path d="M239.884 108.611L243.652 110.711V109.871L239.884 107.771V108.611Z" fill="#E1E9F4"/>
<path d="M231.09 103.152L239.046 108.192V107.352L231.09 102.312V103.152Z" fill="#E1E9F4"/>
<path d="M225.229 100.212L229.835 102.732V101.892L225.229 99.3721V100.212Z" fill="#E1E9F4"/>
<path d="M276.311 126.247L283.011 130.027V129.187L276.311 125.407V126.247Z" fill="#E1E9F4"/>
<path d="M272.544 124.148L275.475 125.408V124.988L272.544 123.308V124.148Z" fill="#E1E9F4"/>
<path d="M279.242 131.288L283.011 133.388V132.548L279.242 130.448V131.288Z" fill="#E1E9F4"/>
<path d="M270.449 126.247L278.405 130.867V130.027L270.449 125.407V126.247Z" fill="#E1E9F4"/>
<path d="M264.588 122.889L269.194 125.409V124.569L264.588 122.049V122.889Z" fill="#E1E9F4"/>
<path d="M315.672 148.929L322.371 152.709V151.869L315.672 148.089V148.929Z" fill="#E1E9F4"/>
<path d="M311.904 146.829L314.835 148.509V147.669L311.904 145.989V146.829Z" fill="#E1E9F4"/>
<path d="M318.603 154.389L322.371 156.489V155.649L318.603 153.549V154.389Z" fill="#E1E9F4"/>
<path d="M309.809 148.929L317.765 153.549V152.709L309.809 148.089V148.929Z" fill="#E1E9F4"/>
<path d="M303.948 145.57L308.554 148.09V147.67L303.948 144.73V145.57Z" fill="#E1E9F4"/>
<path d="M171.246 259.53L343.792 359.055C347.431 361.179 351.677 361.179 355.315 359.359L356.528 358.752L355.315 359.055C352.586 360.269 349.554 358.145 349.554 355.111V236.773C349.554 232.221 347.128 228.277 343.186 225.849L170.033 125.717C167.001 123.896 163.059 126.324 163.059 129.661V245.269C163.059 251.337 166.091 256.496 171.246 259.53Z" fill="url(#paint48_linear)"/>
<path d="M171.246 259.53L343.792 359.055C347.431 361.179 351.677 361.179 355.315 359.359L356.528 358.752L355.315 359.055C352.586 360.269 349.554 358.145 349.554 355.111V236.773C349.554 232.221 347.128 228.277 343.186 225.849L170.033 125.717C167.001 123.896 163.059 126.324 163.059 129.661V245.269C163.059 251.337 166.091 256.496 171.246 259.53Z" fill="url(#paint49_linear)"/>
<path d="M355.315 359.055C352.586 360.268 349.553 358.144 349.553 355.11V236.772C349.553 232.22 347.128 228.276 343.185 225.848L170.033 125.716C167.91 124.502 165.484 125.109 164.271 126.626C165.484 126.019 167 126.019 168.213 126.93L341.366 227.062C345.308 229.186 347.734 233.434 347.734 237.986V356.324C347.734 358.448 349.553 360.268 351.373 360.572C352.586 360.268 354.102 359.965 355.315 359.055L356.528 358.751L355.315 359.055Z" fill="url(#paint50_linear)"/>
<path opacity="0.3" d="M399.5 93L285 156.5V384.5L399.5 316.5V93Z" fill="url(#paint51_linear)"/>
<path opacity="0.3" d="M135.5 71L285 156.5V383L135.5 295V71Z" fill="url(#paint52_linear)"/>
<path opacity="0.2" fill-rule="evenodd" clip-rule="evenodd" d="M232.655 33.2563L254.5 24.5L399 93.5L285 157L136 72L185 52.3587V99.5L285 156.5L318 138V83L232.655 33.2563Z" fill="url(#paint53_linear)"/>
</g>
<defs>
<linearGradient id="paint0_linear" x1="196.406" y1="242.841" x2="15.5" y2="151" gradientUnits="userSpaceOnUse">
<stop stop-color="#52CBFF"/>
<stop offset="1" stop-color="#52CBFF" stop-opacity="0"/>
</linearGradient>
<linearGradient id="paint1_linear" x1="266.161" y1="200.175" x2="446.5" y2="148.5" gradientUnits="userSpaceOnUse">
<stop stop-color="#52CBFF"/>
<stop offset="1" stop-color="#52CBFF" stop-opacity="0"/>
</linearGradient>
<linearGradient id="paint2_linear" x1="383.105" y1="130.985" x2="260.54" y2="305.874" gradientUnits="userSpaceOnUse">
<stop stop-color="white"/>
<stop offset="0.2175" stop-color="#EEF7F9"/>
<stop offset="0.6438" stop-color="#C4E1EA"/>
<stop offset="1" stop-color="#9BCDDB"/>
</linearGradient>
<linearGradient id="paint3_linear" x1="243.203" y1="268.611" x2="384.822" y2="235.321" gradientUnits="userSpaceOnUse">
<stop stop-color="#3BB8FE"/>
<stop offset="1" stop-color="#8DDDFF"/>
</linearGradient>
<linearGradient id="paint4_linear" x1="271.177" y1="227.91" x2="289.343" y2="-16.2822" gradientUnits="userSpaceOnUse">
<stop stop-color="#5EE5AE"/>
<stop offset="1" stop-color="#2DB38C"/>
</linearGradient>
<linearGradient id="paint5_linear" x1="243.571" y1="132.491" x2="335.316" y2="237.974" gradientUnits="userSpaceOnUse">
<stop stop-color="#139FDB"/>
<stop offset="1" stop-color="#006BB9"/>
</linearGradient>
<linearGradient id="paint6_linear" x1="195.022" y1="107.642" x2="216.323" y2="173.046" gradientUnits="userSpaceOnUse">
<stop stop-color="#003693"/>
<stop offset="1" stop-color="#002360"/>
</linearGradient>
<linearGradient id="paint7_linear" x1="288.741" y1="168.229" x2="436.821" y2="276.061" gradientUnits="userSpaceOnUse">
<stop stop-color="#003693"/>
<stop offset="1" stop-color="#002360"/>
</linearGradient>
<linearGradient id="paint8_linear" x1="326" y1="163.704" x2="338.5" y2="159.704" gradientUnits="userSpaceOnUse">
<stop stop-color="#0871B4"/>
<stop offset="1" stop-color="#0871B4" stop-opacity="0"/>
</linearGradient>
<linearGradient id="paint9_linear" x1="308.554" y1="234.047" x2="373.584" y2="212.009" gradientUnits="userSpaceOnUse">
<stop stop-color="#139FDB"/>
<stop offset="1" stop-color="#0664A8"/>
</linearGradient>
<linearGradient id="paint10_linear" x1="352.253" y1="518.592" x2="79.2479" y2="249.791" gradientUnits="userSpaceOnUse">
<stop stop-color="#3BB8FE"/>
<stop offset="0.826042" stop-color="#83DAFF"/>
<stop offset="1" stop-color="#CCEDFF"/>
</linearGradient>
<linearGradient id="paint11_linear" x1="328.776" y1="201.492" x2="327.855" y2="201.677" gradientUnits="userSpaceOnUse">
<stop stop-color="#139FDB"/>
<stop offset="1" stop-color="#006BB9"/>
</linearGradient>
<linearGradient id="paint12_linear" x1="328.776" y1="209.42" x2="327.86" y2="209.617" gradientUnits="userSpaceOnUse">
<stop stop-color="#139FDB"/>
<stop offset="1" stop-color="#006BB9"/>
</linearGradient>
<linearGradient id="paint13_linear" x1="328.776" y1="217.032" x2="327.855" y2="217.217" gradientUnits="userSpaceOnUse">
<stop stop-color="#139FDB"/>
<stop offset="1" stop-color="#006BB9"/>
</linearGradient>
<linearGradient id="paint14_linear" x1="328.776" y1="225.01" x2="327.855" y2="225.195" gradientUnits="userSpaceOnUse">
<stop stop-color="#139FDB"/>
<stop offset="1" stop-color="#006BB9"/>
</linearGradient>
<linearGradient id="paint15_linear" x1="328.776" y1="232.991" x2="327.855" y2="233.176" gradientUnits="userSpaceOnUse">
<stop stop-color="#139FDB"/>
<stop offset="1" stop-color="#006BB9"/>
</linearGradient>
<linearGradient id="paint16_linear" x1="328.776" y1="240.55" x2="327.855" y2="240.735" gradientUnits="userSpaceOnUse">
<stop stop-color="#139FDB"/>
<stop offset="1" stop-color="#006BB9"/>
</linearGradient>
<linearGradient id="paint17_linear" x1="308.628" y1="175.141" x2="300.122" y2="195.751" gradientUnits="userSpaceOnUse">
<stop stop-color="#139FDB"/>
<stop offset="1" stop-color="#006BB9"/>
</linearGradient>
<linearGradient id="paint18_linear" x1="310.538" y1="185.687" x2="302.644" y2="204.392" gradientUnits="userSpaceOnUse">
<stop stop-color="#139FDB"/>
<stop offset="1" stop-color="#006BB9"/>
</linearGradient>
<linearGradient id="paint19_linear" x1="319.356" y1="206.135" x2="314.549" y2="215.607" gradientUnits="userSpaceOnUse">
<stop stop-color="#139FDB"/>
<stop offset="1" stop-color="#006BB9"/>
</linearGradient>
<linearGradient id="paint20_linear" x1="313.771" y1="205.993" x2="307.118" y2="221.258" gradientUnits="userSpaceOnUse">
<stop stop-color="#139FDB"/>
<stop offset="1" stop-color="#006BB9"/>
</linearGradient>
<linearGradient id="paint21_linear" x1="314.653" y1="215.072" x2="308.237" y2="229.488" gradientUnits="userSpaceOnUse">
<stop stop-color="#139FDB"/>
<stop offset="1" stop-color="#006BB9"/>
</linearGradient>
<linearGradient id="paint22_linear" x1="317.005" y1="226.72" x2="311.585" y2="238.526" gradientUnits="userSpaceOnUse">
<stop stop-color="#139FDB"/>
<stop offset="1" stop-color="#006BB9"/>
</linearGradient>
<linearGradient id="paint23_linear" x1="302.646" y1="202.99" x2="301.513" y2="204.395" gradientUnits="userSpaceOnUse">
<stop stop-color="#139FDB"/>
<stop offset="1" stop-color="#006BB9"/>
</linearGradient>
<linearGradient id="paint24_linear" x1="286.735" y1="201.729" x2="285.602" y2="203.133" gradientUnits="userSpaceOnUse">
<stop stop-color="#139FDB"/>
<stop offset="1" stop-color="#006BB9"/>
</linearGradient>
<linearGradient id="paint25_linear" x1="289.248" y1="210.968" x2="288.115" y2="212.373" gradientUnits="userSpaceOnUse">
<stop stop-color="#139FDB"/>
<stop offset="1" stop-color="#006BB9"/>
</linearGradient>
<linearGradient id="paint26_linear" x1="272.5" y1="169.811" x2="271.367" y2="171.215" gradientUnits="userSpaceOnUse">
<stop stop-color="#139FDB"/>
<stop offset="1" stop-color="#006BB9"/>
</linearGradient>
<linearGradient id="paint27_linear" x1="296.365" y1="222.875" x2="295.303" y2="224.262" gradientUnits="userSpaceOnUse">
<stop stop-color="#139FDB"/>
<stop offset="1" stop-color="#006BB9"/>
</linearGradient>
<linearGradient id="paint28_linear" x1="277.942" y1="180.729" x2="276.81" y2="182.133" gradientUnits="userSpaceOnUse">
<stop stop-color="#139FDB"/>
<stop offset="1" stop-color="#006BB9"/>
</linearGradient>
<linearGradient id="paint29_linear" x1="286.01" y1="113.617" x2="263.499" y2="165.124" gradientUnits="userSpaceOnUse">
<stop stop-color="#139FDB"/>
<stop offset="1" stop-color="#006BB9"/>
</linearGradient>
<linearGradient id="paint30_linear" x1="313.785" y1="88.1318" x2="305.076" y2="107.053" gradientUnits="userSpaceOnUse">
<stop stop-color="#139FDB"/>
<stop offset="1" stop-color="#006BB9"/>
</linearGradient>
<linearGradient id="paint31_linear" x1="328.333" y1="108.6" x2="322.08" y2="113.626" gradientUnits="userSpaceOnUse">
<stop stop-color="#003693"/>
<stop offset="1" stop-color="#002360"/>
</linearGradient>
<linearGradient id="paint32_linear" x1="274.007" y1="65.0332" x2="265.298" y2="83.9549" gradientUnits="userSpaceOnUse">
<stop stop-color="#139FDB"/>
<stop offset="1" stop-color="#006BB9"/>
</linearGradient>
<linearGradient id="paint33_linear" x1="288.629" y1="85.5004" x2="282.548" y2="89.8993" gradientUnits="userSpaceOnUse">
<stop stop-color="#003693"/>
<stop offset="1" stop-color="#002360"/>
</linearGradient>
<linearGradient id="paint34_linear" x1="234.23" y1="41.9869" x2="225.335" y2="61.0671" gradientUnits="userSpaceOnUse">
<stop stop-color="#139FDB"/>
<stop offset="1" stop-color="#006BB9"/>
</linearGradient>
<linearGradient id="paint35_linear" x1="248.851" y1="62.4678" x2="242.587" y2="66.8022" gradientUnits="userSpaceOnUse">
<stop stop-color="#003693"/>
<stop offset="1" stop-color="#002360"/>
</linearGradient>
<linearGradient id="paint36_linear" x1="313.786" y1="110.715" x2="305.077" y2="129.636" gradientUnits="userSpaceOnUse">
<stop stop-color="#139FDB"/>
<stop offset="1" stop-color="#006BB9"/>
</linearGradient>
<linearGradient id="paint37_linear" x1="328.333" y1="131.182" x2="322.081" y2="136.208" gradientUnits="userSpaceOnUse">
<stop stop-color="#003693"/>
<stop offset="1" stop-color="#002360"/>
</linearGradient>
<linearGradient id="paint38_linear" x1="274.007" y1="87.6162" x2="265.299" y2="106.538" gradientUnits="userSpaceOnUse">
<stop stop-color="#139FDB"/>
<stop offset="1" stop-color="#006BB9"/>
</linearGradient>
<linearGradient id="paint39_linear" x1="288.629" y1="108.083" x2="282.548" y2="112.482" gradientUnits="userSpaceOnUse">
<stop stop-color="#003693"/>
<stop offset="1" stop-color="#002360"/>
</linearGradient>
<linearGradient id="paint40_linear" x1="234.231" y1="64.5699" x2="225.335" y2="83.6501" gradientUnits="userSpaceOnUse">
<stop stop-color="#139FDB"/>
<stop offset="1" stop-color="#006BB9"/>
</linearGradient>
<linearGradient id="paint41_linear" x1="248.852" y1="85.0508" x2="242.588" y2="89.3852" gradientUnits="userSpaceOnUse">
<stop stop-color="#003693"/>
<stop offset="1" stop-color="#002360"/>
</linearGradient>
<linearGradient id="paint42_linear" x1="313.786" y1="133.298" x2="305.077" y2="152.219" gradientUnits="userSpaceOnUse">
<stop stop-color="#139FDB"/>
<stop offset="1" stop-color="#006BB9"/>
</linearGradient>
<linearGradient id="paint43_linear" x1="328.333" y1="153.765" x2="322.081" y2="158.791" gradientUnits="userSpaceOnUse">
<stop stop-color="#003693"/>
<stop offset="1" stop-color="#002360"/>
</linearGradient>
<linearGradient id="paint44_linear" x1="274.007" y1="110.199" x2="265.299" y2="129.121" gradientUnits="userSpaceOnUse">
<stop stop-color="#139FDB"/>
<stop offset="1" stop-color="#006BB9"/>
</linearGradient>
<linearGradient id="paint45_linear" x1="288.629" y1="130.666" x2="282.548" y2="135.065" gradientUnits="userSpaceOnUse">
<stop stop-color="#003693"/>
<stop offset="1" stop-color="#002360"/>
</linearGradient>
<linearGradient id="paint46_linear" x1="234.231" y1="87.1529" x2="225.335" y2="106.233" gradientUnits="userSpaceOnUse">
<stop stop-color="#139FDB"/>
<stop offset="1" stop-color="#006BB9"/>
</linearGradient>
<linearGradient id="paint47_linear" x1="248.852" y1="107.634" x2="242.588" y2="111.968" gradientUnits="userSpaceOnUse">
<stop stop-color="#003693"/>
<stop offset="1" stop-color="#002360"/>
</linearGradient>
<linearGradient id="paint48_linear" x1="172.52" y1="585.471" x2="305.071" y2="66.8412" gradientUnits="userSpaceOnUse">
<stop stop-color="#5EE5AE"/>
<stop offset="1" stop-color="#2DB38C"/>
</linearGradient>
<linearGradient id="paint49_linear" x1="163.183" y1="270.285" x2="352.265" y2="207.376" gradientUnits="userSpaceOnUse">
<stop stop-color="#3BB8FE"/>
<stop offset="1" stop-color="#8DDDFF"/>
</linearGradient>
<linearGradient id="paint50_linear" x1="231.75" y1="154.981" x2="312.167" y2="260.914" gradientUnits="userSpaceOnUse">
<stop stop-color="#139FDB"/>
<stop offset="1" stop-color="#006BB9"/>
</linearGradient>
<linearGradient id="paint51_linear" x1="325.058" y1="59.3111" x2="430.304" y2="111.603" gradientUnits="userSpaceOnUse">
<stop stop-color="#139FDB"/>
<stop offset="1" stop-color="#006BB9"/>
</linearGradient>
<linearGradient id="paint52_linear" x1="136" y1="281" x2="234.937" y2="141.096" gradientUnits="userSpaceOnUse">
<stop stop-color="#39B8FF"/>
<stop offset="1" stop-color="#5CCEFF"/>
</linearGradient>
<linearGradient id="paint53_linear" x1="228.011" y1="9.18689" x2="269.281" y2="112.803" gradientUnits="userSpaceOnUse">
<stop stop-color="#139FDB"/>
<stop offset="1" stop-color="#006BB9"/>
</linearGradient>
<clipPath id="clip0">
<rect width="502" height="410" fill="white"/>
</clipPath>
</defs>
</svg>
