<svg width="39" height="40" viewBox="0 0 39 40" fill="none" xmlns="http://www.w3.org/2000/svg">
<path d="M19.8354 39.077C13.7577 35.538 0.900879 28.2024 0.900879 28.2024L16.9486 18.2456L38.2461 28.1564L19.8354 39.077Z" fill="#F3F3F3"/>
<path d="M0.900879 28.2021V10.9233L19.8737 21.6294L19.8419 39.0776L0.900879 28.2021Z" fill="#E0E0E0"/>
<path d="M0.900879 28.202V26.9146L19.8737 37.6206L19.841 39.0738L0.900879 28.202Z" fill="#CCCCCC"/>
<path d="M27.4235 17.3604L19.8344 21.6292V39.0774L27.4235 34.7069V17.3604Z" fill="#C5C5C5"/>
<path d="M8.48702 6.51855L0.796265 10.923L19.8368 21.629L27.4259 17.3263L8.48702 6.51855Z" fill="#808080"/>
<path d="M8.45511 15.1918V6.51855L0.730469 10.8891L8.45511 15.1918Z" fill="#EFEFEF"/>
<path d="M6.40613 21.2866V15.501L12.7337 19.0946V24.9249L6.40613 21.2866Z" fill="#EFEFEF"/>
<path d="M14.1114 18.3813C13.7044 18.5964 12.8672 19.0449 12.775 19.1187V25.0173L14.1114 24.303V18.3813Z" fill="#808080"/>
<path d="M12.7749 19.1648L14.0652 18.3814L7.65967 14.7178L6.34631 15.4551L12.7749 19.1648Z" fill="#C5C5C5"/>
<path d="M5.69353 0.166016C2.55468 3.48951 3.50095 7.85929 4.36644 12.8599L19.8877 21.6303L22.4265 20.1301C20.257 9.14407 22.061 10.0519 23.2343 8.64785L5.69353 0.166016Z" fill="url(#paint0_linear_6919_38702)"/>
<ellipse cx="23.6329" cy="24.7466" rx="1.83827" ry="2.58206" fill="#B4B4B4"/>
<path d="M7.29037 3.87598C5.24902 6.03741 5.86443 8.87929 6.4273 12.1314L16.5215 17.8352L18.1726 16.8596C16.7617 9.71484 17.935 10.3052 18.698 9.39213L7.29037 3.87598Z" fill="white" stroke="#EBEBEB" stroke-width="0.349104" stroke-dasharray="0.7 0.7"/>
<path d="M24.4919 23.7733C23.9546 23.365 23.1881 23.4695 22.7798 24.0068C22.3714 24.544 22.476 25.3106 23.0132 25.7189L24.4919 23.7733ZM25.8297 29.7083L27.0027 30.0504L25.8297 29.7083ZM28.1954 33.4587L28.7888 34.5268L28.1954 33.4587ZM23.0132 25.7189C23.3787 25.9966 23.9377 26.558 24.3236 27.2594C24.7047 27.9521 24.8602 28.6687 24.6568 29.3661L27.0027 30.0504C27.4455 28.5322 27.0433 27.1331 26.4647 26.0814C25.8908 25.0383 25.0881 24.2264 24.4919 23.7733L23.0132 25.7189ZM24.6568 29.3661C24.1469 31.1143 24.5403 32.6285 25.3882 33.6286C26.1318 34.5057 27.5348 35.2235 28.7888 34.5268L27.602 32.3906C27.7127 32.3291 27.7525 32.3763 27.651 32.3433C27.5563 32.3126 27.403 32.2262 27.2522 32.0483C26.9749 31.7213 26.7048 31.0718 27.0027 30.0504L24.6568 29.3661ZM28.7888 34.5268C29.5949 34.079 29.7109 33.2591 29.6635 32.7459C29.6176 32.2497 29.4191 31.7674 29.2251 31.3912C29.0204 30.9943 28.7646 30.609 28.5099 30.2853C28.2687 29.9787 27.9713 29.654 27.6651 29.4352L26.2447 31.4238C26.244 31.4233 26.2547 31.431 26.2769 31.4508C26.2984 31.4699 26.3261 31.4961 26.3592 31.5303C26.4261 31.5991 26.5048 31.689 26.5892 31.7962C26.7601 32.0134 26.9281 32.2688 27.0532 32.5114C27.1891 32.7747 27.2264 32.9307 27.2301 32.9707C27.2312 32.9828 27.22 32.8995 27.2704 32.7706C27.3305 32.617 27.4493 32.4755 27.602 32.3906L28.7888 34.5268Z" fill="#808080"/>
<path d="M27.4236 32.5213V28.6338L26.4932 30.8047V31.1726L27.4236 32.5213Z" fill="#C5C5C5"/>
<defs>
<linearGradient id="paint0_linear_6919_38702" x1="13.3796" y1="-6.29634" x2="13.3796" y2="21.6303" gradientUnits="userSpaceOnUse">
<stop stop-color="#F5F5F5"/>
<stop offset="1" stop-color="white"/>
</linearGradient>
</defs>
</svg>
