<svg width="17" height="17" viewBox="0 0 17 17" fill="none" xmlns="http://www.w3.org/2000/svg">
<path d="M15.6684 7.5989C15.6057 7.52155 15.5264 7.45924 15.4364 7.41656C15.3464 7.37387 15.248 7.35189 15.1484 7.35223H13.8151V6.68556C13.8151 6.15513 13.6044 5.64642 13.2293 5.27135C12.8542 4.89628 12.3455 4.68556 11.8151 4.68556H7.62844L7.4151 4.0189C7.2768 3.62772 7.02027 3.28923 6.68104 3.05034C6.34181 2.81144 5.93668 2.68396 5.52177 2.68556H3.14844C2.618 2.68556 2.1093 2.89628 1.73422 3.27135C1.35915 3.64642 1.14844 4.15513 1.14844 4.68556V12.6856C1.14844 13.216 1.35915 13.7247 1.73422 14.0998C2.1093 14.4748 2.618 14.6856 3.14844 14.6856H12.7484C13.2026 14.6842 13.6428 14.5284 13.9966 14.2437C14.3504 13.9589 14.5967 13.5623 14.6951 13.1189L15.8151 8.16556C15.8354 8.06617 15.8327 7.96347 15.8073 7.86527C15.7819 7.76707 15.7344 7.67597 15.6684 7.5989ZM4.06177 12.8322C4.0279 12.9826 3.94297 13.1166 3.82141 13.2114C3.69986 13.3062 3.54921 13.356 3.3951 13.3522H3.14844C2.97163 13.3522 2.80206 13.282 2.67703 13.157C2.55201 13.0319 2.48177 12.8624 2.48177 12.6856V4.68556C2.48177 4.50875 2.55201 4.33918 2.67703 4.21416C2.80206 4.08913 2.97163 4.0189 3.14844 4.0189H5.52177C5.66715 4.01131 5.81101 4.05151 5.93139 4.13337C6.05177 4.21523 6.14205 4.33424 6.18844 4.47223L6.54844 5.56556C6.59122 5.69273 6.67137 5.80402 6.77842 5.8849C6.88547 5.96578 7.01443 6.01248 7.14844 6.0189H11.8151C11.9919 6.0189 12.1615 6.08913 12.2865 6.21416C12.4115 6.33918 12.4818 6.50875 12.4818 6.68556V7.35223H5.8151C5.661 7.34846 5.51035 7.39822 5.38879 7.49303C5.26724 7.58784 5.18231 7.72184 5.14844 7.87223L4.06177 12.8322ZM13.3951 12.8322C13.3612 12.9826 13.2763 13.1166 13.1547 13.2114C13.0332 13.3062 12.8825 13.356 12.7284 13.3522H5.28844C5.32287 13.2779 5.34752 13.1995 5.36177 13.1189L6.34844 8.68556H14.3484L13.3951 12.8322Z" fill="#01A747"/>
</svg>
