<svg width="163" height="179" viewBox="0 0 163 179" fill="none" xmlns="http://www.w3.org/2000/svg">
<path d="M83.1021 168.76C56.7687 153.426 1.06299 121.643 1.06299 121.643L70.5942 78.502L162.872 121.443L83.1021 168.76Z" fill="#F3F3F3"/>
<path d="M1.05029 121.641V46.7754L83.2554 93.1625L83.1177 168.762L1.05029 121.641Z" fill="#C5DCCB"/>
<path d="M1.05029 121.641V116.062L83.2554 162.45L83.1138 168.746L1.05029 121.641Z" fill="#B8D1BF"/>
<path d="M115.99 74.666L83.1084 93.1622V168.761L115.99 149.825V74.666Z" fill="#ABCEB3"/>
<path d="M33.9323 27.6914L0.609863 46.7747L83.1085 93.1619L115.991 74.5189L33.9323 27.6914Z" fill="#87A58E"/>
<path d="M33.7856 65.2709V27.6914L0.316406 46.6279L33.7856 65.2709Z" fill="#B2CFBA"/>
<path d="M24.9258 91.6792V66.6113L52.3416 82.1815V107.443L24.9258 91.6792Z" fill="#E3F3E8"/>
<path d="M58.3006 79.0898C56.5369 80.0216 52.9096 81.9651 52.5103 82.2845V107.842L58.3006 104.747V79.0898Z" fill="#93BC9C"/>
<path d="M52.5103 82.4847L58.101 79.0903L30.3473 63.2168L24.6567 66.4115L52.5103 82.4847Z" fill="#B2CFBA"/>
<path d="M21.8171 0.167969C8.21711 14.568 12.3171 33.5013 16.0671 55.168L83.3174 93.168L94.3174 86.668C84.9174 39.068 92.734 43.0013 97.8174 36.918L21.8171 0.167969Z" fill="url(#paint0_linear_7378_131089)"/>
<ellipse cx="99.5498" cy="106.668" rx="7.96484" ry="11.1875" fill="#93BC9C"/>
<path d="M28.727 16.2422C19.8823 25.6072 22.5487 37.9205 24.9875 52.0114L68.7236 76.7246L75.8775 72.4973C69.7642 41.5407 74.8478 44.0988 78.1537 40.1425L28.727 16.2422Z" fill="white" stroke="#EBEBEB" stroke-dasharray="2 2"/>
<path d="M102.185 103.881C100.646 102.712 98.4504 103.011 97.2808 104.55C96.1112 106.089 96.4106 108.285 97.9496 109.455L102.185 103.881ZM109.067 128.168L112.427 129.148L109.067 128.168ZM119.317 144.418L121.017 147.478L119.317 144.418ZM97.9496 109.455C99.7024 110.787 102.303 113.403 104.113 116.693C105.91 119.958 106.765 123.563 105.707 127.188L112.427 129.148C114.17 123.173 112.609 117.612 110.246 113.318C107.898 109.05 104.599 105.716 102.185 103.881L97.9496 109.455ZM105.707 127.188C103.654 134.229 105.268 140.155 108.523 143.994C111.479 147.48 116.662 149.897 121.017 147.478L117.618 141.358C117.472 141.439 115.781 141.731 113.862 139.467C112.242 137.556 110.981 134.107 112.427 129.148L105.707 127.188ZM121.017 147.478C123.631 146.025 124.064 143.358 123.892 141.494C123.724 139.68 122.982 137.829 122.184 136.282C121.356 134.676 120.312 133.102 119.27 131.777C118.266 130.502 117.101 129.248 115.977 128.445L111.908 134.141C112.242 134.38 112.928 135.037 113.768 136.105C114.57 137.125 115.362 138.327 115.963 139.491C116.594 140.715 116.874 141.63 116.921 142.138C116.964 142.598 116.804 141.811 117.618 141.358L121.017 147.478Z" fill="#6C8D73"/>
<path d="M115.974 140.355V123.512L111.942 132.918V134.512L115.974 140.355Z" fill="#ABCEB3"/>
<g clip-path="url(#clip0_7378_131089)">
<path opacity="0.2" d="M47.3752 178.356L1.0625 151.255L20.743 139.803L67.0625 166.904L47.3752 178.356Z" fill="#274E37"/>
<path d="M10.9542 102.773L1.17236 151.087L47.4919 178.356L57.2737 129.687L10.9542 102.773Z" fill="#93BC9C"/>
<path opacity="0.2" d="M47.5399 173.852L55.8311 130.349L11.854 104.793L3.50781 148.268L47.5399 173.852Z" fill="#2E5037"/>
<path d="M47.1898 173.323L55.8313 130.349L11.8542 104.793L3.15771 147.732L47.1898 173.323Z" fill="#E3F3E8"/>
<path opacity="0.2" d="M46.4823 173.79L55.8313 130.349L11.8542 104.793L2.4502 148.206L46.4823 173.79Z" fill="#93BC9C"/>
<path d="M46.283 173.114L55.8313 130.349L11.8542 104.793L2.25098 147.53L46.283 173.114Z" fill="white"/>
<path d="M42.2577 149.805L41.0556 154.999L35.7388 151.866L36.9203 146.68L42.2577 149.805Z" fill="#93BC9C"/>
<path d="M9.9375 124.961L26.7123 134.7L27.9007 129.43L11.2358 119.719L9.9375 124.961Z" fill="#E3F3E8"/>
<path d="M33.2383 162.476L44.4764 168.923L45.6717 163.653L34.5297 157.234L33.2383 162.476Z" fill="#E3F3E8"/>
<path d="M44.7236 169.515L44.3183 169.278L4.88184 146.361L10.8718 119.127L50.6656 142.246L44.7236 169.515ZM5.66493 146.013L44.2565 168.436L49.8893 142.595L11.339 120.206L5.66493 146.013Z" fill="#DEEDE2"/>
<path d="M49.9296 142.349L44.1636 168.904L44.8344 169.054L50.6005 142.498L49.9296 142.349Z" fill="#DEEDE2"/>
<path d="M39.1255 165.775L39.3865 161.856L44.4423 139.119L44.1813 143.039L39.1255 165.775Z" fill="#E3F3E8"/>
<path d="M33.4307 162.496L34.619 154.81L38.9398 135.889L37.7514 143.574L33.4307 162.496Z" fill="#E3F3E8"/>
<path d="M27.729 159.219L29.8447 147.767L33.4374 132.66L31.3216 144.112L27.729 159.219Z" fill="#E3F3E8"/>
<path d="M22.0347 155.946L25.0778 140.721L27.9422 129.43L24.8923 144.648L22.0347 155.946Z" fill="#E3F3E8"/>
<path d="M16.333 152.667L20.3103 133.676L22.4398 126.199L18.4625 145.191L16.333 152.667Z" fill="#E3F3E8"/>
<path d="M10.6387 149.388L15.5433 126.638L16.9447 122.969L12.04 145.726L10.6387 149.388Z" fill="#E3F3E8"/>
<path d="M10.7608 119.591L4.94287 146.115L5.61345 146.266L11.4314 119.742L10.7608 119.591Z" fill="#DEEDE2"/>
<path d="M5.43836 145.888L5.09668 146.492L44.3135 169.28L44.6552 168.676L5.43836 145.888Z" fill="#DEEDE2"/>
<path d="M37.6417 159.413L6.33838 141.062L14.4441 145.135L45.7474 163.486L37.6417 159.413Z" fill="#E3F3E8"/>
<path d="M30.9646 149.555L7.57471 135.639L23.4427 144.382L46.8395 158.292L30.9646 149.555Z" fill="#E3F3E8"/>
<path d="M24.2875 139.692L8.8042 130.217L32.4414 143.632L47.9247 153.107L24.2875 139.692Z" fill="#E3F3E8"/>
<path d="M17.611 129.833L10.041 124.793L41.4473 142.872L49.0173 147.913L17.611 129.833Z" fill="#E3F3E8"/>
<path d="M11.2787 119.367L10.937 119.971L50.1062 142.731L50.4478 142.127L11.2787 119.367Z" fill="#DEEDE2"/>
<path d="M57.2736 129.688L47.4917 178.356L57.2873 169.766L67.0623 166.904L57.2736 129.688Z" fill="#3C6045"/>
<path d="M66.9182 166.946L67.0624 166.904L57.2737 129.688L51.5791 158.028L66.9182 166.946Z" fill="#274E37"/>
<path d="M57.4453 169.716L50.0883 165.441L47.4917 178.355L57.2873 169.765L57.4453 169.716Z" fill="#2E5037"/>
<path d="M57.2736 129.688L47.4917 178.356L57.2873 169.766L67.0623 166.904L57.2736 129.688ZM57.1568 169.522L47.9039 177.632L57.3079 130.857L66.7325 166.709L57.1568 169.522Z" fill="#274E37"/>
<path d="M53.3923 131.197L50.8918 129.742L50.5415 131.448L53.0419 132.903L53.3923 131.197Z" fill="#93BC9C"/>
<path d="M47.1412 127.564L44.6408 126.109L44.2974 127.815L46.7978 129.27L47.1412 127.564Z" fill="#93BC9C"/>
<path d="M40.8971 123.93L38.3967 122.482L38.0532 124.188L40.5536 125.643L40.8971 123.93Z" fill="#93BC9C"/>
<path d="M34.653 120.303L32.1525 118.848L31.8091 120.553L34.3095 122.008L34.653 120.303Z" fill="#93BC9C"/>
<path d="M28.4089 116.669L25.9084 115.221L25.5581 116.926L28.0585 118.374L28.4089 116.669Z" fill="#93BC9C"/>
<path d="M22.1647 113.043L19.6643 111.588L19.314 113.293L21.8144 114.748L22.1647 113.043Z" fill="#93BC9C"/>
<path d="M15.9137 109.408L13.4133 107.953L13.0698 109.659L15.5702 111.114L15.9137 109.408Z" fill="#93BC9C"/>
<path d="M56.6484 124.402C55.9615 123.998 55.0891 124.068 54.1961 124.597C52.5269 125.572 51.2148 127.862 51.2148 129.804C51.2148 130.66 51.469 131.35 51.9499 131.795C52.2727 132.095 52.678 132.262 53.1314 132.283L53.3512 131.203C53.0695 131.231 52.8429 131.162 52.6643 131.002C52.4101 130.772 52.2727 130.347 52.2727 129.804C52.2727 128.259 53.3924 126.302 54.7182 125.523C55.2677 125.203 55.776 125.133 56.1126 125.328C56.4424 125.523 56.6347 125.996 56.6347 126.623C56.6347 127.333 56.4011 128.154 55.9753 128.934L56.9026 129.456C57.4109 128.516 57.6926 127.514 57.6926 126.623C57.7063 125.585 57.3285 124.799 56.6484 124.402Z" fill="#DEEDE2"/>
<path d="M50.4043 120.769C49.7174 120.365 48.845 120.435 47.952 120.964C46.2827 121.939 44.9707 124.229 44.9707 126.171C44.9707 127.028 45.2249 127.717 45.7057 128.162C46.0286 128.462 46.4339 128.629 46.8872 128.65L47.107 127.571C46.8254 127.599 46.5987 127.529 46.4201 127.369C46.166 127.139 46.0286 126.714 46.0286 126.171C46.0286 124.626 47.1483 122.67 48.474 121.89C49.0236 121.57 49.5319 121.5 49.8685 121.695C50.1982 121.89 50.3906 122.363 50.3906 122.99C50.3906 123.7 50.157 124.521 49.7311 125.301L50.6585 125.823C51.1668 124.883 51.4484 123.881 51.4484 122.99C51.4553 121.96 51.0844 121.166 50.4043 120.769Z" fill="#DEEDE2"/>
<path d="M44.1602 117.134C43.4732 116.731 42.6008 116.8 41.7078 117.329C40.0386 118.304 38.7266 120.594 38.7266 122.537C38.7266 123.393 38.9807 124.082 39.4616 124.528C39.7844 124.827 40.1897 124.994 40.6431 125.015L40.8629 123.936C40.5813 123.964 40.3546 123.894 40.176 123.734C39.9218 123.504 39.7844 123.08 39.7844 122.537C39.7844 120.991 40.9041 119.035 42.2299 118.255C42.7794 117.935 43.2878 117.865 43.6244 118.06C43.9541 118.255 44.1464 118.729 44.1464 119.355C44.1464 120.065 43.9129 120.887 43.487 121.666L44.4143 122.189C44.9226 121.249 45.2043 120.246 45.2043 119.355C45.2112 118.325 44.8402 117.538 44.1602 117.134Z" fill="#DEEDE2"/>
<path d="M37.916 113.507C37.2291 113.104 36.3567 113.173 35.4637 113.702C33.7945 114.677 32.4824 116.967 32.4824 118.91C32.4824 119.766 32.7366 120.455 33.2174 120.901C33.5403 121.2 33.9456 121.367 34.3989 121.388L34.6188 120.309C34.3371 120.337 34.1104 120.267 33.9318 120.107C33.6777 119.877 33.5403 119.453 33.5403 118.91C33.5403 117.364 34.66 115.408 35.9858 114.628C36.5353 114.308 37.0436 114.238 37.3802 114.433C37.7099 114.628 37.9023 115.102 37.9023 115.728C37.9023 116.438 37.6687 117.26 37.2428 118.039L38.1702 118.562C38.6785 117.622 38.9601 116.619 38.9601 115.728C38.967 114.698 38.5961 113.904 37.916 113.507Z" fill="#DEEDE2"/>
<path d="M31.665 109.875C30.9781 109.471 30.1057 109.54 29.2127 110.07C27.5435 111.044 26.2314 113.335 26.2314 115.277C26.2314 116.133 26.4856 116.822 26.9665 117.268C27.2893 117.567 27.6946 117.734 28.148 117.755L28.3678 116.676C28.0862 116.704 27.8595 116.634 27.6809 116.474C27.4267 116.245 27.2893 115.82 27.2893 115.277C27.2893 113.731 28.409 111.775 29.7348 110.995C30.2843 110.675 30.7926 110.606 31.1292 110.801C31.459 110.995 31.6513 111.469 31.6513 112.095C31.6513 112.805 31.4177 113.627 30.9919 114.407L31.9192 114.929C32.4275 113.989 32.7092 112.986 32.7092 112.095C32.7229 111.065 32.3451 110.271 31.665 109.875Z" fill="#DEEDE2"/>
<path d="M25.4209 106.248C24.734 105.844 23.8616 105.914 22.9686 106.443C21.2993 107.417 19.9873 109.708 19.9873 111.65C19.9873 112.506 20.2415 113.195 20.7223 113.641C21.0452 113.94 21.4505 114.107 21.9038 114.128L22.1236 113.049C21.842 113.077 21.6153 113.007 21.4367 112.847C21.1826 112.618 21.0452 112.193 21.0452 111.65C21.0452 110.104 22.1649 108.148 23.4906 107.368C24.0402 107.048 24.5485 106.979 24.8851 107.174C25.2148 107.368 25.4072 107.842 25.4072 108.468C25.4072 109.179 25.1736 110 24.7477 110.78L25.6751 111.302C26.1971 110.369 26.4788 109.36 26.4788 108.475C26.4788 107.431 26.101 106.644 25.4209 106.248Z" fill="#DEEDE2"/>
<path d="M19.1768 102.613C18.4898 102.209 17.6174 102.279 16.7244 102.808C15.0552 103.782 13.7432 106.073 13.7432 108.015C13.7432 108.871 13.9973 109.561 14.4782 110.006C14.801 110.305 15.2063 110.473 15.6597 110.493L15.8795 109.414C15.5979 109.442 15.3712 109.373 15.1926 109.213C14.9453 108.983 14.801 108.558 14.801 108.015C14.801 106.47 15.9207 104.513 17.2465 103.734C17.796 103.413 18.3044 103.344 18.641 103.539C18.9707 103.734 19.163 104.207 19.163 104.834C19.163 105.544 18.9295 106.365 18.5036 107.145L19.4309 107.667C19.9393 106.727 20.2209 105.725 20.2209 104.834C20.2278 103.803 19.8568 103.01 19.1768 102.613Z" fill="#DEEDE2"/>
<path d="M38.3832 116.084C38.3832 115.451 38.1909 114.984 37.8612 114.79C37.8405 114.783 37.8268 114.776 37.8062 114.762C37.9642 115.005 38.0535 115.36 38.0535 115.785C38.0535 116.495 37.8199 117.317 37.394 118.096L37.7719 118.305C38.1634 117.553 38.3832 116.767 38.3832 116.084Z" fill="url(#paint1_radial_7378_131089)"/>
<path d="M16.2984 120.442L12.2112 118.068C11.9227 117.901 11.5586 118.075 11.5037 118.403L11.3525 119.266L16.7793 122.419L16.9029 121.744C16.9853 121.222 16.7449 120.7 16.2984 120.442Z" fill="#93BC9C"/>
<path d="M21.8761 123.679L17.7888 121.305C17.5003 121.138 17.1363 121.312 17.0813 121.639L16.9302 122.502L22.3569 125.656L22.4806 124.98C22.563 124.458 22.3226 123.936 21.8761 123.679Z" fill="#93BC9C"/>
<path d="M27.4542 126.917L23.367 124.543C23.0785 124.376 22.7144 124.55 22.6594 124.877L22.5083 125.74L27.935 128.894L28.0587 128.219C28.1411 127.69 27.9076 127.174 27.4542 126.917Z" fill="#93BC9C"/>
<path d="M33.0318 130.147L28.9446 127.773C28.6561 127.606 28.292 127.78 28.2371 128.108L28.0859 128.971L33.5127 132.124L33.6363 131.449C33.7187 130.927 33.4852 130.412 33.0318 130.147Z" fill="#93BC9C"/>
<path d="M38.6168 133.384L34.5296 131.01C34.241 130.843 33.877 131.017 33.822 131.344L33.6709 132.207L39.0976 135.361L39.2213 134.686C39.3037 134.163 39.0633 133.648 38.6168 133.384Z" fill="#93BC9C"/>
<path d="M44.1944 136.622L40.1072 134.248C39.8187 134.081 39.4546 134.255 39.3997 134.582L39.2485 135.445L44.6753 138.599L44.7989 137.924C44.8813 137.402 44.6409 136.88 44.1944 136.622Z" fill="#93BC9C"/>
<path d="M49.7725 139.858L45.6853 137.484C45.3968 137.317 45.0327 137.491 44.9778 137.819L44.8267 138.682L50.2534 141.835L50.377 141.16C50.4595 140.638 50.219 140.116 49.7725 139.858Z" fill="#93BC9C"/>
</g>
<defs>
<linearGradient id="paint0_linear_7378_131089" x1="55.1191" y1="-27.832" x2="55.1191" y2="93.168" gradientUnits="userSpaceOnUse">
<stop stop-color="#F5F5F5"/>
<stop offset="1" stop-color="white"/>
</linearGradient>
<radialGradient id="paint1_radial_7378_131089" cx="0" cy="0" r="1" gradientUnits="userSpaceOnUse" gradientTransform="translate(36.859 116.399) scale(1.76369 1.7874)">
<stop stop-color="white"/>
<stop offset="0.3253" stop-color="#B7B6B6"/>
<stop offset="1"/>
</radialGradient>
<clipPath id="clip0_7378_131089">
<rect width="66" height="76" fill="white" transform="translate(1.0625 102.355)"/>
</clipPath>
</defs>
</svg>
