<svg width="23" height="26" viewBox="0 0 23 26" fill="none" xmlns="http://www.w3.org/2000/svg">
<path d="M16.8488 5.40792V0.613281L21.7238 6.30078H17.7416C17.5048 6.30078 17.2777 6.20671 17.1103 6.03927C16.9428 5.87183 16.8488 5.64472 16.8488 5.40792ZM17.7416 8.0865C17.0312 8.0865 16.3499 7.80429 15.8476 7.30196C15.3453 6.79963 15.0631 6.11833 15.0631 5.40792V0.0507812H3.45592C2.74551 0.0507813 2.06421 0.332987 1.56188 0.835317C1.05955 1.33765 0.777344 2.01895 0.777344 2.72935V22.3722C0.777344 23.0826 1.05955 23.7639 1.56188 24.2662C2.06421 24.7686 2.74551 25.0508 3.45592 25.0508H19.5273C20.2377 25.0508 20.9191 24.7686 21.4214 24.2662C21.9237 23.7639 22.2059 23.0826 22.2059 22.3722V8.0865H17.7416Z" fill="#23B24B"/>
</svg>
