<svg width="16" height="15" viewBox="0 0 16 15" fill="none" xmlns="http://www.w3.org/2000/svg">
<path d="M13.784 0.795898H1.68711C0.888719 0.795898 0.235489 1.44913 0.235489 2.24752C0.235489 3.04591 0.888719 3.69914 1.68711 3.69914H13.784C14.5824 3.69914 15.2356 3.04591 15.2356 2.24752C15.2356 1.44913 14.5824 0.795898 13.784 0.795898Z" fill="#0f48aa"/>
<path d="M13.784 6.11865H1.68711C0.888719 6.11865 0.235489 6.77188 0.235489 7.57028C0.235489 8.36867 0.888719 9.0219 1.68711 9.0219H13.784C14.5824 9.0219 15.2356 8.36867 15.2356 7.57028C15.2356 6.77188 14.5824 6.11865 13.784 6.11865Z" fill="#0f48aa"/>
<path d="M14.3455 11.4414H6.93134C6.442 11.4414 6.04163 12.0946 6.04163 12.893C6.04163 13.6914 6.442 14.3447 6.93134 14.3447H14.3455C14.8349 14.3447 15.2352 13.6914 15.2352 12.893C15.2352 12.0946 14.8349 11.4414 14.3455 11.4414Z" fill="#0f48aa"/>
</svg>
