<svg width="54" height="54" viewBox="0 0 54 54" fill="none" xmlns="http://www.w3.org/2000/svg">
<mask id="mask0" mask-type="alpha" maskUnits="userSpaceOnUse" x="0" y="0" width="54" height="54">
<circle cx="27" cy="27" r="27" fill="white"/>
</mask>
<g mask="url(#mask0)">
<circle cx="27" cy="27" r="27" fill="white"/>
<path d="M27.1529 41.7466C27.1087 41.7466 27.0646 41.7907 26.9763 41.7907C26.9322 41.7907 26.8881 41.7466 26.7998 41.7466H27.1529Z" fill="#E6E9EE"/>
<path d="M49.5718 46.2484C44.4965 53.1774 36.2434 57.7232 26.9754 57.7232C17.7073 57.7232 9.49842 53.2215 4.37891 46.2484C8.35094 42.0116 13.7353 39.7608 18.2369 38.6133C17.8397 41.835 19.5168 46.1601 19.5609 46.0277C21.238 42.144 26.9312 41.7909 26.9312 41.7909C26.9312 41.7909 32.6245 42.0998 34.3457 46.0277C34.3898 46.116 36.0669 41.835 35.6697 38.6133C40.2155 39.7608 45.5998 42.0116 49.5718 46.2484Z" fill="#CFD8E6"/>
<path d="M33.9482 35.6554C33.9482 36.2292 33.5951 39.2744 27.1516 41.7459H26.7985C20.355 39.2744 20.002 36.2292 20.002 35.6554C20.0461 34.508 20.3109 33.3605 20.7964 32.3013C22.5617 34.2873 24.6801 35.6113 26.9751 35.6113C29.2259 35.6113 31.3885 34.3314 33.1538 32.3013C33.6393 33.3605 33.9482 34.508 33.9482 35.6554Z" fill="#EBF6FF"/>
<path d="M30.8121 42.7615L29.3998 45.586H24.5451L23.1328 42.7615C25.0747 41.9229 26.9725 41.7905 26.9725 41.7905C26.9725 41.7905 28.9143 41.9229 30.8121 42.7615Z" fill="#032B71"/>
<path d="M23.0469 57.4582C24.3268 57.6347 25.6508 57.723 27.0189 57.723C28.3429 57.723 29.6669 57.6347 30.9909 57.4582L29.4463 45.6304H24.5916L23.0469 57.4582Z" fill="#032B71"/>
<path d="M33.9475 35.5679C33.9475 35.5679 34.2564 39.0986 26.9744 41.7907C26.9744 41.7907 32.6676 42.0997 34.3888 46.0276C34.433 46.2041 37.743 37.6422 33.9475 35.5679Z" fill="white"/>
<path d="M20.002 35.5679C16.2507 37.6422 19.5166 46.16 19.6048 46.0276C21.2819 42.1438 27.0193 41.7907 27.0193 41.7907C19.6931 39.0986 20.002 35.5679 20.002 35.5679Z" fill="white"/>
<path d="M39.0232 26.4319C38.0964 27.9766 36.6841 28.9034 35.6249 28.7269C33.5065 32.6548 30.4171 35.5676 26.9747 35.5676C23.5322 35.5676 20.4429 32.6106 18.3245 28.7269C17.2653 28.8593 15.853 27.9766 14.9262 26.4319C13.8228 24.6224 13.7787 22.6364 14.8379 21.9744C15.1027 21.842 15.3675 21.7537 15.6764 21.7979C16.3826 23.6073 17.3535 24.7107 17.3535 24.7107C16.3384 19.1057 20.487 18.4878 19.7809 13.1035C19.7809 13.1035 22.3848 18.885 29.8434 14.8247L29.2696 15.9281C39.6852 13.589 36.1986 25.8582 36.1104 26.1671C37.302 24.6666 38.0522 23.166 38.4936 21.7979C38.6701 21.7979 38.8908 21.8861 39.0232 21.9744C40.1707 22.5923 40.1265 24.6224 39.0232 26.4319Z" fill="white"/>
<path d="M32.9777 7.2773C33.8163 7.18904 35.1844 7.93931 35.1844 7.93931C31.4331 3.65834 25.2985 6.39463 25.2985 6.39463C27.3728 4.62928 29.2264 4.80582 29.2264 4.80582C20.4438 3.48181 18.9432 8.73372 18.9432 8.73372C18.546 8.11585 18.546 7.23317 18.5902 6.79183C17.9723 7.85104 18.6343 9.96946 18.6343 9.96946C18.0164 8.42478 15.8539 8.68958 15.8539 8.68958C17.7075 8.99852 18.0164 10.146 18.0164 10.146C13.3824 11.8672 14.1768 16.6778 14.1768 16.6778L15.2801 15.3538C13.912 20.6057 17.3985 24.666 17.3985 24.666C16.3835 19.061 20.532 18.4431 19.8259 13.0588C19.8259 13.0588 22.4298 18.8403 29.8884 14.78L29.3146 15.8834C39.8626 13.5002 36.1554 26.1665 36.1554 26.1665C39.9067 21.4001 39.333 16.5013 39.333 16.5013L39.7743 18.2666C40.9659 10.3225 32.9777 7.2773 32.9777 7.2773Z" fill="#CFD8E6"/>
</g>
</svg>
