<svg width="15" height="15" viewBox="0 0 15 15" fill="none" xmlns="http://www.w3.org/2000/svg">
<path d="M9.01428 5.24951H9.59762C9.75233 5.24951 9.9007 5.18805 10.0101 5.07866C10.1195 4.96926 10.1809 4.82089 10.1809 4.66618C10.1809 4.51147 10.1195 4.3631 10.0101 4.2537C9.9007 4.1443 9.75233 4.08285 9.59762 4.08285H9.01428C8.85957 4.08285 8.7112 4.1443 8.6018 4.2537C8.49241 4.3631 8.43095 4.51147 8.43095 4.66618C8.43095 4.82089 8.49241 4.96926 8.6018 5.07866C8.7112 5.18805 8.85957 5.24951 9.01428 5.24951ZM9.01428 7.58285H9.59762C9.75233 7.58285 9.9007 7.52139 10.0101 7.41199C10.1195 7.30259 10.1809 7.15422 10.1809 6.99951C10.1809 6.8448 10.1195 6.69643 10.0101 6.58703C9.9007 6.47764 9.75233 6.41618 9.59762 6.41618H9.01428C8.85957 6.41618 8.7112 6.47764 8.6018 6.58703C8.49241 6.69643 8.43095 6.8448 8.43095 6.99951C8.43095 7.15422 8.49241 7.30259 8.6018 7.41199C8.7112 7.52139 8.85957 7.58285 9.01428 7.58285ZM6.09762 5.24951H6.68095C6.83566 5.24951 6.98403 5.18805 7.09343 5.07866C7.20282 4.96926 7.26428 4.82089 7.26428 4.66618C7.26428 4.51147 7.20282 4.3631 7.09343 4.2537C6.98403 4.1443 6.83566 4.08285 6.68095 4.08285H6.09762C5.94291 4.08285 5.79453 4.1443 5.68514 4.2537C5.57574 4.3631 5.51428 4.51147 5.51428 4.66618C5.51428 4.82089 5.57574 4.96926 5.68514 5.07866C5.79453 5.18805 5.94291 5.24951 6.09762 5.24951ZM6.09762 7.58285H6.68095C6.83566 7.58285 6.98403 7.52139 7.09343 7.41199C7.20282 7.30259 7.26428 7.15422 7.26428 6.99951C7.26428 6.8448 7.20282 6.69643 7.09343 6.58703C6.98403 6.47764 6.83566 6.41618 6.68095 6.41618H6.09762C5.94291 6.41618 5.79453 6.47764 5.68514 6.58703C5.57574 6.69643 5.51428 6.8448 5.51428 6.99951C5.51428 7.15422 5.57574 7.30259 5.68514 7.41199C5.79453 7.52139 5.94291 7.58285 6.09762 7.58285ZM13.0976 12.2495H12.5143V2.33285C12.5143 2.17814 12.4528 2.02976 12.3434 1.92037C12.234 1.81097 12.0857 1.74951 11.9309 1.74951H3.76428C3.60957 1.74951 3.4612 1.81097 3.3518 1.92037C3.24241 2.02976 3.18095 2.17814 3.18095 2.33285V12.2495H2.59762C2.44291 12.2495 2.29453 12.311 2.18514 12.4204C2.07574 12.5298 2.01428 12.6781 2.01428 12.8328C2.01428 12.9876 2.07574 13.1359 2.18514 13.2453C2.29453 13.3547 2.44291 13.4162 2.59762 13.4162H13.0976C13.2523 13.4162 13.4007 13.3547 13.5101 13.2453C13.6195 13.1359 13.681 12.9876 13.681 12.8328C13.681 12.6781 13.6195 12.5298 13.5101 12.4204C13.4007 12.311 13.2523 12.2495 13.0976 12.2495ZM8.43095 12.2495H7.26428V9.91618H8.43095V12.2495ZM11.3476 12.2495H9.59762V9.33285C9.59762 9.17814 9.53616 9.02976 9.42676 8.92037C9.31737 8.81097 9.16899 8.74951 9.01428 8.74951H6.68095C6.52624 8.74951 6.37787 8.81097 6.26847 8.92037C6.15907 9.02976 6.09762 9.17814 6.09762 9.33285V12.2495H4.34762V2.91618H11.3476V12.2495Z" fill="black"/>
</svg>
