<svg width="15" height="15" viewBox="0 0 15 15" fill="none" xmlns="http://www.w3.org/2000/svg">
<path d="M8.38916 5.64258H8.97249C9.1272 5.64258 9.27558 5.58112 9.38497 5.47172C9.49437 5.36233 9.55583 5.21395 9.55583 5.05925C9.55583 4.90454 9.49437 4.75616 9.38497 4.64677C9.27558 4.53737 9.1272 4.47591 8.97249 4.47591H8.38916C8.23445 4.47591 8.08608 4.53737 7.97668 4.64677C7.86729 4.75616 7.80583 4.90454 7.80583 5.05925C7.80583 5.21395 7.86729 5.36233 7.97668 5.47172C8.08608 5.58112 8.23445 5.64258 8.38916 5.64258ZM8.38916 7.97591H8.97249C9.1272 7.97591 9.27558 7.91445 9.38497 7.80506C9.49437 7.69566 9.55583 7.54729 9.55583 7.39258C9.55583 7.23787 9.49437 7.0895 9.38497 6.9801C9.27558 6.8707 9.1272 6.80925 8.97249 6.80925H8.38916C8.23445 6.80925 8.08608 6.8707 7.97668 6.9801C7.86729 7.0895 7.80583 7.23787 7.80583 7.39258C7.80583 7.54729 7.86729 7.69566 7.97668 7.80506C8.08608 7.91445 8.23445 7.97591 8.38916 7.97591ZM5.47249 5.64258H6.05583C6.21054 5.64258 6.35891 5.58112 6.46831 5.47172C6.5777 5.36233 6.63916 5.21395 6.63916 5.05925C6.63916 4.90454 6.5777 4.75616 6.46831 4.64677C6.35891 4.53737 6.21054 4.47591 6.05583 4.47591H5.47249C5.31778 4.47591 5.16941 4.53737 5.06001 4.64677C4.95062 4.75616 4.88916 4.90454 4.88916 5.05925C4.88916 5.21395 4.95062 5.36233 5.06001 5.47172C5.16941 5.58112 5.31778 5.64258 5.47249 5.64258ZM5.47249 7.97591H6.05583C6.21054 7.97591 6.35891 7.91445 6.46831 7.80506C6.5777 7.69566 6.63916 7.54729 6.63916 7.39258C6.63916 7.23787 6.5777 7.0895 6.46831 6.9801C6.35891 6.8707 6.21054 6.80925 6.05583 6.80925H5.47249C5.31778 6.80925 5.16941 6.8707 5.06001 6.9801C4.95062 7.0895 4.88916 7.23787 4.88916 7.39258C4.88916 7.54729 4.95062 7.69566 5.06001 7.80506C5.16941 7.91445 5.31778 7.97591 5.47249 7.97591ZM12.4725 12.6426H11.8892V2.72591C11.8892 2.5712 11.8277 2.42283 11.7183 2.31343C11.6089 2.20404 11.4605 2.14258 11.3058 2.14258H3.13916C2.98445 2.14258 2.83608 2.20404 2.72668 2.31343C2.61729 2.42283 2.55583 2.5712 2.55583 2.72591V12.6426H1.97249C1.81778 12.6426 1.66941 12.704 1.56001 12.8134C1.45062 12.9228 1.38916 13.0712 1.38916 13.2259C1.38916 13.3806 1.45062 13.529 1.56001 13.6384C1.66941 13.7478 1.81778 13.8092 1.97249 13.8092H12.4725C12.6272 13.8092 12.7756 13.7478 12.885 13.6384C12.9944 13.529 13.0558 13.3806 13.0558 13.2259C13.0558 13.0712 12.9944 12.9228 12.885 12.8134C12.7756 12.704 12.6272 12.6426 12.4725 12.6426ZM7.80583 12.6426H6.63916V10.3092H7.80583V12.6426ZM10.7225 12.6426H8.97249V9.72591C8.97249 9.5712 8.91104 9.42283 8.80164 9.31343C8.69224 9.20404 8.54387 9.14258 8.38916 9.14258H6.05583C5.90112 9.14258 5.75274 9.20404 5.64335 9.31343C5.53395 9.42283 5.47249 9.5712 5.47249 9.72591V12.6426H3.72249V3.30924H10.7225V12.6426Z" fill="white"/>
</svg>
