<svg width="14" height="15" viewBox="0 0 14 15" fill="none" xmlns="http://www.w3.org/2000/svg">
<path d="M11.6084 8.05604C11.5148 7.94959 11.4633 7.81274 11.4633 7.67104C11.4633 7.52934 11.5148 7.39249 11.6084 7.28604L12.355 6.44604C12.4373 6.35426 12.4884 6.23878 12.501 6.11617C12.5135 5.99356 12.487 5.87011 12.425 5.76354L11.2584 3.74521C11.197 3.63876 11.1037 3.55439 10.9916 3.50411C10.8795 3.45383 10.7545 3.44022 10.6342 3.46521L9.53752 3.68687C9.39798 3.71571 9.25271 3.69247 9.12912 3.62154C9.00554 3.55061 8.91219 3.43691 8.86669 3.30187L8.51085 2.23437C8.47172 2.11851 8.39716 2.01788 8.29772 1.9467C8.19828 1.87552 8.07898 1.83739 7.95669 1.83771H5.62335C5.49615 1.83107 5.37027 1.86625 5.26493 1.93787C5.1596 2.0095 5.08061 2.11364 5.04002 2.23437L4.71335 3.30187C4.66786 3.43691 4.5745 3.55061 4.45092 3.62154C4.32734 3.69247 4.18206 3.71571 4.04252 3.68687L2.91669 3.46521C2.80268 3.4491 2.68645 3.46709 2.58264 3.51691C2.47883 3.56674 2.3921 3.64617 2.33335 3.74521L1.16669 5.76354C1.1032 5.86892 1.07465 5.99167 1.08513 6.11425C1.0956 6.23683 1.14457 6.35296 1.22502 6.44604L1.96585 7.28604C2.05937 7.39249 2.11095 7.52934 2.11095 7.67104C2.11095 7.81274 2.05937 7.94959 1.96585 8.05604L1.22502 8.89604C1.14457 8.98912 1.0956 9.10525 1.08513 9.22783C1.07465 9.35041 1.1032 9.47316 1.16669 9.57854L2.33335 11.5969C2.39466 11.7033 2.48801 11.7877 2.60008 11.838C2.71216 11.8883 2.83725 11.9019 2.95752 11.8769L4.05419 11.6552C4.19373 11.6264 4.339 11.6496 4.46259 11.7205C4.58617 11.7915 4.67952 11.9052 4.72502 12.0402L5.08085 13.1077C5.12144 13.2284 5.20044 13.3326 5.30577 13.4042C5.4111 13.4758 5.53698 13.511 5.66419 13.5044H7.99752C8.11981 13.5047 8.23911 13.4666 8.33855 13.3954C8.438 13.3242 8.51255 13.2236 8.55169 13.1077L8.90752 12.0402C8.95302 11.9052 9.04637 11.7915 9.16996 11.7205C9.29354 11.6496 9.43881 11.6264 9.57835 11.6552L10.675 11.8769C10.7953 11.9019 10.9204 11.8883 11.0325 11.838C11.1445 11.7877 11.2379 11.7033 11.2992 11.5969L12.4659 9.57854C12.5278 9.47197 12.5544 9.34853 12.5418 9.22591C12.5292 9.1033 12.4781 8.98782 12.3959 8.89604L11.6084 8.05604ZM10.7392 8.83771L11.2059 9.36271L10.4592 10.6577L9.77085 10.5177C9.35073 10.4318 8.91369 10.5032 8.5427 10.7183C8.17172 10.9333 7.89261 11.2771 7.75835 11.6844L7.53669 12.3377H6.04335L5.83335 11.6727C5.6991 11.2654 5.41999 10.9217 5.04901 10.7066C4.67802 10.4915 4.24098 10.4202 3.82085 10.506L3.13252 10.646L2.37419 9.35687L2.84085 8.83187C3.12783 8.51103 3.28648 8.09567 3.28648 7.66521C3.28648 7.23475 3.12783 6.81939 2.84085 6.49854L2.37419 5.97354L3.12085 4.69021L3.80919 4.83021C4.22932 4.91609 4.66635 4.84472 5.03734 4.62966C5.40833 4.41459 5.68744 4.0708 5.82169 3.66354L6.04335 3.00437H7.53669L7.75835 3.66937C7.89261 4.07663 8.17172 4.42043 8.5427 4.63549C8.91369 4.85055 9.35073 4.92192 9.77085 4.83604L10.4592 4.69604L11.2059 5.99104L10.7392 6.51604C10.4554 6.83615 10.2988 7.2491 10.2988 7.67687C10.2988 8.10464 10.4554 8.5176 10.7392 8.83771ZM6.79002 5.33771C6.32853 5.33771 5.87741 5.47456 5.49369 5.73094C5.10998 5.98733 4.81091 6.35175 4.6343 6.77811C4.4577 7.20447 4.41149 7.67363 4.50152 8.12625C4.59155 8.57887 4.81378 8.99463 5.14011 9.32096C5.46643 9.64728 5.88219 9.86951 6.33481 9.95954C6.78743 10.0496 7.25659 10.0034 7.68295 9.82676C8.10931 9.65016 8.47373 9.35109 8.73012 8.96737C8.98651 8.58366 9.12335 8.13253 9.12335 7.67104C9.12335 7.0522 8.87752 6.45871 8.43994 6.02112C8.00235 5.58354 7.40886 5.33771 6.79002 5.33771ZM6.79002 8.83771C6.55928 8.83771 6.33371 8.76928 6.14186 8.64109C5.95 8.51289 5.80046 8.33068 5.71216 8.1175C5.62386 7.90432 5.60076 7.66975 5.64577 7.44344C5.69079 7.21712 5.8019 7.00924 5.96506 6.84608C6.12822 6.68292 6.3361 6.57181 6.56242 6.52679C6.78873 6.48177 7.0233 6.50488 7.23649 6.59318C7.44967 6.68148 7.63187 6.83102 7.76007 7.02288C7.88826 7.21473 7.95669 7.4403 7.95669 7.67104C7.95669 7.98046 7.83377 8.27721 7.61498 8.496C7.39619 8.71479 7.09944 8.83771 6.79002 8.83771Z" fill="white"/>
</svg>
