<svg width="14" height="15" viewBox="0 0 14 15" fill="none" xmlns="http://www.w3.org/2000/svg">
<path d="M11.6074 8.05604C11.5139 7.94959 11.4623 7.81274 11.4623 7.67104C11.4623 7.52934 11.5139 7.39249 11.6074 7.28604L12.354 6.44604C12.4363 6.35426 12.4874 6.23878 12.5 6.11617C12.5126 5.99356 12.486 5.87011 12.424 5.76354L11.2574 3.74521C11.1961 3.63876 11.1027 3.55439 10.9906 3.50411C10.8786 3.45383 10.7535 3.44022 10.6332 3.46521L9.53654 3.68687C9.397 3.71571 9.25173 3.69247 9.12815 3.62154C9.00456 3.55061 8.91121 3.43691 8.86571 3.30187L8.50988 2.23437C8.47075 2.11851 8.39619 2.01788 8.29674 1.9467C8.1973 1.87552 8.078 1.83739 7.95571 1.83771H5.62238C5.49517 1.83107 5.36929 1.86625 5.26396 1.93787C5.15862 2.0095 5.07963 2.11364 5.03904 2.23437L4.71238 3.30187C4.66688 3.43691 4.57353 3.55061 4.44994 3.62154C4.32636 3.69247 4.18109 3.71571 4.04154 3.68687L2.91571 3.46521C2.8017 3.4491 2.68547 3.46709 2.58166 3.51691C2.47786 3.56674 2.39112 3.64617 2.33238 3.74521L1.16571 5.76354C1.10222 5.86892 1.07367 5.99167 1.08415 6.11425C1.09463 6.23683 1.14359 6.35296 1.22404 6.44604L1.96488 7.28604C2.0584 7.39249 2.10997 7.52934 2.10997 7.67104C2.10997 7.81274 2.0584 7.94959 1.96488 8.05604L1.22404 8.89604C1.14359 8.98912 1.09463 9.10525 1.08415 9.22783C1.07367 9.35041 1.10222 9.47316 1.16571 9.57854L2.33238 11.5969C2.39368 11.7033 2.48703 11.7877 2.59911 11.838C2.71119 11.8883 2.83628 11.9019 2.95654 11.8769L4.05321 11.6552C4.19275 11.6264 4.33803 11.6496 4.46161 11.7205C4.5852 11.7915 4.67855 11.9052 4.72404 12.0402L5.07988 13.1077C5.12047 13.2284 5.19946 13.3326 5.30479 13.4042C5.41012 13.4758 5.53601 13.511 5.66321 13.5044H7.99654C8.11884 13.5047 8.23814 13.4666 8.33758 13.3954C8.43702 13.3242 8.51158 13.2236 8.55071 13.1077L8.90655 12.0402C8.95204 11.9052 9.04539 11.7915 9.16898 11.7205C9.29256 11.6496 9.43783 11.6264 9.57738 11.6552L10.674 11.8769C10.7943 11.9019 10.9194 11.8883 11.0315 11.838C11.1436 11.7877 11.2369 11.7033 11.2982 11.5969L12.4649 9.57854C12.5268 9.47197 12.5534 9.34853 12.5408 9.22591C12.5282 9.1033 12.4772 8.98782 12.3949 8.89604L11.6074 8.05604ZM10.7382 8.83771L11.2049 9.36271L10.4582 10.6577L9.76988 10.5177C9.34975 10.4318 8.91271 10.5032 8.54173 10.7183C8.17074 10.9333 7.89163 11.2771 7.75738 11.6844L7.53571 12.3377H6.04238L5.83238 11.6727C5.69813 11.2654 5.41902 10.9217 5.04803 10.7066C4.67704 10.4915 4.24001 10.4202 3.81988 10.506L3.13154 10.646L2.37321 9.35687L2.83988 8.83187C3.12685 8.51103 3.2855 8.09567 3.2855 7.66521C3.2855 7.23475 3.12685 6.81939 2.83988 6.49854L2.37321 5.97354L3.11988 4.69021L3.80821 4.83021C4.22834 4.91609 4.66538 4.84472 5.03636 4.62966C5.40735 4.41459 5.68646 4.0708 5.82071 3.66354L6.04238 3.00437H7.53571L7.75738 3.66937C7.89163 4.07663 8.17074 4.42043 8.54173 4.63549C8.91271 4.85055 9.34975 4.92192 9.76988 4.83604L10.4582 4.69604L11.2049 5.99104L10.7382 6.51604C10.4545 6.83615 10.2978 7.2491 10.2978 7.67687C10.2978 8.10464 10.4545 8.5176 10.7382 8.83771ZM6.78904 5.33771C6.32756 5.33771 5.87643 5.47456 5.49271 5.73094C5.109 5.98733 4.80993 6.35175 4.63333 6.77811C4.45672 7.20447 4.41051 7.67363 4.50055 8.12625C4.59058 8.57887 4.81281 8.99463 5.13913 9.32096C5.46545 9.64728 5.88121 9.86951 6.33383 9.95954C6.78646 10.0496 7.25561 10.0034 7.68197 9.82676C8.10833 9.65016 8.47275 9.35109 8.72914 8.96737C8.98553 8.58366 9.12238 8.13253 9.12238 7.67104C9.12238 7.0522 8.87654 6.45871 8.43896 6.02112C8.00138 5.58354 7.40788 5.33771 6.78904 5.33771ZM6.78904 8.83771C6.5583 8.83771 6.33274 8.76928 6.14088 8.64109C5.94902 8.51289 5.79949 8.33068 5.71118 8.1175C5.62288 7.90432 5.59978 7.66975 5.64479 7.44344C5.68981 7.21712 5.80093 7.00924 5.96409 6.84608C6.12725 6.68292 6.33513 6.57181 6.56144 6.52679C6.78775 6.48177 7.02233 6.50488 7.23551 6.59318C7.44869 6.68148 7.6309 6.83102 7.75909 7.02288C7.88729 7.21473 7.95571 7.4403 7.95571 7.67104C7.95571 7.98046 7.8328 8.27721 7.614 8.496C7.39521 8.71479 7.09846 8.83771 6.78904 8.83771Z" fill="black"/>
</svg>
