<svg width="10" height="13" viewBox="0 0 10 13" fill="none" xmlns="http://www.w3.org/2000/svg">
<g clip-path="url(#clip0_7236_127709)">
<path d="M2.66634 9.0957C2.55097 9.0957 2.43818 9.12991 2.34226 9.19401C2.24633 9.25811 2.17156 9.34921 2.12741 9.4558C2.08326 9.56239 2.07171 9.67968 2.09421 9.79284C2.11672 9.90599 2.17228 10.0099 2.25386 10.0915C2.33544 10.1731 2.43938 10.2287 2.55254 10.2512C2.66569 10.2737 2.78298 10.2621 2.88957 10.218C2.99616 10.1738 3.08727 10.099 3.15136 10.0031C3.21546 9.90719 3.24967 9.79441 3.24967 9.67904C3.24967 9.52433 3.18821 9.37595 3.07882 9.26656C2.96942 9.15716 2.82105 9.0957 2.66634 9.0957ZM2.66634 5.5957C2.55097 5.5957 2.43818 5.62991 2.34226 5.69401C2.24633 5.75811 2.17156 5.84921 2.12741 5.9558C2.08326 6.06239 2.07171 6.17968 2.09421 6.29284C2.11672 6.40599 2.17228 6.50993 2.25386 6.59152C2.33544 6.6731 2.43938 6.72865 2.55254 6.75116C2.66569 6.77367 2.78298 6.76212 2.88957 6.71797C2.99616 6.67381 3.08727 6.59905 3.15136 6.50312C3.21546 6.40719 3.24967 6.29441 3.24967 6.17904C3.24967 6.02433 3.18821 5.87595 3.07882 5.76656C2.96942 5.65716 2.82105 5.5957 2.66634 5.5957ZM7.33301 0.345703H2.66634C2.0475 0.345703 1.45401 0.591536 1.01643 1.02912C0.578841 1.46671 0.333008 2.0602 0.333008 2.67904V9.67904C0.333008 10.2979 0.578841 10.8914 1.01643 11.329C1.45401 11.7665 2.0475 12.0124 2.66634 12.0124H7.33301C7.95184 12.0124 8.54534 11.7665 8.98292 11.329C9.42051 10.8914 9.66634 10.2979 9.66634 9.67904V2.67904C9.66634 2.0602 9.42051 1.46671 8.98292 1.02912C8.54534 0.591536 7.95184 0.345703 7.33301 0.345703ZM8.49967 9.67904C8.49967 9.98846 8.37676 10.2852 8.15796 10.504C7.93917 10.7228 7.64243 10.8457 7.33301 10.8457H2.66634C2.35692 10.8457 2.06017 10.7228 1.84138 10.504C1.62259 10.2852 1.49967 9.98846 1.49967 9.67904V8.1857C1.852 8.39777 2.25511 8.51065 2.66634 8.51237H7.33301C7.74423 8.51065 8.14734 8.39777 8.49967 8.1857V9.67904ZM8.49967 6.17904C8.49967 6.48846 8.37676 6.7852 8.15796 7.00399C7.93917 7.22279 7.64243 7.3457 7.33301 7.3457H2.66634C2.35692 7.3457 2.06017 7.22279 1.84138 7.00399C1.62259 6.7852 1.49967 6.48846 1.49967 6.17904V4.6857C1.852 4.89777 2.25511 5.01065 2.66634 5.01237H7.33301C7.74423 5.01065 8.14734 4.89777 8.49967 4.6857V6.17904ZM7.33301 3.8457H2.66634C2.35692 3.8457 2.06017 3.72279 1.84138 3.50399C1.62259 3.2852 1.49967 2.98846 1.49967 2.67904C1.49967 2.36962 1.62259 2.07287 1.84138 1.85408C2.06017 1.63529 2.35692 1.51237 2.66634 1.51237H7.33301C7.64243 1.51237 7.93917 1.63529 8.15796 1.85408C8.37676 2.07287 8.49967 2.36962 8.49967 2.67904C8.49967 2.98846 8.37676 3.2852 8.15796 3.50399C7.93917 3.72279 7.64243 3.8457 7.33301 3.8457Z" fill="black"/>
</g>
<defs>
<clipPath id="clip0_7236_127709">
<rect width="10" height="13" fill="white"/>
</clipPath>
</defs>
</svg>
