<svg width="10" height="13" viewBox="0 0 10 13" fill="none" xmlns="http://www.w3.org/2000/svg">
<path d="M2.43978 9.0957C2.32441 9.0957 2.21162 9.12991 2.1157 9.19401C2.01977 9.25811 1.945 9.34921 1.90085 9.4558C1.8567 9.56239 1.84515 9.67968 1.86765 9.79284C1.89016 9.90599 1.94572 10.0099 2.0273 10.0915C2.10888 10.1731 2.21282 10.2287 2.32598 10.2512C2.43913 10.2737 2.55642 10.2621 2.66301 10.218C2.7696 10.1738 2.86071 10.099 2.9248 10.0031C2.9889 9.90719 3.02311 9.79441 3.02311 9.67904C3.02311 9.52433 2.96165 9.37595 2.85226 9.26656C2.74286 9.15716 2.59449 9.0957 2.43978 9.0957V9.0957ZM2.43978 5.5957C2.32441 5.5957 2.21162 5.62991 2.1157 5.69401C2.01977 5.75811 1.945 5.84921 1.90085 5.9558C1.8567 6.06239 1.84515 6.17968 1.86765 6.29284C1.89016 6.40599 1.94572 6.50993 2.0273 6.59152C2.10888 6.6731 2.21282 6.72865 2.32598 6.75116C2.43913 6.77367 2.55642 6.76212 2.66301 6.71797C2.7696 6.67381 2.86071 6.59905 2.9248 6.50312C2.9889 6.40719 3.02311 6.29441 3.02311 6.17904C3.02311 6.02433 2.96165 5.87595 2.85226 5.76656C2.74286 5.65716 2.59449 5.5957 2.43978 5.5957V5.5957ZM7.10645 0.345703H2.43978C1.82094 0.345703 1.22745 0.591536 0.789863 1.02912C0.352278 1.46671 0.106445 2.0602 0.106445 2.67904V9.67904C0.106445 10.2979 0.352278 10.8914 0.789863 11.329C1.22745 11.7665 1.82094 12.0124 2.43978 12.0124H7.10645C7.72528 12.0124 8.31878 11.7665 8.75636 11.329C9.19395 10.8914 9.43978 10.2979 9.43978 9.67904V2.67904C9.43978 2.0602 9.19395 1.46671 8.75636 1.02912C8.31878 0.591536 7.72528 0.345703 7.10645 0.345703ZM8.27311 9.67904C8.27311 9.98846 8.1502 10.2852 7.9314 10.504C7.71261 10.7228 7.41587 10.8457 7.10645 10.8457H2.43978C2.13036 10.8457 1.83361 10.7228 1.61482 10.504C1.39603 10.2852 1.27311 9.98846 1.27311 9.67904V8.1857C1.62544 8.39777 2.02855 8.51065 2.43978 8.51237H7.10645C7.51767 8.51065 7.92078 8.39777 8.27311 8.1857V9.67904ZM8.27311 6.17904C8.27311 6.48846 8.1502 6.7852 7.9314 7.00399C7.71261 7.22279 7.41587 7.3457 7.10645 7.3457H2.43978C2.13036 7.3457 1.83361 7.22279 1.61482 7.00399C1.39603 6.7852 1.27311 6.48846 1.27311 6.17904V4.6857C1.62544 4.89777 2.02855 5.01065 2.43978 5.01237H7.10645C7.51767 5.01065 7.92078 4.89777 8.27311 4.6857V6.17904ZM7.10645 3.8457H2.43978C2.13036 3.8457 1.83361 3.72279 1.61482 3.50399C1.39603 3.2852 1.27311 2.98846 1.27311 2.67904C1.27311 2.36962 1.39603 2.07287 1.61482 1.85408C1.83361 1.63529 2.13036 1.51237 2.43978 1.51237H7.10645C7.41587 1.51237 7.71261 1.63529 7.9314 1.85408C8.1502 2.07287 8.27311 2.36962 8.27311 2.67904C8.27311 2.98846 8.1502 3.2852 7.9314 3.50399C7.71261 3.72279 7.41587 3.8457 7.10645 3.8457V3.8457Z" fill="white"/>
</svg>
