<svg width="14" height="15" viewBox="0 0 14 15" fill="none" xmlns="http://www.w3.org/2000/svg">
<g clip-path="url(#clip0_7073_2466)">
<path d="M5.35145 8.00064C5.329 7.88825 4.55567 4.02157 4.53114 3.89905C4.49283 3.70734 4.32448 3.56934 4.12897 3.56934H3.30866C3.11315 3.56934 2.94479 3.70734 2.90648 3.89905C2.88157 4.02365 2.10744 7.89427 2.08617 8.00061C2.04174 8.22275 2.18581 8.43882 2.40792 8.48323C2.63004 8.52766 2.84614 8.38359 2.89054 8.16147L3.15271 6.85059H4.28491L4.54708 8.1615C4.59152 8.38372 4.80769 8.52769 5.0297 8.48325C5.25181 8.43882 5.39589 8.22275 5.35145 8.00064ZM3.31678 6.03027L3.6449 4.38965H3.79272L4.12085 6.03027H3.31678Z" fill="black"/>
<path d="M11.9219 6.85059H10.6914V6.44043C10.6914 6.21391 10.5078 6.03027 10.2812 6.03027C10.0547 6.03027 9.87109 6.21391 9.87109 6.44043V6.85059H8.64062C8.41411 6.85059 8.23047 7.03423 8.23047 7.26074C8.23047 7.48726 8.41411 7.6709 8.64062 7.6709H8.73988C8.97359 8.42591 9.32545 9.00544 9.71264 9.46984C9.3975 9.7581 9.07862 9.99449 8.79457 10.2217C8.61768 10.3632 8.589 10.6213 8.73053 10.7982C8.87212 10.9752 9.13024 11.0037 9.30702 10.8622C9.59265 10.6337 9.93502 10.3798 10.2812 10.0621C10.6277 10.38 10.9707 10.6344 11.2555 10.8622C11.4324 11.0038 11.6905 10.9751 11.832 10.7982C11.9735 10.6213 11.9448 10.3632 11.7679 10.2217C11.4846 9.99501 11.1653 9.75837 10.8499 9.46984C11.237 9.00544 11.5889 8.42591 11.8226 7.6709H11.9219C12.1484 7.6709 12.332 7.48726 12.332 7.26074C12.332 7.03423 12.1484 6.85059 11.9219 6.85059ZM10.2812 8.86705C10.0194 8.53838 9.78389 8.14608 9.60632 7.66816H10.9561C10.7786 8.14608 10.5431 8.53838 10.2812 8.86705Z" fill="black"/>
<path d="M12.7695 3.15918H6.85232L6.6765 1.74873C6.59969 1.13427 6.0748 0.670898 5.45554 0.670898H1.23047C0.551988 0.670898 0 1.22289 0 1.90137V10.9521C0 11.6306 0.551988 12.1826 1.23047 12.1826H4.68899L4.86257 13.5931C4.93924 14.2063 5.46413 14.6709 6.08355 14.6709H12.7695C13.448 14.6709 14 14.1189 14 13.4404V4.38965C14 3.71117 13.448 3.15918 12.7695 3.15918ZM1.23047 11.3623C1.00431 11.3623 0.820312 11.1783 0.820312 10.9521V1.90137C0.820312 1.67521 1.00431 1.49121 1.23047 1.49121H5.45554C5.66196 1.49121 5.83693 1.64565 5.8625 1.85034C5.92195 2.32711 6.98928 10.8894 7.04823 11.3623H1.23047ZM5.65261 13.2969L5.51548 12.1826H6.6159L5.65261 13.2969ZM13.1797 13.4404C13.1797 13.6666 12.9957 13.8506 12.7695 13.8506H6.25827L7.81971 12.0444C7.89964 11.9543 7.93546 11.8346 7.91894 11.7157L6.95458 3.97949H12.7695C12.9957 3.97949 13.1797 4.16349 13.1797 4.38965V13.4404Z" fill="black"/>
</g>
<defs>
<clipPath id="clip0_7073_2466">
<rect width="14" height="14" fill="white" transform="translate(0 0.670898)"/>
</clipPath>
</defs>
</svg>
