<svg width="14" height="15" viewBox="0 0 14 15" fill="none" xmlns="http://www.w3.org/2000/svg">
<path d="M13.1455 10.1864L11.2889 4.05303C11.2359 3.87806 11.1159 3.73595 10.9593 3.66244L6.11601 1.39115C5.92503 1.30159 5.70449 1.32561 5.53393 1.45462L1.07925 4.82496C0.920025 4.94544 0.825195 5.1419 0.825195 5.35151V10.6023C0.825195 10.8706 0.979741 11.1107 1.21294 11.2049L5.56707 12.9634C5.63455 12.9906 5.70568 13.0043 5.7769 13.0043C5.82918 13.0043 5.88146 12.9969 5.93247 12.9821L12.7329 11.0071C12.8911 10.9612 13.0248 10.8473 13.1028 10.6921C13.1808 10.537 13.1962 10.3542 13.1455 10.1864ZM9.57318 4.41624L7.28095 6.36475L6.69345 3.06575L9.57318 4.41624ZM5.36718 11.508L2.02033 10.1564V5.68588L5.47737 3.07035L6.26805 7.51001L5.36718 11.508ZM6.60946 11.4525L7.41139 7.89361L10.4202 5.33594L11.8141 9.94093L6.60946 11.4525Z" fill="black"/>
</svg>
