<svg width="14" height="13" viewBox="0 0 14 13" fill="none" xmlns="http://www.w3.org/2000/svg">
<path d="M13.1455 9.45649L11.2889 3.32317C11.2359 3.1482 11.1159 3.00609 10.9593 2.93259L6.11601 0.661295C5.92503 0.571732 5.70449 0.595748 5.53393 0.724764L1.07925 4.0951C0.920025 4.21558 0.825195 4.41205 0.825195 4.62165V9.87247C0.825195 10.1407 0.979741 10.3809 1.21294 10.475L5.56707 12.2335C5.63455 12.2607 5.70568 12.2745 5.7769 12.2745C5.82918 12.2745 5.88146 12.2671 5.93247 12.2523L12.7329 10.2773C12.8911 10.2313 13.0248 10.1175 13.1028 9.96225C13.1808 9.8071 13.1962 9.6243 13.1455 9.45649ZM9.57318 3.68638L7.28095 5.63489L6.69345 2.33589L9.57318 3.68638ZM5.36718 10.7782L2.02033 9.42651V4.95602L5.47737 2.34049L6.26805 6.78015L5.36718 10.7782ZM6.60946 10.7226L7.41139 7.16375L10.4202 4.60608L11.8141 9.21107L6.60946 10.7226Z" fill="white"/>
</svg>
