<svg width="27" height="28" viewBox="0 0 27 28" fill="none" xmlns="http://www.w3.org/2000/svg">
<circle cx="13.5" cy="13.9404" r="13.2842" fill="#EAF3EC"/>
<path d="M14.6775 8.69531L14.2094 15.9073H12.7904L12.3223 8.69531H14.6775ZM12.688 18.8476C12.4637 18.6233 12.3515 18.3502 12.3515 18.0284C12.3515 17.7066 12.4637 17.4335 12.688 17.2092C12.9123 16.9751 13.1805 16.8581 13.4926 16.8581C13.8144 16.8581 14.0875 16.9751 14.3118 17.2092C14.5458 17.4335 14.6629 17.7066 14.6629 18.0284C14.6629 18.3502 14.5458 18.6233 14.3118 18.8476C14.0875 19.0719 13.8144 19.1841 13.4926 19.1841C13.1805 19.1841 12.9123 19.0719 12.688 18.8476Z" fill="#037A35"/>
</svg>
