<svg width="25" height="25" viewBox="0 0 25 25" fill="none" xmlns="http://www.w3.org/2000/svg">
<circle cx="12.5" cy="12.5" r="12.5" transform="rotate(-180 12.5 12.5)" fill="#E44258"/>
<path d="M11.6618 14.5863L11.6618 7.76922L13.3314 7.76922L13.3314 14.5863L11.6618 14.5863ZM13.4448 16.3693C13.4448 16.6171 13.3608 16.8229 13.1928 16.9867C13.0206 17.1505 12.7896 17.2324 12.4998 17.2324C12.2099 17.2324 11.981 17.1505 11.813 16.9867C11.6408 16.8229 11.5547 16.6171 11.5547 16.3693C11.5547 16.1257 11.6408 15.9219 11.813 15.7581C11.981 15.5943 12.2099 15.5124 12.4998 15.5124C12.7896 15.5124 13.0206 15.5943 13.1928 15.7581C13.3608 15.9219 13.4448 16.1257 13.4448 16.3693Z" fill="white"/>
</svg>
