<svg width="24" height="25" viewBox="0 0 24 25" fill="none" xmlns="http://www.w3.org/2000/svg">
<path fill-rule="evenodd" clip-rule="evenodd" d="M3 3.5C3.55228 2.94772 4.44771 2.94772 5 3.5L21 19.5C21.5523 20.0523 21.5523 20.9477 21 21.5C20.4477 22.0523 19.5523 22.0523 19 21.5L3 5.5C2.44772 4.94772 2.44772 4.05228 3 3.5Z" fill="#E44258"/>
<path fill-rule="evenodd" clip-rule="evenodd" d="M3 21.5C2.44772 20.9477 2.44772 20.0523 3 19.5L19 3.5C19.5523 2.94772 20.4477 2.94772 21 3.5C21.5523 4.05229 21.5523 4.94772 21 5.5L5 21.5C4.44772 22.0523 3.55228 22.0523 3 21.5Z" fill="#E44258"/>
</svg>
