<svg width="14" height="15" viewBox="0 0 14 15" fill="none" xmlns="http://www.w3.org/2000/svg">
<path d="M8.58699 5.29848L6.0845 7.80681L5.12199 6.84431C5.0697 6.78325 5.00535 6.73365 4.93298 6.69864C4.86061 6.66363 4.78178 6.64395 4.70144 6.64085C4.62111 6.63774 4.541 6.65128 4.46614 6.68061C4.39128 6.70993 4.3233 6.75442 4.26645 6.81127C4.2096 6.86812 4.16512 6.9361 4.13579 7.01096C4.10646 7.08581 4.09293 7.16592 4.09603 7.24626C4.09913 7.3266 4.11881 7.40542 4.15382 7.4778C4.18883 7.55017 4.23843 7.61452 4.29949 7.66681L5.67033 9.04348C5.72483 9.09754 5.78948 9.14032 5.86055 9.16935C5.93162 9.19838 6.00772 9.21309 6.0845 9.21265C6.23753 9.212 6.38418 9.15125 6.49283 9.04348L9.40949 6.12681C9.46417 6.07258 9.50757 6.00807 9.53718 5.93698C9.5668 5.8659 9.58204 5.78965 9.58204 5.71265C9.58204 5.63564 9.5668 5.55939 9.53718 5.48831C9.50757 5.41723 9.46417 5.35271 9.40949 5.29848C9.3002 5.18983 9.15235 5.12885 8.99824 5.12885C8.84414 5.12885 8.69629 5.18983 8.58699 5.29848ZM7.00033 1.33765C5.8466 1.33765 4.71879 1.67977 3.7595 2.32074C2.80021 2.96172 2.05254 3.87276 1.61103 4.93866C1.16952 6.00456 1.054 7.17745 1.27908 8.30901C1.50416 9.44056 2.05973 10.48 2.87554 11.2958C3.69134 12.1116 4.73075 12.6671 5.8623 12.8922C6.99386 13.1173 8.16675 13.0018 9.23265 12.5603C10.2986 12.1188 11.2096 11.3711 11.8506 10.4118C12.4915 9.45252 12.8337 8.3247 12.8337 7.17098C12.8337 6.40494 12.6828 5.64639 12.3896 4.93866C12.0965 4.23093 11.6668 3.58787 11.1251 3.04619C10.5834 2.50452 9.94038 2.07484 9.23265 1.78168C8.52492 1.48853 7.76637 1.33765 7.00033 1.33765ZM7.00033 11.8376C6.07735 11.8376 5.1751 11.564 4.40767 11.0512C3.64024 10.5384 3.0421 9.80956 2.68889 8.95684C2.33568 8.10411 2.24327 7.1658 2.42333 6.26056C2.60339 5.35531 3.04785 4.52379 3.7005 3.87115C4.35314 3.2185 5.18466 2.77405 6.08991 2.59398C6.99515 2.41392 7.93346 2.50633 8.78618 2.85954C9.63891 3.21275 10.3677 3.81089 10.8805 4.57832C11.3933 5.34575 11.667 6.248 11.667 7.17098C11.667 8.40866 11.1753 9.59564 10.3002 10.4708C9.42499 11.346 8.23801 11.8376 7.00033 11.8376Z" fill="black"/>
</svg>
