<svg width="14" height="15" viewBox="0 0 14 15" fill="none" xmlns="http://www.w3.org/2000/svg">
<path d="M5.82572 8.02818H1.71686C1.56119 8.02818 1.41188 8.09002 1.30181 8.2001C1.19173 8.31018 1.12988 8.45948 1.12988 8.61516V12.724C1.12988 12.8797 1.19173 13.029 1.30181 13.1391C1.41188 13.2492 1.56119 13.311 1.71686 13.311H5.82572C5.98139 13.311 6.13069 13.2492 6.24077 13.1391C6.35085 13.029 6.41269 12.8797 6.41269 12.724V8.61516C6.41269 8.45948 6.35085 8.31018 6.24077 8.2001C6.13069 8.09002 5.98139 8.02818 5.82572 8.02818ZM5.23874 12.137H2.30384V9.20214H5.23874V12.137ZM12.2825 1.57141H8.17363C8.01796 1.57141 7.86866 1.63325 7.75858 1.74333C7.6485 1.85341 7.58665 2.00271 7.58665 2.15839V6.26724C7.58665 6.42292 7.6485 6.57222 7.75858 6.6823C7.86866 6.79238 8.01796 6.85422 8.17363 6.85422H12.2825C12.4382 6.85422 12.5875 6.79238 12.6975 6.6823C12.8076 6.57222 12.8695 6.42292 12.8695 6.26724V2.15839C12.8695 2.00271 12.8076 1.85341 12.6975 1.74333C12.5875 1.63325 12.4382 1.57141 12.2825 1.57141ZM11.6955 5.68027H8.76061V2.74537H11.6955V5.68027ZM12.2825 8.02818H8.17363C8.01796 8.02818 7.86866 8.09002 7.75858 8.2001C7.6485 8.31018 7.58665 8.45948 7.58665 8.61516V12.724C7.58665 12.8797 7.6485 13.029 7.75858 13.1391C7.86866 13.2492 8.01796 13.311 8.17363 13.311H12.2825C12.4382 13.311 12.5875 13.2492 12.6975 13.1391C12.8076 13.029 12.8695 12.8797 12.8695 12.724V8.61516C12.8695 8.45948 12.8076 8.31018 12.6975 8.2001C12.5875 8.09002 12.4382 8.02818 12.2825 8.02818ZM11.6955 12.137H8.76061V9.20214H11.6955V12.137ZM5.82572 1.57141H1.71686C1.56119 1.57141 1.41188 1.63325 1.30181 1.74333C1.19173 1.85341 1.12988 2.00271 1.12988 2.15839V6.26724C1.12988 6.42292 1.19173 6.57222 1.30181 6.6823C1.41188 6.79238 1.56119 6.85422 1.71686 6.85422H5.82572C5.98139 6.85422 6.13069 6.79238 6.24077 6.6823C6.35085 6.57222 6.41269 6.42292 6.41269 6.26724V2.15839C6.41269 2.00271 6.35085 1.85341 6.24077 1.74333C6.13069 1.63325 5.98139 1.57141 5.82572 1.57141ZM5.23874 5.68027H2.30384V2.74537H5.23874V5.68027Z" fill="white"/>
</svg>
