<svg width="14" height="15" viewBox="0 0 14 15" fill="none" xmlns="http://www.w3.org/2000/svg">
<path d="M5.82572 7.7578H1.71686C1.56119 7.7578 1.41188 7.81964 1.30181 7.92972C1.19173 8.0398 1.12988 8.1891 1.12988 8.34478V12.4536C1.12988 12.6093 1.19173 12.7586 1.30181 12.8687C1.41188 12.9788 1.56119 13.0406 1.71686 13.0406H5.82572C5.98139 13.0406 6.13069 12.9788 6.24077 12.8687C6.35085 12.7586 6.41269 12.6093 6.41269 12.4536V8.34478C6.41269 8.1891 6.35085 8.0398 6.24077 7.92972C6.13069 7.81964 5.98139 7.7578 5.82572 7.7578ZM5.23874 11.8666H2.30384V8.93175H5.23874V11.8666ZM12.2825 1.30103H8.17363C8.01796 1.30103 7.86866 1.36287 7.75858 1.47295C7.6485 1.58303 7.58665 1.73233 7.58665 1.888V5.99686C7.58665 6.15253 7.6485 6.30184 7.75858 6.41192C7.86866 6.522 8.01796 6.58384 8.17363 6.58384H12.2825C12.4382 6.58384 12.5875 6.522 12.6975 6.41192C12.8076 6.30184 12.8695 6.15253 12.8695 5.99686V1.888C12.8695 1.73233 12.8076 1.58303 12.6975 1.47295C12.5875 1.36287 12.4382 1.30103 12.2825 1.30103ZM11.6955 5.40988H8.76061V2.47498H11.6955V5.40988ZM12.2825 7.7578H8.17363C8.01796 7.7578 7.86866 7.81964 7.75858 7.92972C7.6485 8.0398 7.58665 8.1891 7.58665 8.34478V12.4536C7.58665 12.6093 7.6485 12.7586 7.75858 12.8687C7.86866 12.9788 8.01796 13.0406 8.17363 13.0406H12.2825C12.4382 13.0406 12.5875 12.9788 12.6975 12.8687C12.8076 12.7586 12.8695 12.6093 12.8695 12.4536V8.34478C12.8695 8.1891 12.8076 8.0398 12.6975 7.92972C12.5875 7.81964 12.4382 7.7578 12.2825 7.7578ZM11.6955 11.8666H8.76061V8.93175H11.6955V11.8666ZM5.82572 1.30103H1.71686C1.56119 1.30103 1.41188 1.36287 1.30181 1.47295C1.19173 1.58303 1.12988 1.73233 1.12988 1.888V5.99686C1.12988 6.15253 1.19173 6.30184 1.30181 6.41192C1.41188 6.522 1.56119 6.58384 1.71686 6.58384H5.82572C5.98139 6.58384 6.13069 6.522 6.24077 6.41192C6.35085 6.30184 6.41269 6.15253 6.41269 5.99686V1.888C6.41269 1.73233 6.35085 1.58303 6.24077 1.47295C6.13069 1.36287 5.98139 1.30103 5.82572 1.30103ZM5.23874 5.40988H2.30384V2.47498H5.23874V5.40988Z" fill="black"/>
</svg>
