<svg width="25" height="25" viewBox="0 0 25 25" fill="none" xmlns="http://www.w3.org/2000/svg">
<path d="M10.5 18.1641C10.7652 18.1641 11.0196 18.0587 11.2071 17.8712C11.3946 17.6836 11.5 17.4293 11.5 17.1641V11.1641C11.5 10.8988 11.3946 10.6445 11.2071 10.457C11.0196 10.2694 10.7652 10.1641 10.5 10.1641C10.2348 10.1641 9.98043 10.2694 9.79289 10.457C9.60536 10.6445 9.5 10.8988 9.5 11.1641V17.1641C9.5 17.4293 9.60536 17.6836 9.79289 17.8712C9.98043 18.0587 10.2348 18.1641 10.5 18.1641ZM20.5 6.16406H16.5V5.16406C16.5 4.36841 16.1839 3.60535 15.6213 3.04274C15.0587 2.48013 14.2956 2.16406 13.5 2.16406H11.5C10.7044 2.16406 9.94129 2.48013 9.37868 3.04274C8.81607 3.60535 8.5 4.36841 8.5 5.16406V6.16406H4.5C4.23478 6.16406 3.98043 6.26942 3.79289 6.45696C3.60536 6.64449 3.5 6.89885 3.5 7.16406C3.5 7.42928 3.60536 7.68363 3.79289 7.87117C3.98043 8.05871 4.23478 8.16406 4.5 8.16406H5.5V19.1641C5.5 19.9597 5.81607 20.7228 6.37868 21.2854C6.94129 21.848 7.70435 22.1641 8.5 22.1641H16.5C17.2956 22.1641 18.0587 21.848 18.6213 21.2854C19.1839 20.7228 19.5 19.9597 19.5 19.1641V8.16406H20.5C20.7652 8.16406 21.0196 8.05871 21.2071 7.87117C21.3946 7.68363 21.5 7.42928 21.5 7.16406C21.5 6.89885 21.3946 6.64449 21.2071 6.45696C21.0196 6.26942 20.7652 6.16406 20.5 6.16406ZM10.5 5.16406C10.5 4.89885 10.6054 4.64449 10.7929 4.45696C10.9804 4.26942 11.2348 4.16406 11.5 4.16406H13.5C13.7652 4.16406 14.0196 4.26942 14.2071 4.45696C14.3946 4.64449 14.5 4.89885 14.5 5.16406V6.16406H10.5V5.16406ZM17.5 19.1641C17.5 19.4293 17.3946 19.6836 17.2071 19.8712C17.0196 20.0587 16.7652 20.1641 16.5 20.1641H8.5C8.23478 20.1641 7.98043 20.0587 7.79289 19.8712C7.60536 19.6836 7.5 19.4293 7.5 19.1641V8.16406H17.5V19.1641ZM14.5 18.1641C14.7652 18.1641 15.0196 18.0587 15.2071 17.8712C15.3946 17.6836 15.5 17.4293 15.5 17.1641V11.1641C15.5 10.8988 15.3946 10.6445 15.2071 10.457C15.0196 10.2694 14.7652 10.1641 14.5 10.1641C14.2348 10.1641 13.9804 10.2694 13.7929 10.457C13.6054 10.6445 13.5 10.8988 13.5 11.1641V17.1641C13.5 17.4293 13.6054 17.6836 13.7929 17.8712C13.9804 18.0587 14.2348 18.1641 14.5 18.1641Z" fill="#E44258"/>
</svg>
