<svg width="11" height="14" viewBox="0 0 11 14" fill="none" xmlns="http://www.w3.org/2000/svg">
<path d="M3.37288 5.83724H4.03955C4.21636 5.83724 4.38593 5.767 4.51095 5.64198C4.63598 5.51695 4.70622 5.34738 4.70622 5.17057C4.70622 4.99376 4.63598 4.82419 4.51095 4.69917C4.38593 4.57414 4.21636 4.50391 4.03955 4.50391H3.37288C3.19607 4.50391 3.0265 4.57414 2.90148 4.69917C2.77645 4.82419 2.70622 4.99376 2.70622 5.17057C2.70622 5.34738 2.77645 5.51695 2.90148 5.64198C3.0265 5.767 3.19607 5.83724 3.37288 5.83724V5.83724ZM3.37288 7.17057C3.19607 7.17057 3.0265 7.24081 2.90148 7.36583C2.77645 7.49086 2.70622 7.66043 2.70622 7.83724C2.70622 8.01405 2.77645 8.18362 2.90148 8.30864C3.0265 8.43367 3.19607 8.50391 3.37288 8.50391H7.37288C7.54969 8.50391 7.71926 8.43367 7.84429 8.30864C7.96931 8.18362 8.03955 8.01405 8.03955 7.83724C8.03955 7.66043 7.96931 7.49086 7.84429 7.36583C7.71926 7.24081 7.54969 7.17057 7.37288 7.17057H3.37288ZM10.7062 5.13057C10.6993 5.06933 10.6859 5.00899 10.6662 4.95057V4.89057C10.6342 4.82203 10.5914 4.75902 10.5395 4.70391V4.70391L6.53955 0.703906C6.48444 0.65205 6.42143 0.609294 6.35288 0.57724C6.33298 0.574413 6.31278 0.574413 6.29288 0.57724C6.22516 0.5384 6.15037 0.513469 6.07288 0.503906H2.03955C1.50912 0.503906 1.00041 0.71462 0.625337 1.08969C0.250264 1.46477 0.0395508 1.97347 0.0395508 2.50391V11.8372C0.0395508 12.3677 0.250264 12.8764 0.625337 13.2515C1.00041 13.6265 1.50912 13.8372 2.03955 13.8372H8.70622C9.23665 13.8372 9.74536 13.6265 10.1204 13.2515C10.4955 12.8764 10.7062 12.3677 10.7062 11.8372V5.17057C10.7062 5.17057 10.7062 5.17057 10.7062 5.13057ZM6.70622 2.77724L8.43288 4.50391H7.37288C7.19607 4.50391 7.0265 4.43367 6.90148 4.30864C6.77645 4.18362 6.70622 4.01405 6.70622 3.83724V2.77724ZM9.37288 11.8372C9.37288 12.014 9.30264 12.1836 9.17762 12.3086C9.0526 12.4337 8.88303 12.5039 8.70622 12.5039H2.03955C1.86274 12.5039 1.69317 12.4337 1.56815 12.3086C1.44312 12.1836 1.37288 12.014 1.37288 11.8372V2.50391C1.37288 2.3271 1.44312 2.15753 1.56815 2.0325C1.69317 1.90748 1.86274 1.83724 2.03955 1.83724H5.37288V3.83724C5.37288 4.36767 5.5836 4.87638 5.95867 5.25145C6.33374 5.62653 6.84245 5.83724 7.37288 5.83724H9.37288V11.8372ZM7.37288 9.83724H3.37288C3.19607 9.83724 3.0265 9.90748 2.90148 10.0325C2.77645 10.1575 2.70622 10.3271 2.70622 10.5039C2.70622 10.6807 2.77645 10.8503 2.90148 10.9753C3.0265 11.1003 3.19607 11.1706 3.37288 11.1706H7.37288C7.54969 11.1706 7.71926 11.1003 7.84429 10.9753C7.96931 10.8503 8.03955 10.6807 8.03955 10.5039C8.03955 10.3271 7.96931 10.1575 7.84429 10.0325C7.71926 9.90748 7.54969 9.83724 7.37288 9.83724Z" fill="#01A747"/>
</svg>
