<svg width="11" height="15" viewBox="0 0 11 15" fill="none" xmlns="http://www.w3.org/2000/svg">
<path d="M3.37288 6.08919H4.03955C4.21636 6.08919 4.38593 6.01895 4.51095 5.89393C4.63598 5.76891 4.70622 5.59934 4.70622 5.42253C4.70622 5.24571 4.63598 5.07615 4.51095 4.95112C4.38593 4.8261 4.21636 4.75586 4.03955 4.75586H3.37288C3.19607 4.75586 3.0265 4.8261 2.90148 4.95112C2.77645 5.07615 2.70622 5.24571 2.70622 5.42253C2.70622 5.59934 2.77645 5.76891 2.90148 5.89393C3.0265 6.01895 3.19607 6.08919 3.37288 6.08919V6.08919ZM3.37288 7.42253C3.19607 7.42253 3.0265 7.49276 2.90148 7.61779C2.77645 7.74281 2.70622 7.91238 2.70622 8.08919C2.70622 8.266 2.77645 8.43557 2.90148 8.5606C3.0265 8.68562 3.19607 8.75586 3.37288 8.75586H7.37288C7.54969 8.75586 7.71926 8.68562 7.84429 8.5606C7.96931 8.43557 8.03955 8.266 8.03955 8.08919C8.03955 7.91238 7.96931 7.74281 7.84429 7.61779C7.71926 7.49276 7.54969 7.42253 7.37288 7.42253H3.37288ZM10.7062 5.38253C10.6993 5.32128 10.6859 5.26095 10.6662 5.20253V5.14253C10.6342 5.07398 10.5914 5.01097 10.5395 4.95586V4.95586L6.53955 0.955859C6.48444 0.904003 6.42143 0.861247 6.35288 0.829193C6.33298 0.826366 6.31278 0.826366 6.29288 0.829193C6.22516 0.790354 6.15037 0.765422 6.07288 0.755859H2.03955C1.50912 0.755859 1.00041 0.966573 0.625337 1.34165C0.250264 1.71672 0.0395508 2.22543 0.0395508 2.75586V12.0892C0.0395508 12.6196 0.250264 13.1283 0.625337 13.5034C1.00041 13.8785 1.50912 14.0892 2.03955 14.0892H8.70622C9.23665 14.0892 9.74536 13.8785 10.1204 13.5034C10.4955 13.1283 10.7062 12.6196 10.7062 12.0892V5.42253C10.7062 5.42253 10.7062 5.42253 10.7062 5.38253ZM6.70622 3.02919L8.43288 4.75586H7.37288C7.19607 4.75586 7.0265 4.68562 6.90148 4.5606C6.77645 4.43557 6.70622 4.266 6.70622 4.08919V3.02919ZM9.37288 12.0892C9.37288 12.266 9.30264 12.4356 9.17762 12.5606C9.0526 12.6856 8.88303 12.7559 8.70622 12.7559H2.03955C1.86274 12.7559 1.69317 12.6856 1.56815 12.5606C1.44312 12.4356 1.37288 12.266 1.37288 12.0892V2.75586C1.37288 2.57905 1.44312 2.40948 1.56815 2.28445C1.69317 2.15943 1.86274 2.08919 2.03955 2.08919H5.37288V4.08919C5.37288 4.61963 5.5836 5.12833 5.95867 5.50341C6.33374 5.87848 6.84245 6.08919 7.37288 6.08919H9.37288V12.0892ZM7.37288 10.0892H3.37288C3.19607 10.0892 3.0265 10.1594 2.90148 10.2845C2.77645 10.4095 2.70622 10.579 2.70622 10.7559C2.70622 10.9327 2.77645 11.1022 2.90148 11.2273C3.0265 11.3523 3.19607 11.4225 3.37288 11.4225H7.37288C7.54969 11.4225 7.71926 11.3523 7.84429 11.2273C7.96931 11.1022 8.03955 10.9327 8.03955 10.7559C8.03955 10.579 7.96931 10.4095 7.84429 10.2845C7.71926 10.1594 7.54969 10.0892 7.37288 10.0892Z" fill="#808080"/>
</svg>
