<svg width="22" height="26" viewBox="0 0 22 26" fill="none" xmlns="http://www.w3.org/2000/svg">
<path d="M16.5831 6.10714V1.3125L21.4581 7H17.476C17.2392 7 17.0121 6.90593 16.8447 6.73849C16.6772 6.57104 16.5831 6.34394 16.5831 6.10714ZM17.476 8.78571C16.7656 8.78571 16.0843 8.50351 15.582 8.00118C15.0796 7.49885 14.7974 6.81754 14.7974 6.10714V0.75H3.19029C2.47989 0.75 1.79858 1.03221 1.29625 1.53454C0.793925 2.03687 0.511719 2.71817 0.511719 3.42857V23.0714C0.511719 23.7818 0.793925 24.4631 1.29625 24.9655C1.79858 25.4678 2.47989 25.75 3.19029 25.75H19.2617C19.9721 25.75 20.6534 25.4678 21.1558 24.9655C21.6581 24.4631 21.9403 23.7818 21.9403 23.0714V8.78571H17.476Z" fill="#23B24B"/>
</svg>
