<svg width="14" height="14" viewBox="0 0 14 14" fill="none" xmlns="http://www.w3.org/2000/svg">
<path d="M13.0002 8.33398C12.8234 8.33398 12.6538 8.40422 12.5288 8.52925C12.4037 8.65427 12.3335 8.82384 12.3335 9.00065V11.6673C12.3335 11.8441 12.2633 12.0137 12.1382 12.1387C12.0132 12.2637 11.8436 12.334 11.6668 12.334H2.3335C2.15668 12.334 1.98712 12.2637 1.86209 12.1387C1.73707 12.0137 1.66683 11.8441 1.66683 11.6673V9.00065C1.66683 8.82384 1.59659 8.65427 1.47157 8.52925C1.34654 8.40422 1.17697 8.33398 1.00016 8.33398C0.823352 8.33398 0.653782 8.40422 0.528758 8.52925C0.403734 8.65427 0.333496 8.82384 0.333496 9.00065V11.6673C0.333496 12.1977 0.54421 12.7065 0.919283 13.0815C1.29436 13.4566 1.80306 13.6673 2.3335 13.6673H11.6668C12.1973 13.6673 12.706 13.4566 13.081 13.0815C13.4561 12.7065 13.6668 12.1977 13.6668 11.6673V9.00065C13.6668 8.82384 13.5966 8.65427 13.4716 8.52925C13.3465 8.40422 13.177 8.33398 13.0002 8.33398ZM6.52683 9.47398C6.59023 9.53468 6.66499 9.58225 6.74683 9.61398C6.82663 9.64925 6.91292 9.66747 7.00016 9.66747C7.08741 9.66747 7.1737 9.64925 7.2535 9.61398C7.33533 9.58225 7.41009 9.53468 7.4735 9.47398L10.1402 6.80732C10.2657 6.68178 10.3362 6.51152 10.3362 6.33398C10.3362 6.15645 10.2657 5.98619 10.1402 5.86065C10.0146 5.73511 9.84436 5.66459 9.66683 5.66459C9.48929 5.66459 9.31903 5.73511 9.1935 5.86065L7.66683 7.39398V1.00065C7.66683 0.82384 7.59659 0.654271 7.47157 0.529246C7.34654 0.404222 7.17697 0.333984 7.00016 0.333984C6.82335 0.333984 6.65378 0.404222 6.52876 0.529246C6.40373 0.654271 6.3335 0.82384 6.3335 1.00065V7.39398L4.80683 5.86065C4.74467 5.79849 4.67088 5.74918 4.58966 5.71554C4.50845 5.6819 4.4214 5.66459 4.3335 5.66459C4.24559 5.66459 4.15854 5.6819 4.07733 5.71554C3.99612 5.74918 3.92232 5.79849 3.86016 5.86065C3.798 5.92281 3.7487 5.9966 3.71506 6.07782C3.68142 6.15903 3.6641 6.24608 3.6641 6.33398C3.6641 6.42189 3.68142 6.50894 3.71506 6.59015C3.7487 6.67137 3.798 6.74516 3.86016 6.80732L6.52683 9.47398Z" fill="black"/>
</svg>
