<svg width="18" height="19" viewBox="0 0 18 19" fill="none" xmlns="http://www.w3.org/2000/svg">
<path d="M16.5 5.9222C16.5006 5.8235 16.4817 5.72565 16.4443 5.63427C16.407 5.54289 16.352 5.45978 16.2825 5.3897L13.1025 2.2097C13.0324 2.14019 12.9493 2.0852 12.8579 2.04787C12.7666 2.01055 12.6687 1.99163 12.57 1.9922C12.4713 1.99163 12.3735 2.01055 12.2821 2.04787C12.1907 2.0852 12.1076 2.14019 12.0375 2.2097L9.91501 4.3322L1.71751 12.5297C1.648 12.5998 1.59301 12.6829 1.55568 12.7743C1.51836 12.8656 1.49944 12.9635 1.50001 13.0622V16.2422C1.50001 16.4411 1.57903 16.6319 1.71968 16.7725C1.86033 16.9132 2.0511 16.9922 2.25001 16.9922H5.43001C5.53496 16.9979 5.63993 16.9815 5.73813 16.944C5.83632 16.9066 5.92555 16.8489 6.00001 16.7747L14.1525 8.5772L16.2825 6.4922C16.351 6.41951 16.4067 6.33585 16.4475 6.2447C16.4547 6.18492 16.4547 6.12448 16.4475 6.0647C16.451 6.02979 16.451 5.99461 16.4475 5.9597L16.5 5.9222ZM5.12251 15.4922H3.00001V13.3697L10.4475 5.9222L12.57 8.0447L5.12251 15.4922ZM13.6275 6.9872L11.505 4.8647L12.57 3.8072L14.685 5.9222L13.6275 6.9872Z" fill="black"/>
</svg>
