<svg width="16" height="13" viewBox="0 0 16 13" fill="none" xmlns="http://www.w3.org/2000/svg">
<path d="M14.9189 5.39382C14.8562 5.31647 14.7769 5.25416 14.6869 5.21148C14.5969 5.16879 14.4985 5.14681 14.3989 5.14715H13.0656V4.48048C13.0656 3.95005 12.8549 3.44134 12.4798 3.06627C12.1047 2.6912 11.596 2.48048 11.0656 2.48048H6.87893L6.66559 1.81382C6.52729 1.42264 6.27076 1.08415 5.93153 0.845258C5.5923 0.606363 5.18716 0.478884 4.77226 0.480484H2.39893C1.86849 0.480484 1.35979 0.691197 0.984712 1.06627C0.609639 1.44134 0.398926 1.95005 0.398926 2.48048V10.4805C0.398926 11.0109 0.609639 11.5196 0.984712 11.8947C1.35979 12.2698 1.86849 12.4805 2.39893 12.4805H11.9989C12.4531 12.4792 12.8932 12.3233 13.247 12.0386C13.6008 11.7538 13.8472 11.3572 13.9456 10.9138L15.0656 5.96048C15.0859 5.8611 15.0832 5.75839 15.0578 5.66019C15.0324 5.56199 14.9849 5.47089 14.9189 5.39382ZM3.31226 10.6271C3.27839 10.7775 3.19345 10.9115 3.0719 11.0064C2.95035 11.1012 2.7997 11.1509 2.64559 11.1472H2.39893C2.22212 11.1472 2.05255 11.0769 1.92752 10.9519C1.8025 10.8269 1.73226 10.6573 1.73226 10.4805V2.48048C1.73226 2.30367 1.8025 2.1341 1.92752 2.00908C2.05255 1.88406 2.22212 1.81382 2.39893 1.81382H4.77226C4.91764 1.80623 5.0615 1.84643 5.18188 1.92829C5.30226 2.01015 5.39254 2.12916 5.43893 2.26715L5.79893 3.36048C5.84171 3.48765 5.92186 3.59894 6.02891 3.67982C6.13595 3.7607 6.26491 3.8074 6.39893 3.81382H11.0656C11.2424 3.81382 11.412 3.88406 11.537 4.00908C11.662 4.1341 11.7323 4.30367 11.7323 4.48048V5.14715H5.06559C4.91149 5.14338 4.76083 5.19314 4.63928 5.28795C4.51773 5.38276 4.43279 5.51676 4.39893 5.66715L3.31226 10.6271ZM12.6456 10.6271C12.6117 10.7775 12.5268 10.9115 12.4052 11.0064C12.2837 11.1012 12.133 11.1509 11.9789 11.1472H4.53893C4.57336 11.0729 4.59801 10.9944 4.61226 10.9138L5.59893 6.48048H13.5989L12.6456 10.6271Z" fill="#01A747"/>
</svg>
