<svg width="16" height="13" viewBox="0 0 16 13" fill="none" xmlns="http://www.w3.org/2000/svg">
<path d="M14.9189 5.14382C14.8562 5.06647 14.7769 5.00416 14.6869 4.96148C14.5969 4.91879 14.4985 4.89681 14.3989 4.89715H13.0656V4.23048C13.0656 3.70005 12.8549 3.19134 12.4798 2.81627C12.1047 2.4412 11.596 2.23048 11.0656 2.23048H6.87893L6.66559 1.56382C6.52729 1.17264 6.27076 0.834153 5.93153 0.595258C5.5923 0.356363 5.18716 0.228884 4.77226 0.230484H2.39893C1.86849 0.230484 1.35979 0.441197 0.984712 0.81627C0.609639 1.19134 0.398926 1.70005 0.398926 2.23048V10.2305C0.398926 10.7609 0.609639 11.2696 0.984712 11.6447C1.35979 12.0198 1.86849 12.2305 2.39893 12.2305H11.9989C12.4531 12.2292 12.8932 12.0733 13.247 11.7886C13.6008 11.5038 13.8472 11.1072 13.9456 10.6638L15.0656 5.71048C15.0859 5.6111 15.0832 5.50839 15.0578 5.41019C15.0324 5.31199 14.9849 5.22089 14.9189 5.14382ZM3.31226 10.3771C3.27839 10.5275 3.19345 10.6615 3.0719 10.7564C2.95035 10.8512 2.7997 10.9009 2.64559 10.8972H2.39893C2.22212 10.8972 2.05255 10.8269 1.92752 10.7019C1.8025 10.5769 1.73226 10.4073 1.73226 10.2305V2.23048C1.73226 2.05367 1.8025 1.8841 1.92752 1.75908C2.05255 1.63406 2.22212 1.56382 2.39893 1.56382H4.77226C4.91764 1.55623 5.0615 1.59643 5.18188 1.67829C5.30226 1.76015 5.39254 1.87916 5.43893 2.01715L5.79893 3.11048C5.84171 3.23765 5.92186 3.34894 6.02891 3.42982C6.13595 3.5107 6.26491 3.5574 6.39893 3.56382H11.0656C11.2424 3.56382 11.412 3.63406 11.537 3.75908C11.662 3.8841 11.7323 4.05367 11.7323 4.23048V4.89715H5.06559C4.91149 4.89338 4.76083 4.94314 4.63928 5.03795C4.51773 5.13276 4.43279 5.26676 4.39893 5.41715L3.31226 10.3771ZM12.6456 10.3771C12.6117 10.5275 12.5268 10.6615 12.4052 10.7564C12.2837 10.8512 12.133 10.9009 11.9789 10.8972H4.53893C4.57336 10.8229 4.59801 10.7444 4.61226 10.6638L5.59893 6.23048H13.5989L12.6456 10.3771Z" fill="#808080"/>
</svg>
