<svg width="21" height="22" viewBox="0 0 21 22" fill="none" xmlns="http://www.w3.org/2000/svg">
<circle cx="10.625" cy="11" r="10.125" fill="black"/>
<path d="M11.4746 8.72266V15.0625H9.78125V8.72266H11.4746ZM9.67578 7.07031C9.67578 6.82422 9.76172 6.62109 9.93359 6.46094C10.1055 6.30078 10.3359 6.2207 10.625 6.2207C10.9102 6.2207 11.1387 6.30078 11.3105 6.46094C11.4863 6.62109 11.5742 6.82422 11.5742 7.07031C11.5742 7.31641 11.4863 7.51953 11.3105 7.67969C11.1387 7.83984 10.9102 7.91992 10.625 7.91992C10.3359 7.91992 10.1055 7.83984 9.93359 7.67969C9.76172 7.51953 9.67578 7.31641 9.67578 7.07031Z" fill="white"/>
</svg>
