<svg width="29" height="29" viewBox="0 0 29 29" fill="none" xmlns="http://www.w3.org/2000/svg">
<circle cx="14.5" cy="14.3154" r="13.0615" fill="white" stroke="#808080" stroke-width="2"/>
<path d="M15.5435 9.2959L15.3185 16.19H13.6819L13.4501 9.2959H15.5435ZM13.3955 18.3244C13.3955 18.0335 13.4955 17.7925 13.6955 17.6016C13.9001 17.4061 14.1683 17.3084 14.5002 17.3084C14.8366 17.3084 15.1048 17.4061 15.3049 17.6016C15.5049 17.7925 15.6049 18.0335 15.6049 18.3244C15.6049 18.6063 15.5049 18.845 15.3049 19.0404C15.1048 19.2359 14.8366 19.3337 14.5002 19.3337C14.1683 19.3337 13.9001 19.2359 13.6955 19.0404C13.4955 18.845 13.3955 18.6063 13.3955 18.3244Z" fill="#808080"/>
</svg>
