<svg width="10" height="10" viewBox="0 0 10 10" fill="none" xmlns="http://www.w3.org/2000/svg">
<path d="M5.39063 0.864746C4.50061 0.864746 3.63058 1.12867 2.89056 1.62313C2.15054 2.1176 1.57376 2.8204 1.23317 3.64267C0.892575 4.46494 0.80346 5.36974 0.977093 6.24265C1.15073 7.11557 1.57931 7.91739 2.20865 8.54672C2.83798 9.17606 3.63981 9.60464 4.51272 9.77828C5.38563 9.95191 6.29043 9.8628 7.1127 9.5222C7.93497 9.18161 8.63777 8.60483 9.13224 7.86481C9.6267 7.12479 9.89062 6.25476 9.89062 5.36474C9.89062 4.7738 9.77423 4.18863 9.54808 3.64267C9.32194 3.0967 8.99047 2.60063 8.57261 2.18277C8.15474 1.7649 7.65867 1.43343 7.1127 1.20729C6.56674 0.981142 5.98157 0.864746 5.39063 0.864746ZM5.39063 8.96474C4.67861 8.96474 3.98259 8.75361 3.39057 8.35803C2.79856 7.96246 2.33714 7.40022 2.06466 6.7424C1.79219 6.08459 1.72089 5.36075 1.8598 4.66242C1.99871 3.96409 2.34157 3.32263 2.84504 2.81916C3.34851 2.31569 3.98997 1.97283 4.6883 1.83392C5.38663 1.69501 6.11047 1.7663 6.76829 2.03878C7.4261 2.31125 7.98834 2.77268 8.38392 3.36469C8.77949 3.95671 8.99063 4.65273 8.99063 5.36474C8.99063 6.31952 8.61134 7.2352 7.93621 7.91033C7.26108 8.58546 6.34541 8.96474 5.39063 8.96474ZM5.39063 2.66475C5.27128 2.66475 5.15682 2.71216 5.07243 2.79655C4.98804 2.88094 4.94063 2.9954 4.94063 3.11475V5.10374L3.99563 5.64824C3.90894 5.69737 3.841 5.77387 3.80248 5.86577C3.76395 5.95766 3.75701 6.05973 3.78275 6.15599C3.80849 6.25225 3.86545 6.33725 3.94469 6.39765C4.02394 6.45805 4.12099 6.49044 4.22063 6.48974C4.29946 6.49029 4.37704 6.47012 4.44563 6.43124L5.61563 5.75624L5.65613 5.71574L5.72813 5.65724C5.74572 5.63497 5.76081 5.61082 5.77313 5.58524C5.78779 5.56109 5.79986 5.53544 5.80913 5.50874C5.82137 5.48013 5.82896 5.44975 5.83163 5.41874L5.84063 5.36474V3.11475C5.84063 2.9954 5.79322 2.88094 5.70882 2.79655C5.62443 2.71216 5.50997 2.66475 5.39063 2.66475Z" fill="white"/>
</svg>
