<svg width="13" height="13" viewBox="0 0 13 13" fill="none" xmlns="http://www.w3.org/2000/svg">
<path d="M6.5 0.447266C5.31331 0.447266 4.15328 0.799159 3.16658 1.45845C2.17989 2.11774 1.41085 3.05481 0.956725 4.15116C0.5026 5.24752 0.38378 6.45392 0.615291 7.61781C0.846802 8.78169 1.41825 9.85079 2.25736 10.6899C3.09648 11.529 4.16557 12.1005 5.32946 12.332C6.49335 12.5635 7.69975 12.4447 8.7961 11.9905C9.89246 11.5364 10.8295 10.7674 11.4888 9.78068C12.1481 8.79399 12.5 7.63395 12.5 6.44726C12.5 5.65933 12.3448 4.87912 12.0433 4.15116C11.7417 3.42321 11.2998 2.76178 10.7426 2.20462C10.1855 1.64747 9.52406 1.20552 8.7961 0.903988C8.06815 0.60246 7.28793 0.447266 6.5 0.447266ZM6.5 11.2473C5.55065 11.2473 4.62262 10.9657 3.83326 10.4383C3.04391 9.91089 2.42868 9.16123 2.06538 8.28414C1.70208 7.40706 1.60702 6.44194 1.79223 5.51083C1.97744 4.57972 2.4346 3.72444 3.10589 3.05315C3.77718 2.38186 4.63246 1.92471 5.56357 1.7395C6.49468 1.55429 7.4598 1.64934 8.33688 2.01264C9.21397 2.37594 9.96362 2.99117 10.4911 3.78053C11.0185 4.56988 11.3 5.49791 11.3 6.44726C11.3 7.7203 10.7943 8.9412 9.89411 9.84138C8.99394 10.7416 7.77304 11.2473 6.5 11.2473ZM6.5 2.84727C6.34087 2.84727 6.18826 2.91048 6.07574 3.023C5.96322 3.13552 5.9 3.28814 5.9 3.44726V6.09926L4.64 6.82526C4.52442 6.89076 4.43384 6.99277 4.38247 7.11529C4.3311 7.23781 4.32185 7.37392 4.35617 7.50226C4.39049 7.63061 4.46643 7.74393 4.57209 7.82447C4.67775 7.905 4.80715 7.94819 4.94 7.94726C5.04511 7.94799 5.14856 7.92109 5.24 7.86926L6.8 6.96926L6.854 6.91526L6.95 6.83726C6.97346 6.80756 6.99358 6.77537 7.01 6.74126C7.02956 6.70905 7.04565 6.67486 7.058 6.63926C7.07432 6.60111 7.08445 6.56061 7.088 6.51926L7.1 6.44726V3.44726C7.1 3.28814 7.03679 3.13552 6.92427 3.023C6.81174 2.91048 6.65913 2.84727 6.5 2.84727Z" fill="#FE7700"/>
</svg>
