<svg width="12" height="13" viewBox="0 0 12 13" fill="none" xmlns="http://www.w3.org/2000/svg">
<path d="M3.93955 4.33799L3.93824 4.33905L3.93699 4.34027L3.93955 4.33799ZM9.74611 4.22918C9.70553 4.19006 9.6605 4.15584 9.61195 4.1272C9.54322 4.08676 9.46693 4.06084 9.38779 4.05104C9.30865 4.04125 9.22834 4.0478 9.15183 4.07028C9.07532 4.09276 9.00423 4.13069 8.94296 4.18173C8.8817 4.23277 8.83155 4.29584 8.79562 4.36704C8.59468 4.76294 8.31755 5.11527 7.98012 5.40382C8.03172 5.11309 8.05774 4.81839 8.05788 4.52312C8.05897 3.62484 7.822 2.74232 7.3711 1.96541C6.9202 1.1885 6.27148 0.544954 5.49099 0.100286C5.40501 0.051547 5.30806 0.0254502 5.20923 0.0244443C5.1104 0.0234384 5.01294 0.0475565 4.92599 0.0945355C4.83903 0.141514 4.76544 0.209814 4.71211 0.293026C4.65879 0.376237 4.62748 0.471632 4.62112 0.57026C4.58847 1.12336 4.44388 1.66408 4.19609 2.15965C3.94831 2.65522 3.60249 3.09533 3.1796 3.4533L3.04516 3.56268C2.60294 3.86023 2.21152 4.22704 1.8859 4.64902C1.37975 5.28666 1.02913 6.03347 0.861835 6.83021C0.694542 7.62694 0.715181 8.4517 0.922116 9.23908C1.12905 10.0264 1.51659 10.7548 2.054 11.3663C2.59141 11.9778 3.26391 12.4558 4.01817 12.7621C4.10673 12.7983 4.20283 12.8122 4.298 12.8024C4.39318 12.7927 4.48449 12.7597 4.56389 12.7063C4.64329 12.653 4.70834 12.5809 4.7533 12.4964C4.79826 12.412 4.82174 12.3178 4.82168 12.2221C4.82127 12.1602 4.81147 12.0988 4.79263 12.0398C4.66213 11.5492 4.62454 11.0386 4.68183 10.5342C5.2338 11.5753 6.11983 12.4005 7.19745 12.8772C7.32899 12.9361 7.47769 12.944 7.61474 12.8994C8.46615 12.6246 9.23315 12.1367 9.84286 11.482C10.4526 10.8272 10.8848 10.0275 11.0983 9.15869C11.3119 8.28989 11.2998 7.38092 11.0631 6.51813C10.8264 5.65534 10.3731 4.8674 9.74611 4.22918V4.22918ZM7.46832 11.714C6.95984 11.4563 6.51128 11.0944 6.15183 10.652C5.79237 10.2095 5.53005 9.69641 5.38193 9.14593C5.3367 8.96058 5.30171 8.77287 5.27712 8.58367C5.26045 8.46318 5.20655 8.35092 5.12296 8.26257C5.03936 8.17422 4.93023 8.1142 4.81085 8.09091C4.77407 8.08366 4.73667 8.08004 4.69918 8.08009C4.59666 8.08006 4.49594 8.10705 4.40717 8.15836C4.31841 8.20967 4.24475 8.28348 4.19361 8.37234C3.7096 9.20716 3.46619 10.1597 3.49036 11.1244C3.06467 10.7934 2.7089 10.3812 2.44367 9.91173C2.17845 9.44225 2.00904 8.92479 1.94527 8.38935C1.8815 7.85392 1.92463 7.31114 2.07217 6.7925C2.21971 6.27385 2.46872 5.78965 2.80477 5.36795C3.05993 5.03652 3.36774 4.7492 3.71594 4.51745C3.73102 4.50772 3.74548 4.49706 3.75924 4.48555C3.75924 4.48555 3.93231 4.34235 3.93822 4.33907C4.76929 3.63613 5.36039 2.69145 5.62915 1.63667C6.26473 2.22422 6.68854 3.00519 6.83476 3.8583C6.98098 4.71141 6.84143 5.58893 6.43779 6.3546C6.38446 6.45677 6.36258 6.57245 6.37492 6.68704C6.38725 6.80163 6.43325 6.91 6.5071 6.99848C6.58095 7.08696 6.67935 7.15158 6.78989 7.1842C6.90043 7.21682 7.01815 7.21598 7.12821 7.18177C8.02175 6.90167 8.80804 6.35456 9.38123 5.61406C9.72572 6.1229 9.95093 6.70292 10.0401 7.3109C10.1293 7.91887 10.0801 8.53914 9.89621 9.12546C9.71234 9.71179 9.39852 10.2491 8.97815 10.6973C8.55777 11.1454 8.04167 11.493 7.4683 11.714L7.46832 11.714Z" fill="white"/>
</svg>
