<svg width="14" height="15" viewBox="0 0 14 15" fill="none" xmlns="http://www.w3.org/2000/svg">
<g clip-path="url(#clip0_3770_12216)">
<path d="M4.93955 5.06772L4.93824 5.06879L4.93699 5.07L4.93955 5.06772ZM10.7461 4.95891C10.7055 4.9198 10.6605 4.88557 10.6119 4.85694C10.5432 4.81649 10.4669 4.79057 10.3878 4.78078C10.3086 4.77099 10.2283 4.77754 10.1518 4.80001C10.0753 4.82249 10.0042 4.86043 9.94296 4.91147C9.8817 4.96251 9.83155 5.02558 9.79562 5.09677C9.59468 5.49267 9.31755 5.84501 8.98012 6.13355C9.03172 5.84282 9.05774 5.54813 9.05788 5.25285C9.05897 4.35458 8.822 3.47206 8.3711 2.69515C7.9202 1.91824 7.27148 1.27469 6.49099 0.830022C6.40501 0.781283 6.30806 0.755186 6.20923 0.754181C6.1104 0.753175 6.01294 0.777293 5.92599 0.824272C5.83903 0.871251 5.76544 0.93955 5.71211 1.02276C5.65879 1.10597 5.62748 1.20137 5.62112 1.3C5.58847 1.8531 5.44388 2.39381 5.19609 2.88938C4.94831 3.38496 4.60249 3.82506 4.1796 4.18304L4.04516 4.29241C3.60294 4.58997 3.21152 4.95677 2.8859 5.37876C2.37975 6.0164 2.02913 6.7632 1.86184 7.55994C1.69454 8.35668 1.71518 9.18144 1.92212 9.96881C2.12905 10.7562 2.51659 11.4845 3.054 12.096C3.59141 12.7076 4.26391 13.1855 5.01817 13.4919C5.10673 13.5281 5.20283 13.5419 5.298 13.5322C5.39318 13.5224 5.48449 13.4894 5.56389 13.4361C5.64329 13.3827 5.70834 13.3106 5.7533 13.2262C5.79826 13.1417 5.82174 13.0475 5.82168 12.9518C5.82127 12.89 5.81147 12.8285 5.79263 12.7695C5.66213 12.279 5.62454 11.7683 5.68183 11.2639C6.2338 12.305 7.11983 13.1302 8.19745 13.6069C8.32899 13.6658 8.47769 13.6737 8.61474 13.6292C9.46615 13.3544 10.2331 12.8664 10.8429 12.2117C11.4526 11.557 11.8848 10.7572 12.0983 9.88842C12.3119 9.01963 12.2998 8.11066 12.0631 7.24787C11.8264 6.38508 11.3731 5.59714 10.7461 4.95891ZM8.46832 12.4437C7.95984 12.186 7.51128 11.8242 7.15183 11.3817C6.79237 10.9393 6.53005 10.4261 6.38193 9.87567C6.3367 9.69031 6.30171 9.50261 6.27712 9.31341C6.26045 9.19292 6.20655 9.08065 6.12295 8.9923C6.03936 8.90395 5.93023 8.84394 5.81085 8.82065C5.77407 8.8134 5.73667 8.80977 5.69918 8.80983C5.59666 8.80979 5.49594 8.83679 5.40717 8.8881C5.31841 8.93941 5.24475 9.01322 5.19361 9.10208C4.7096 9.9369 4.46619 10.8894 4.49036 11.8541C4.06467 11.5231 3.7089 11.111 3.44367 10.6415C3.17845 10.172 3.00904 9.65453 2.94527 9.11909C2.8815 8.58365 2.92463 8.04088 3.07217 7.52224C3.21971 7.00359 3.46872 6.51939 3.80477 6.09768C4.05993 5.76626 4.36774 5.47894 4.71594 5.24718C4.73102 5.23745 4.74548 5.2268 4.75924 5.21528C4.75924 5.21528 4.93231 5.07209 4.93822 5.06881C5.76929 4.36587 6.36039 3.42119 6.62915 2.36641C7.26473 2.95396 7.68854 3.73492 7.83476 4.58804C7.98098 5.44115 7.84143 6.31867 7.43779 7.08434C7.38446 7.18651 7.36258 7.30219 7.37492 7.41678C7.38725 7.53137 7.43325 7.63974 7.5071 7.72821C7.58095 7.81669 7.67935 7.88132 7.78989 7.91394C7.90043 7.94656 8.01815 7.94571 8.12821 7.91151C9.02175 7.63141 9.80804 7.08429 10.3812 6.3438C10.7257 6.85264 10.9509 7.43265 11.0401 8.04063C11.1293 8.64861 11.0801 9.26887 10.8962 9.8552C10.7123 10.4415 10.3985 10.9788 9.97815 11.427C9.55777 11.8752 9.04167 12.2227 8.4683 12.4437L8.46832 12.4437Z" fill="black"/>
</g>
<defs>
<clipPath id="clip0_3770_12216">
<rect width="14" height="14" fill="white" transform="translate(0 0.170898)"/>
</clipPath>
</defs>
</svg>
