<svg width="25" height="25" viewBox="0 0 25 25" fill="none" xmlns="http://www.w3.org/2000/svg">
<circle cx="12.5" cy="12.5" r="12.5" fill="#01A747"/>
<path d="M13.2349 14.4619H11.4917C11.4963 14.0518 11.5282 13.6986 11.5874 13.4023C11.6512 13.1016 11.7583 12.8304 11.9087 12.5889C12.0636 12.3473 12.2687 12.1081 12.5239 11.8711C12.7381 11.6797 12.925 11.4974 13.0845 11.3242C13.244 11.151 13.3693 10.9733 13.4604 10.791C13.5516 10.6042 13.5972 10.3968 13.5972 10.1689C13.5972 9.90462 13.5562 9.68587 13.4741 9.5127C13.3966 9.33496 13.2782 9.20052 13.1187 9.10938C12.9637 9.01823 12.7677 8.97266 12.5308 8.97266C12.3348 8.97266 12.1525 9.01595 11.9839 9.10254C11.8153 9.18457 11.6763 9.31217 11.5669 9.48535C11.4621 9.65853 11.4074 9.88639 11.4028 10.1689H9.42041C9.43408 9.5446 9.57764 9.02962 9.85107 8.62402C10.1291 8.21387 10.5005 7.91081 10.9653 7.71484C11.4302 7.51432 11.952 7.41406 12.5308 7.41406C13.1688 7.41406 13.7157 7.51888 14.1714 7.72852C14.6271 7.93359 14.9757 8.23665 15.2173 8.6377C15.4588 9.03418 15.5796 9.51725 15.5796 10.0869C15.5796 10.4834 15.5021 10.8366 15.3472 11.1465C15.1922 11.4518 14.9894 11.7367 14.7388 12.001C14.4881 12.2653 14.2124 12.5387 13.9116 12.8213C13.6519 13.0537 13.4741 13.2975 13.3784 13.5527C13.2873 13.8079 13.2394 14.111 13.2349 14.4619ZM11.2866 16.5742C11.2866 16.2826 11.3869 16.041 11.5874 15.8496C11.7879 15.6536 12.0568 15.5557 12.394 15.5557C12.7267 15.5557 12.9933 15.6536 13.1938 15.8496C13.3989 16.041 13.5015 16.2826 13.5015 16.5742C13.5015 16.8568 13.3989 17.096 13.1938 17.292C12.9933 17.488 12.7267 17.5859 12.394 17.5859C12.0568 17.5859 11.7879 17.488 11.5874 17.292C11.3869 17.096 11.2866 16.8568 11.2866 16.5742Z" fill="white"/>
</svg>
