<svg width="55" height="54" viewBox="0 0 55 54" fill="none" xmlns="http://www.w3.org/2000/svg">
<g clip-path="url(#clip0_6001_97613)">
<path d="M27.7734 4.68717H25.2984C24.5559 2.14759 22.1709 0.270508 19.3359 0.270508C16.5009 0.270508 14.1159 2.14759 13.3734 4.68717H10.8984C9.97594 4.68717 9.21094 5.43801 9.21094 6.34342V9.65592C9.21094 11.7759 10.9884 13.5205 13.1484 13.5205H25.5234C27.6834 13.5205 29.4609 11.7759 29.4609 9.65592V6.34342C29.4609 5.43801 28.6959 4.68717 27.7734 4.68717Z" fill="#01A747"/>
<path d="M32.2734 6.89551H31.7109V9.65592C31.7109 13.0126 28.9434 15.7288 25.5234 15.7288H13.1484C9.72844 15.7288 6.96094 13.0126 6.96094 9.65592V6.89551H6.39844C2.97844 6.89551 0.210938 9.61176 0.210938 12.9684V40.5726C0.210938 43.9293 2.97844 46.6455 6.39844 46.6455H23.0034L23.4984 43.9293C23.7234 42.6926 24.3084 41.5884 25.2084 40.683L27.0084 38.9163H8.64844C7.72594 38.9163 6.96094 38.1655 6.96094 37.2601C6.96094 36.3547 7.72594 35.6038 8.64844 35.6038H30.0234C30.1359 35.6038 30.2259 35.6038 30.3384 35.648H30.3609L38.4609 27.698V12.9684C38.4609 9.61176 35.6934 6.89551 32.2734 6.89551ZM30.0234 31.7393H8.64844C7.72594 31.7393 6.96094 30.9884 6.96094 30.083C6.96094 29.1776 7.72594 28.4268 8.64844 28.4268H30.0234C30.9459 28.4268 31.7109 29.1776 31.7109 30.083C31.7109 30.9884 30.9459 31.7393 30.0234 31.7393ZM30.0234 24.5622H8.64844C7.72594 24.5622 6.96094 23.8113 6.96094 22.9059C6.96094 22.0005 7.72594 21.2497 8.64844 21.2497H30.0234C30.9459 21.2497 31.7109 22.0005 31.7109 22.9059C31.7109 23.8113 30.9459 24.5622 30.0234 24.5622Z" fill="#01A747"/>
<path d="M28.3967 53.2705C27.9535 53.2705 27.5215 53.0982 27.2042 52.7847C26.815 52.4026 26.6395 51.8594 26.7362 51.325L27.9287 44.6889C27.9872 44.3555 28.1537 44.0463 28.3967 43.8056L45.103 27.4109C47.1549 25.3925 49.1709 25.9379 50.2734 27.02L53.0567 29.7517C54.5934 31.2578 54.5934 33.7091 53.0567 35.2174L36.3505 51.6142C36.1075 51.855 35.7925 52.0162 35.4505 52.0736L28.6892 53.244C28.5925 53.2617 28.4935 53.2705 28.3967 53.2705ZM35.158 50.4438H35.1805H35.158Z" fill="#01A747"/>
</g>
<defs>
<clipPath id="clip0_6001_97613">
<rect width="54" height="53" fill="white" transform="translate(0.210938 0.270508)"/>
</clipPath>
</defs>
</svg>
