<svg width="12" height="13" viewBox="0 0 12 13" fill="none" xmlns="http://www.w3.org/2000/svg">
<path d="M5.99935 3.52433C5.84464 3.52433 5.69627 3.58579 5.58687 3.69519C5.47748 3.80458 5.41602 3.95296 5.41602 4.10767V6.441C5.41602 6.59571 5.47748 6.74408 5.58687 6.85348C5.69627 6.96287 5.84464 7.02433 5.99935 7.02433C6.15406 7.02433 6.30243 6.96287 6.41183 6.85348C6.52123 6.74408 6.58268 6.59571 6.58268 6.441V4.10767C6.58268 3.95296 6.52123 3.80458 6.41183 3.69519C6.30243 3.58579 6.15406 3.52433 5.99935 3.52433ZM6.53602 8.55266C6.52325 8.51549 6.50559 8.48018 6.48352 8.44766L6.41352 8.36016C6.33149 8.27922 6.22732 8.22439 6.11416 8.20259C6.001 8.18079 5.88391 8.19299 5.77768 8.23766C5.70699 8.26721 5.64188 8.30864 5.58518 8.36016C5.53112 8.41467 5.48835 8.47931 5.45932 8.55039C5.43029 8.62146 5.41557 8.69756 5.41602 8.77433C5.41694 8.85056 5.43279 8.92587 5.46268 8.996C5.48888 9.06839 5.53068 9.13413 5.58512 9.18857C5.63955 9.243 5.70529 9.2848 5.77768 9.311C5.84751 9.34186 5.92301 9.3578 5.99935 9.3578C6.07569 9.3578 6.15119 9.34186 6.22102 9.311C6.29341 9.2848 6.35915 9.243 6.41358 9.18857C6.46802 9.13413 6.50982 9.06839 6.53602 8.996C6.56591 8.92587 6.58176 8.85056 6.58268 8.77433C6.58555 8.7355 6.58555 8.6965 6.58268 8.65767C6.57264 8.62047 6.5569 8.58505 6.53602 8.55266V8.55266ZM5.99935 0.607666C4.84563 0.607666 3.71781 0.949785 2.75852 1.59076C1.79924 2.23173 1.05157 3.14278 0.610054 4.20868C0.168543 5.27458 0.0530237 6.44747 0.278104 7.57903C0.503185 8.71058 1.05876 9.74998 1.87456 10.5658C2.69037 11.3816 3.72977 11.9372 4.86132 12.1622C5.99288 12.3873 7.16577 12.2718 8.23167 11.8303C9.29757 11.3888 10.2086 10.6411 10.8496 9.68182C11.4906 8.72254 11.8327 7.59472 11.8327 6.441C11.8327 5.67495 11.6818 4.91641 11.3886 4.20868C11.0955 3.50095 10.6658 2.85788 10.1241 2.31621C9.58246 1.77453 8.9394 1.34485 8.23167 1.0517C7.52394 0.75855 6.76539 0.607666 5.99935 0.607666V0.607666ZM5.99935 11.1077C5.07637 11.1077 4.17412 10.834 3.40669 10.3212C2.63926 9.80841 2.04112 9.07958 1.68791 8.22685C1.3347 7.37413 1.24229 6.43582 1.42235 5.53058C1.60242 4.62533 2.04687 3.79381 2.69952 3.14117C3.35216 2.48852 4.18368 2.04407 5.08893 1.864C5.99417 1.68394 6.93248 1.77635 7.78521 2.12956C8.63793 2.48277 9.36676 3.08091 9.87954 3.84834C10.3923 4.61577 10.666 5.51802 10.666 6.441C10.666 7.67868 10.1744 8.86566 9.29918 9.74083C8.42401 10.616 7.23703 11.1077 5.99935 11.1077V11.1077Z" fill="white"/>
</svg>
