<svg width="14" height="15" viewBox="0 0 14 15" fill="none" xmlns="http://www.w3.org/2000/svg">
<path d="M7.00033 4.25407C6.84562 4.25407 6.69724 4.31553 6.58785 4.42492C6.47845 4.53432 6.41699 4.68269 6.41699 4.8374V7.17073C6.41699 7.32544 6.47845 7.47382 6.58785 7.58321C6.69724 7.69261 6.84562 7.75407 7.00033 7.75407C7.15504 7.75407 7.30341 7.69261 7.41281 7.58321C7.5222 7.47382 7.58366 7.32544 7.58366 7.17073V4.8374C7.58366 4.68269 7.5222 4.53432 7.41281 4.42492C7.30341 4.31553 7.15504 4.25407 7.00033 4.25407ZM7.53699 9.2824C7.52423 9.24523 7.50657 9.20992 7.48449 9.1774L7.41449 9.0899C7.33246 9.00896 7.2283 8.95413 7.11513 8.93233C7.00197 8.91052 6.88489 8.92273 6.77866 8.9674C6.70797 8.99694 6.64286 9.03837 6.58616 9.0899C6.5321 9.14441 6.48932 9.20905 6.46029 9.28012C6.43126 9.35119 6.41655 9.4273 6.41699 9.50407C6.41792 9.5803 6.43377 9.6556 6.46366 9.72573C6.48986 9.79812 6.53166 9.86387 6.58609 9.9183C6.64053 9.97274 6.70627 10.0145 6.77866 10.0407C6.84849 10.0716 6.92399 10.0875 7.00033 10.0875C7.07667 10.0875 7.15217 10.0716 7.22199 10.0407C7.29438 10.0145 7.36012 9.97274 7.41456 9.9183C7.469 9.86387 7.51079 9.79812 7.53699 9.72573C7.56688 9.6556 7.58274 9.5803 7.58366 9.50407C7.58652 9.46523 7.58652 9.42624 7.58366 9.3874C7.57362 9.3502 7.55787 9.31478 7.53699 9.2824ZM7.00033 1.3374C5.8466 1.3374 4.71879 1.67952 3.7595 2.3205C2.80021 2.96147 2.05254 3.87251 1.61103 4.93842C1.16952 6.00432 1.054 7.17721 1.27908 8.30876C1.50416 9.44032 2.05973 10.4797 2.87554 11.2955C3.69134 12.1113 4.73074 12.6669 5.8623 12.892C6.99386 13.1171 8.16674 13.0015 9.23265 12.56C10.2985 12.1185 11.2096 11.3708 11.8506 10.4116C12.4915 9.45227 12.8337 8.32446 12.8337 7.17073C12.8337 6.40469 12.6828 5.64615 12.3896 4.93842C12.0965 4.23068 11.6668 3.58762 11.1251 3.04595C10.5834 2.50427 9.94038 2.07459 9.23265 1.78144C8.52491 1.48829 7.76637 1.3374 7.00033 1.3374ZM7.00033 11.8374C6.07735 11.8374 5.1751 11.5637 4.40767 11.0509C3.64024 10.5381 3.0421 9.80931 2.68889 8.95659C2.33568 8.10387 2.24327 7.16556 2.42333 6.26031C2.60339 5.35507 3.04785 4.52355 3.7005 3.8709C4.35314 3.21826 5.18466 2.7738 6.08991 2.59374C6.99515 2.41367 7.93346 2.50609 8.78618 2.8593C9.6389 3.21251 10.3677 3.81064 10.8805 4.57807C11.3933 5.3455 11.667 6.24776 11.667 7.17073C11.667 8.40841 11.1753 9.5954 10.3002 10.4706C9.42499 11.3457 8.238 11.8374 7.00033 11.8374Z" fill="black"/>
</svg>
