<svg width="14" height="13" viewBox="0 0 14 13" fill="none" xmlns="http://www.w3.org/2000/svg">
<path d="M9.91667 11.0586H2.91667C2.45254 11.0586 2.00742 10.8742 1.67923 10.546C1.35104 10.2178 1.16667 9.77272 1.16667 9.30859V4.64193C1.16667 4.48722 1.10521 4.33884 0.995812 4.22945C0.886416 4.12005 0.738043 4.05859 0.583333 4.05859C0.428624 4.05859 0.280251 4.12005 0.170854 4.22945C0.0614582 4.33884 0 4.48722 0 4.64193L0 9.30859C0 10.0821 0.307291 10.824 0.854272 11.371C1.40125 11.918 2.14312 12.2253 2.91667 12.2253H9.91667C10.0714 12.2253 10.2197 12.1638 10.3291 12.0544C10.4385 11.945 10.5 11.7966 10.5 11.6419C10.5 11.4872 10.4385 11.3388 10.3291 11.2294C10.2197 11.1201 10.0714 11.0586 9.91667 11.0586ZM12.25 0.558594H4.08333C3.6192 0.558594 3.17409 0.742968 2.8459 1.07116C2.51771 1.39935 2.33333 1.84446 2.33333 2.30859V8.14193C2.33333 8.60605 2.51771 9.05117 2.8459 9.37936C3.17409 9.70755 3.6192 9.89193 4.08333 9.89193H12.25C12.7141 9.89193 13.1592 9.70755 13.4874 9.37936C13.8156 9.05117 14 8.60605 14 8.14193V2.30859C14 1.84446 13.8156 1.39935 13.4874 1.07116C13.1592 0.742968 12.7141 0.558594 12.25 0.558594V0.558594ZM12.0108 1.72526L8.58083 5.15526C8.5266 5.20993 8.46209 5.25333 8.391 5.28295C8.31992 5.31256 8.24367 5.32781 8.16667 5.32781C8.08966 5.32781 8.01341 5.31256 7.94233 5.28295C7.87125 5.25333 7.80673 5.20993 7.7525 5.15526L4.3225 1.72526H12.0108ZM12.8333 8.14193C12.8333 8.29664 12.7719 8.44501 12.6625 8.5544C12.5531 8.6638 12.4047 8.72526 12.25 8.72526H4.08333C3.92862 8.72526 3.78025 8.6638 3.67085 8.5544C3.56146 8.44501 3.5 8.29664 3.5 8.14193V2.52443L6.93 5.95443C7.25813 6.28214 7.70291 6.46622 8.16667 6.46622C8.63042 6.46622 9.07521 6.28214 9.40333 5.95443L12.8333 2.52443V8.14193Z" fill="white"/>
</svg>
