<svg width="14" height="15" viewBox="0 0 14 15" fill="none" xmlns="http://www.w3.org/2000/svg">
<g clip-path="url(#clip0_3770_12249)">
<path d="M9.91667 12.7886H2.91667C2.45254 12.7886 2.00742 12.6042 1.67923 12.276C1.35104 11.9478 1.16667 11.5027 1.16667 11.0386V6.37191C1.16667 6.2172 1.10521 6.06882 0.995812 5.95943C0.886416 5.85003 0.738043 5.78857 0.583333 5.78857C0.428624 5.78857 0.280251 5.85003 0.170854 5.95943C0.0614582 6.06882 0 6.2172 0 6.37191L0 11.0386C0 11.8121 0.307291 12.554 0.854272 13.101C1.40125 13.6479 2.14312 13.9552 2.91667 13.9552H9.91667C10.0714 13.9552 10.2197 13.8938 10.3291 13.7844C10.4385 13.675 10.5 13.5266 10.5 13.3719C10.5 13.2172 10.4385 13.0688 10.3291 12.9594C10.2197 12.85 10.0714 12.7886 9.91667 12.7886ZM12.25 2.28857H4.08333C3.6192 2.28857 3.17409 2.47295 2.8459 2.80114C2.51771 3.12933 2.33333 3.57445 2.33333 4.03857V9.87191C2.33333 10.336 2.51771 10.7812 2.8459 11.1093C3.17409 11.4375 3.6192 11.6219 4.08333 11.6219H12.25C12.7141 11.6219 13.1592 11.4375 13.4874 11.1093C13.8156 10.7812 14 10.336 14 9.87191V4.03857C14 3.57445 13.8156 3.12933 13.4874 2.80114C13.1592 2.47295 12.7141 2.28857 12.25 2.28857ZM12.0108 3.45524L8.58083 6.88524C8.5266 6.93992 8.46209 6.98331 8.391 7.01293C8.31992 7.04254 8.24367 7.05779 8.16667 7.05779C8.08966 7.05779 8.01341 7.04254 7.94233 7.01293C7.87125 6.98331 7.80673 6.93992 7.7525 6.88524L4.3225 3.45524H12.0108ZM12.8333 9.87191C12.8333 10.0266 12.7719 10.175 12.6625 10.2844C12.5531 10.3938 12.4047 10.4552 12.25 10.4552H4.08333C3.92862 10.4552 3.78025 10.3938 3.67085 10.2844C3.56146 10.175 3.5 10.0266 3.5 9.87191V4.25441L6.93 7.68441C7.25813 8.01212 7.70291 8.1962 8.16667 8.1962C8.63042 8.1962 9.07521 8.01212 9.40333 7.68441L12.8333 4.25441V9.87191Z" fill="black"/>
</g>
<defs>
<clipPath id="clip0_3770_12249">
<rect width="14" height="14" fill="white" transform="translate(0 0.170898)"/>
</clipPath>
</defs>
</svg>
