<svg width="12" height="15" viewBox="0 0 12 15" fill="none" xmlns="http://www.w3.org/2000/svg">
<path d="M11.9706 4.33414C11.9666 4.31558 11.9666 4.29639 11.9706 4.27783C11.9672 4.26159 11.9672 4.24481 11.9706 4.22857V4.16522L11.9284 4.05965C11.9112 4.03084 11.8899 4.00475 11.865 3.98223L11.8017 3.92592H11.7665L8.99345 2.1734L6.37523 0.554611C6.31465 0.506561 6.24534 0.470708 6.17112 0.449037H6.11481C6.0519 0.438537 5.98769 0.438537 5.92478 0.449037H5.8544C5.77264 0.46712 5.69426 0.497999 5.62214 0.540534L0.364579 3.81331L0.301235 3.86258L0.237891 3.91888L0.167509 3.96815L0.132318 4.01038L0.0900882 4.11595V4.1793V4.22153C0.0832519 4.2682 0.0832519 4.31562 0.0900882 4.36229V10.5067C0.0898488 10.6263 0.120096 10.744 0.177975 10.8486C0.235854 10.9533 0.319455 11.0415 0.420885 11.1049L5.69956 14.3707L5.80513 14.4129H5.86144C5.98051 14.4506 6.10835 14.4506 6.22742 14.4129H6.28373L6.3893 14.3707L11.6257 11.1542C11.7272 11.0908 11.8108 11.0026 11.8687 10.8979C11.9265 10.7932 11.9568 10.6755 11.9565 10.5559V4.41156C11.9565 4.41156 11.9706 4.36229 11.9706 4.33414ZM5.99516 1.97633L7.24797 2.75054L3.3136 5.18576L2.05375 4.41156L5.99516 1.97633ZM5.29134 12.5337L1.42031 10.1688V5.6714L5.29134 8.0644V12.5337ZM5.99516 6.82567L4.65086 6.01628L8.58523 3.57401L9.93657 4.41156L5.99516 6.82567ZM10.57 10.1477L6.69899 12.5548V8.0644L10.57 5.6714V10.1477Z" fill="white"/>
</svg>
