<svg width="14" height="15" viewBox="0 0 14 15" fill="none" xmlns="http://www.w3.org/2000/svg">
<g clip-path="url(#clip0_3770_12226)">
<path d="M12.9706 4.06388C12.9666 4.04532 12.9666 4.02613 12.9706 4.00757C12.9672 3.99132 12.9672 3.97455 12.9706 3.9583V3.89496L12.9284 3.78938C12.9112 3.76058 12.8899 3.73448 12.865 3.71196L12.8017 3.65566H12.7665L9.99345 1.90314L7.37523 0.284347C7.31465 0.236297 7.24534 0.200445 7.17112 0.178774H7.11481C7.0519 0.168273 6.98769 0.168273 6.92478 0.178774H6.8544C6.77264 0.196856 6.69426 0.227736 6.62214 0.270271L1.36458 3.54305L1.30124 3.59231L1.23789 3.64862L1.16751 3.69789L1.13232 3.74012L1.09009 3.84569V3.90903V3.95126C1.08325 3.99794 1.08325 4.04536 1.09009 4.09203V10.2364C1.08985 10.356 1.1201 10.4737 1.17798 10.5784C1.23585 10.6831 1.31946 10.7713 1.42088 10.8347L6.69956 14.1004L6.80513 14.1426H6.86144C6.98051 14.1804 7.10835 14.1804 7.22742 14.1426H7.28373L7.3893 14.1004L12.6257 10.8839C12.7272 10.8205 12.8108 10.7323 12.8687 10.6277C12.9265 10.523 12.9568 10.4053 12.9565 10.2857V4.1413C12.9565 4.1413 12.9706 4.09203 12.9706 4.06388ZM6.99516 1.70607L8.24797 2.48027L4.3136 4.9155L3.05375 4.1413L6.99516 1.70607ZM6.29134 12.2634L2.42031 9.89857V5.40114L6.29134 7.79414V12.2634ZM6.99516 6.55541L5.65086 5.74601L9.58523 3.30375L10.9366 4.1413L6.99516 6.55541ZM11.57 9.87745L7.69899 12.2845V7.79414L11.57 5.40114V9.87745Z" fill="black"/>
</g>
<defs>
<clipPath id="clip0_3770_12226">
<rect width="14" height="14" fill="white" transform="translate(0 0.170898)"/>
</clipPath>
</defs>
</svg>
