<svg width="13" height="13" viewBox="0 0 13 13" fill="none" xmlns="http://www.w3.org/2000/svg">
<circle cx="6.5" cy="6.44727" r="6" fill="#F2C94C"/>
<path d="M7.30518 3.20898L7.11621 7.58154H5.91211L5.72314 3.20898H7.30518ZM5.68359 8.94385C5.68359 8.73291 5.75977 8.55713 5.91211 8.4165C6.06445 8.27295 6.26221 8.20117 6.50537 8.20117C6.74854 8.20117 6.94482 8.27295 7.09424 8.4165C7.24658 8.55713 7.32275 8.73291 7.32275 8.94385C7.32275 9.15479 7.24658 9.33203 7.09424 9.47559C6.94482 9.61621 6.74854 9.68652 6.50537 9.68652C6.26221 9.68652 6.06445 9.61621 5.91211 9.47559C5.75977 9.33203 5.68359 9.15479 5.68359 8.94385Z" fill="white"/>
</svg>
