<svg width="12" height="11" viewBox="0 0 12 11" fill="none" xmlns="http://www.w3.org/2000/svg">
<path fill-rule="evenodd" clip-rule="evenodd" d="M9.86231 1.57898H2.13757L2.13757 9.30371H9.86231V1.57898ZM2.13757 0.43457C1.50553 0.43457 0.993164 0.946938 0.993164 1.57898V9.30371C0.993164 9.93575 1.50553 10.4481 2.13757 10.4481H9.86231C10.4943 10.4481 11.0067 9.93575 11.0067 9.30371V1.57898C11.0067 0.946938 10.4943 0.43457 9.86231 0.43457H2.13757Z" fill="white"/>
<path fill-rule="evenodd" clip-rule="evenodd" d="M5.56426 2.47961C5.78772 2.70307 5.78772 3.06536 5.56426 3.28882L5.12844 3.72464H8.25312C8.56914 3.72464 8.82532 3.98082 8.82532 4.29684C8.82532 4.61286 8.56914 4.86904 8.25312 4.86904H3.74702C3.51559 4.86904 3.30694 4.72963 3.21838 4.51581C3.12981 4.302 3.17877 4.05588 3.34242 3.89223L4.75504 2.47961C4.9785 2.25615 5.3408 2.25615 5.56426 2.47961Z" fill="white"/>
<path fill-rule="evenodd" clip-rule="evenodd" d="M6.43574 8.40296C6.21228 8.1795 6.21228 7.8172 6.43574 7.59375L6.87156 7.15793L3.74688 7.15793C3.43086 7.15793 3.17468 6.90175 3.17468 6.58573C3.17468 6.26971 3.43086 6.01353 3.74688 6.01353L8.25298 6.01353C8.48441 6.01353 8.69306 6.15294 8.78162 6.36676C8.87019 6.58057 8.82123 6.82669 8.65758 6.99034L7.24496 8.40296C7.0215 8.62642 6.6592 8.62642 6.43574 8.40296Z" fill="white"/>
</svg>
