<svg width="12" height="11" viewBox="0 0 12 11" fill="none" xmlns="http://www.w3.org/2000/svg">
<path fill-rule="evenodd" clip-rule="evenodd" d="M9.86231 1.30847H2.13757L2.13757 9.03321H9.86231V1.30847ZM2.13757 0.164062C1.50553 0.164062 0.993164 0.67643 0.993164 1.30847V9.03321C0.993164 9.66525 1.50553 10.1776 2.13757 10.1776H9.86231C10.4943 10.1776 11.0067 9.66525 11.0067 9.03321V1.30847C11.0067 0.67643 10.4943 0.164062 9.86231 0.164062H2.13757Z" fill="black"/>
<path fill-rule="evenodd" clip-rule="evenodd" d="M5.56426 2.2091C5.78772 2.43256 5.78772 2.79486 5.56426 3.01832L5.12844 3.45413H8.25312C8.56914 3.45413 8.82532 3.71031 8.82532 4.02633C8.82532 4.34235 8.56914 4.59854 8.25312 4.59854H3.74702C3.51559 4.59854 3.30694 4.45912 3.21838 4.24531C3.12981 4.03149 3.17877 3.78537 3.34242 3.62172L4.75504 2.2091C4.9785 1.98564 5.3408 1.98564 5.56426 2.2091Z" fill="black"/>
<path fill-rule="evenodd" clip-rule="evenodd" d="M6.43574 8.13245C6.21228 7.909 6.21228 7.5467 6.43574 7.32324L6.87156 6.88742L3.74688 6.88742C3.43086 6.88742 3.17468 6.63124 3.17468 6.31522C3.17468 5.9992 3.43086 5.74302 3.74688 5.74302L8.25298 5.74302C8.48441 5.74302 8.69306 5.88243 8.78162 6.09625C8.87019 6.31007 8.82123 6.55618 8.65758 6.71983L7.24496 8.13245C7.0215 8.35591 6.6592 8.35591 6.43574 8.13245Z" fill="black"/>
</svg>
