<svg width="17" height="17" viewBox="0 0 17 17" fill="none" xmlns="http://www.w3.org/2000/svg">
<path d="M6.1452 6.04357L6.1437 6.04479L6.14227 6.04617L6.1452 6.04357ZM12.7813 5.91921C12.7349 5.87451 12.6834 5.8354 12.6279 5.80267C12.5494 5.75645 12.4622 5.72682 12.3718 5.71563C12.2813 5.70444 12.1895 5.71192 12.1021 5.73761C12.0146 5.7633 11.9334 5.80666 11.8634 5.86499C11.7934 5.92332 11.7361 5.9954 11.695 6.07677C11.4654 6.52923 11.1486 6.93189 10.763 7.26166C10.822 6.9294 10.8517 6.5926 10.8519 6.25515C10.8531 5.22855 10.5823 4.21995 10.067 3.33206C9.55166 2.44416 8.81026 1.70867 7.91827 1.20048C7.82001 1.14478 7.70921 1.11495 7.59626 1.1138C7.48332 1.11265 7.37193 1.14022 7.27256 1.19391C7.17318 1.2476 7.08908 1.32566 7.02813 1.42075C6.96719 1.51585 6.9314 1.62488 6.92413 1.73759C6.88683 2.36971 6.72158 2.98767 6.43839 3.55404C6.15521 4.1204 5.75999 4.62338 5.27669 5.0325L5.12304 5.1575C4.61765 5.49756 4.1703 5.91677 3.79817 6.39903C3.21972 7.12777 2.819 7.98126 2.62781 8.89182C2.43662 9.80238 2.46021 10.745 2.6967 11.6448C2.9332 12.5447 3.3761 13.377 3.99028 14.0759C4.60447 14.7748 5.37304 15.321 6.23505 15.6712C6.33626 15.7125 6.44609 15.7283 6.55486 15.7172C6.66363 15.7061 6.76799 15.6684 6.85873 15.6074C6.94948 15.5464 7.02382 15.464 7.0752 15.3675C7.12658 15.271 7.15342 15.1633 7.15335 15.054C7.15287 14.9833 7.14168 14.913 7.12015 14.8457C6.971 14.285 6.92805 13.7014 6.99352 13.1249C7.62435 14.3148 8.63694 15.2579 9.86852 15.8027C10.0188 15.8699 10.1888 15.879 10.3454 15.8281C11.3185 15.514 12.195 14.9564 12.8918 14.2081C13.5887 13.4598 14.0826 12.5458 14.3267 11.5529C14.5707 10.56 14.5569 9.5212 14.2864 8.53516C14.0159 7.54912 13.4978 6.64861 12.7813 5.91921ZM10.1781 14.4733C9.59696 14.1787 9.08432 13.7652 8.67352 13.2596C8.26271 12.7539 7.96292 12.1675 7.79364 11.5384C7.74194 11.3265 7.70195 11.112 7.67385 10.8958C7.6548 10.7581 7.5932 10.6298 7.49766 10.5288C7.40212 10.4278 7.27741 10.3592 7.14097 10.3326C7.09894 10.3243 7.0562 10.3202 7.01335 10.3203C6.89618 10.3202 6.78107 10.3511 6.67963 10.4097C6.57818 10.4684 6.494 10.5527 6.43555 10.6543C5.8824 11.6083 5.60422 12.6969 5.63184 13.7994C5.14533 13.4212 4.73874 12.9501 4.43562 12.4136C4.13251 11.877 3.9389 11.2856 3.86602 10.6737C3.79314 10.0618 3.84244 9.44146 4.01105 8.84872C4.17967 8.25599 4.46426 7.70261 4.84831 7.22067C5.13992 6.84189 5.49171 6.51353 5.88965 6.24867C5.90688 6.23755 5.9234 6.22537 5.93913 6.21221C5.93913 6.21221 6.13692 6.04855 6.14368 6.04481C7.09348 5.24145 7.76902 4.16182 8.07617 2.95635C8.80255 3.62783 9.2869 4.52037 9.45401 5.49535C9.62112 6.47034 9.46163 7.47322 9.00033 8.34827C8.93938 8.46504 8.91438 8.59724 8.92847 8.7282C8.94257 8.85916 8.99514 8.98301 9.07954 9.08413C9.16394 9.18525 9.2764 9.25911 9.40273 9.29639C9.52906 9.33367 9.6636 9.3327 9.78938 9.29361C10.8106 8.9735 11.7092 8.34822 12.3643 7.50194C12.758 8.08347 13.0154 8.74635 13.1173 9.44118C13.2192 10.136 13.163 10.8449 12.9528 11.515C12.7427 12.1851 12.384 12.7991 11.9036 13.3113C11.4232 13.8235 10.8333 14.2207 10.1781 14.4733L10.1781 14.4733Z" fill="black"/>
</svg>
