<svg width="14" height="15" viewBox="0 0 14 15" fill="none" xmlns="http://www.w3.org/2000/svg">
<path d="M12.2503 1.33765H1.75033C1.59562 1.33765 1.44724 1.3991 1.33785 1.5085C1.22845 1.6179 1.16699 1.76627 1.16699 1.92098V12.421C1.16699 12.5757 1.22845 12.7241 1.33785 12.8335C1.44724 12.9429 1.59562 13.0043 1.75033 13.0043H12.2503C12.405 13.0043 12.5534 12.9429 12.6628 12.8335C12.7722 12.7241 12.8337 12.5757 12.8337 12.421V1.92098C12.8337 1.76627 12.7722 1.6179 12.6628 1.5085C12.5534 1.3991 12.405 1.33765 12.2503 1.33765ZM6.41699 11.8376H2.33366V9.50431H6.41699V11.8376ZM6.41699 8.33765H2.33366V6.00431H6.41699V8.33765ZM11.667 11.8376H7.58366V9.50431H11.667V11.8376ZM11.667 8.33765H7.58366V6.00431H11.667V8.33765ZM11.667 4.83765H2.33366V2.50431H11.667V4.83765Z" fill="white"/>
</svg>
