<svg width="14" height="15" viewBox="0 0 14 15" fill="none" xmlns="http://www.w3.org/2000/svg">
<path d="M12.2503 1.60779H1.75033C1.59562 1.60779 1.44724 1.66925 1.33785 1.77864C1.22845 1.88804 1.16699 2.03641 1.16699 2.19112V12.6911C1.16699 12.8458 1.22845 12.9942 1.33785 13.1036C1.44724 13.213 1.59562 13.2745 1.75033 13.2745H12.2503C12.405 13.2745 12.5534 13.213 12.6628 13.1036C12.7722 12.9942 12.8337 12.8458 12.8337 12.6911V2.19112C12.8337 2.03641 12.7722 1.88804 12.6628 1.77864C12.5534 1.66925 12.405 1.60779 12.2503 1.60779ZM6.41699 12.1078H2.33366V9.77445H6.41699V12.1078ZM6.41699 8.60779H2.33366V6.27445H6.41699V8.60779ZM11.667 12.1078H7.58366V9.77445H11.667V12.1078ZM11.667 8.60779H7.58366V6.27445H11.667V8.60779ZM11.667 5.10779H2.33366V2.77445H11.667V5.10779Z" fill="black"/>
</svg>
