<svg width="16" height="12" viewBox="0 0 16 12" fill="none" xmlns="http://www.w3.org/2000/svg">
<path d="M15.3872 4.91335C15.3244 4.836 15.2452 4.7737 15.1552 4.73101C15.0652 4.68832 14.9668 4.66634 14.8672 4.66668H13.5339V4.00002C13.5339 3.46958 13.3231 2.96087 12.9481 2.5858C12.573 2.21073 12.0643 2.00002 11.5339 2.00002H7.34719L7.13385 1.33335C6.99555 0.942168 6.73902 0.603684 6.39979 0.364789C6.06056 0.125894 5.65543 -0.0015846 5.24052 1.48691e-05H2.86719C2.33675 1.48691e-05 1.82805 0.210729 1.45297 0.585801C1.0779 0.960874 0.867188 1.46958 0.867188 2.00002V10C0.867188 10.5304 1.0779 11.0392 1.45297 11.4142C1.82805 11.7893 2.33675 12 2.86719 12H12.4672C12.9213 11.9987 13.3615 11.8428 13.7153 11.5581C14.0691 11.2734 14.3155 10.8767 14.4139 10.4333L15.5339 5.48001C15.5541 5.38063 15.5515 5.27792 15.526 5.17972C15.5006 5.08153 15.4531 4.99042 15.3872 4.91335ZM3.78052 10.1467C3.74665 10.2971 3.66172 10.4311 3.54016 10.5259C3.41861 10.6207 3.26796 10.6704 3.11385 10.6667H2.86719C2.69038 10.6667 2.52081 10.5964 2.39578 10.4714C2.27076 10.3464 2.20052 10.1768 2.20052 10V2.00002C2.20052 1.8232 2.27076 1.65363 2.39578 1.52861C2.52081 1.40359 2.69038 1.33335 2.86719 1.33335H5.24052C5.3859 1.32576 5.52976 1.36597 5.65014 1.44782C5.77052 1.52968 5.8608 1.64869 5.90719 1.78668L6.26719 2.88002C6.30997 3.00718 6.39012 3.11848 6.49717 3.19936C6.60422 3.28024 6.73318 3.32693 6.86719 3.33335H11.5339C11.7107 3.33335 11.8802 3.40359 12.0053 3.52861C12.1303 3.65363 12.2005 3.8232 12.2005 4.00002V4.66668H5.53385C5.37975 4.66292 5.2291 4.71267 5.10754 4.80748C4.98599 4.90229 4.90106 5.03629 4.86719 5.18668L3.78052 10.1467ZM13.1139 10.1467C13.08 10.2971 12.995 10.4311 12.8735 10.5259C12.7519 10.6207 12.6013 10.6704 12.4472 10.6667H5.00719C5.04162 10.5924 5.06627 10.514 5.08052 10.4333L6.06719 6.00001H14.0672L13.1139 10.1467Z" fill="white"/>
</svg>
