<svg width="13" height="13" viewBox="0 0 13 13" fill="none" xmlns="http://www.w3.org/2000/svg">
<circle cx="6.77344" cy="6.24805" r="5.35" stroke="#037A35" stroke-width="1.3"/>
<path d="M10.5938 7.81997C10.6102 7.85745 10.6187 7.89766 10.6187 7.93827C10.6187 7.97887 10.6102 8.01908 10.5938 8.05656C10.5774 8.09405 10.5533 8.12807 10.5229 8.15666L9.22776 9.38708C9.19766 9.41591 9.16185 9.43879 9.12239 9.45441C9.08294 9.47002 9.04062 9.47806 8.99787 9.47806C8.95513 9.47806 8.91281 9.47002 8.87335 9.45441C8.8339 9.43879 8.79808 9.41591 8.76798 9.38708L8.12041 8.77187C8.09022 8.74319 8.06627 8.70914 8.04993 8.67167M10.5938 7.81997L10.409 8.08095L10.4081 8.08184M10.5938 7.81997C10.5774 7.78248 10.5533 7.74846 10.5229 7.71987L10.5938 7.81997ZM8.04993 8.67167L8.32102 8.55347M8.04993 8.67167L8.32102 8.55347M8.04993 8.67167C8.03359 8.63419 8.02518 8.59403 8.02518 8.55347C8.02518 8.51291 8.03359 8.47275 8.04993 8.43528M8.32102 8.55347L8.04993 8.43528M8.32102 8.55347L8.04993 8.43528M8.04993 8.43528C8.06627 8.3978 8.09022 8.36375 8.12041 8.33507C8.1506 8.30639 8.18644 8.28364 8.22588 8.26812M8.22588 8.26812L8.33516 8.54582L8.22588 8.26812ZM8.22588 8.26812C8.26533 8.2526 8.3076 8.24461 8.3503 8.24461C8.39299 8.24461 8.43527 8.2526 8.47471 8.26812M8.47471 8.26812L8.38684 8.49142L8.47471 8.26812ZM8.47471 8.26812C8.51416 8.28364 8.55 8.30639 8.58019 8.33507M8.58019 8.33507L8.48797 8.4314L8.46479 8.40937C8.47234 8.41655 8.47949 8.42457 8.48605 8.4334L8.40698 8.51599L8.371 8.53168L8.40697 8.516L8.3711 8.55347L8.35637 8.56885L8.35637 8.56886L8.35635 8.56888M8.58019 8.33507L8.48834 8.43175M8.58019 8.33507L8.99787 8.73496L9.76544 8.00355C9.81142 7.97473 9.85487 7.94118 9.89499 7.90307L9.88354 7.89101L9.89499 7.90306C9.93528 7.86479 9.97138 7.82264 10.0028 7.77737L10.0631 7.71987C10.0932 7.69104 10.129 7.66815 10.1685 7.65254C10.208 7.63692 10.2503 7.62888 10.293 7.62888L8.48834 8.43175M8.35635 8.56888L8.3503 8.56624L8.35635 8.56888ZM8.35635 8.56888L8.3503 8.5752L8.34941 8.57613L8.34776 8.57785L8.23441 8.69624L8.23581 8.69757M8.23581 8.69757L8.6521 9.09612L8.85754 9.29281L8.85793 9.29318L8.91539 9.34819L8.99706 9.42638L8.99787 9.42561L9.08002 9.34734L9.13736 9.2927L9.13775 9.29233L9.3428 9.09693L10.4081 8.08184M8.23581 8.69757C8.25311 8.71401 8.27229 8.72578 8.29162 8.73339C8.29162 8.73339 8.29162 8.73339 8.29163 8.73339C8.31093 8.74099 8.33079 8.74461 8.3503 8.74461C8.3698 8.74461 8.38967 8.74099 8.40897 8.73339C8.40897 8.73339 8.40897 8.73339 8.40897 8.73339C8.42831 8.72578 8.44748 8.71401 8.46478 8.69757C8.48215 8.68108 8.49737 8.66009 8.50826 8.63511L8.35757 8.56941M8.23581 8.69757L8.34828 8.57918L8.34829 8.57918L8.3503 8.57706L8.35515 8.57195L8.35516 8.57194L8.35757 8.56941M10.4081 8.08184C10.3908 8.09812 10.3718 8.10983 10.3525 8.11745C10.333 8.12519 10.3128 8.12888 10.293 8.12888C10.2732 8.12888 10.2531 8.12519 10.2335 8.11745C10.2151 8.11013 10.1967 8.09904 10.18 8.08375C10.1798 8.08349 10.1795 8.08325 10.1792 8.08299M10.4081 8.08184L10.1359 8.02077L10.1359 8.02078C10.1463 8.0446 10.1607 8.06479 10.1771 8.08093C10.1776 8.08142 10.1781 8.0819 10.1786 8.08238M8.35757 8.56941L8.50826 8.63511C8.51919 8.61006 8.52518 8.58224 8.52518 8.55347C8.52518 8.52471 8.51919 8.49689 8.50826 8.47184L8.40925 8.51501L8.37271 8.55347L8.35757 8.56941ZM10.1792 8.08299C10.179 8.08279 10.1788 8.08257 10.1786 8.08238M10.1792 8.08299L10.18 8.08377C10.1795 8.08331 10.179 8.08285 10.1786 8.08238M10.1792 8.08299L10.1771 8.08095C10.1776 8.08143 10.1781 8.08191 10.1786 8.08238M8.48834 8.43175L8.9072 8.82967L8.99787 8.91581L9.08833 8.82988L10.1551 7.81641L10.1554 7.81617L10.1785 7.79417M8.48834 8.43175L10.1785 7.79417M10.1785 7.79417L10.1789 7.7938M10.1785 7.79417C10.1787 7.79404 10.1788 7.79392 10.1789 7.7938M10.1789 7.7938L10.18 7.79276L10.18 7.79276C10.1797 7.79311 10.1793 7.79345 10.1789 7.7938ZM8.50826 8.47183L8.40925 8.515L8.48636 8.43383C8.49476 8.4452 8.50218 8.45789 8.50826 8.47183ZM6.24568 5.40182C6.25476 5.42475 6.25999 5.45026 6.25999 5.47744C6.25999 5.50462 6.25476 5.53013 6.24568 5.55306C6.23659 5.53013 6.23136 5.50462 6.23136 5.47744C6.23136 5.45026 6.23659 5.42475 6.24568 5.40182Z" fill="white" stroke="#037A35"/>
</svg>
