<svg width="13" height="13" viewBox="0 0 13 13" fill="none" xmlns="http://www.w3.org/2000/svg">
<circle cx="6.5" cy="6.75" r="5.35" stroke="black" stroke-width="1.3"/>
<g clip-path="url(#clip0_6264_10551)">
<path d="M9.50622 6.62884C8.89407 5.20755 7.74249 4.32568 6.5 4.32568C5.25751 4.32568 4.10593 5.20755 3.49378 6.62884C3.47709 6.66707 3.46848 6.70834 3.46848 6.75006C3.46848 6.79177 3.47709 6.83304 3.49378 6.87127C4.10593 8.29256 5.25751 9.17443 6.5 9.17443C7.74249 9.17443 8.89407 8.29256 9.50622 6.87127C9.52291 6.83304 9.53152 6.79177 9.53152 6.75006C9.53152 6.70834 9.52291 6.66707 9.50622 6.62884ZM6.5 8.56834C5.53934 8.56834 4.6302 7.87436 4.10593 6.75006C4.6302 5.62575 5.53934 4.93178 6.5 4.93178C7.46066 4.93178 8.3698 5.62575 8.89407 6.75006C8.3698 7.87436 7.46066 8.56834 6.5 8.56834ZM6.5 5.53787C6.26025 5.53787 6.02589 5.60896 5.82654 5.74216C5.6272 5.87536 5.47183 6.06467 5.38008 6.28617C5.28834 6.50767 5.26433 6.7514 5.3111 6.98654C5.35788 7.22168 5.47333 7.43767 5.64285 7.6072C5.81238 7.77673 6.02837 7.89218 6.26351 7.93895C6.49865 7.98572 6.74238 7.96172 6.96388 7.86997C7.18538 7.77822 7.3747 7.62285 7.50789 7.42351C7.64109 7.22417 7.71218 6.9898 7.71218 6.75006C7.71218 6.42856 7.58447 6.12024 7.35714 5.89291C7.12981 5.66558 6.82149 5.53787 6.5 5.53787ZM6.5 7.35615C6.38012 7.35615 6.26294 7.3206 6.16327 7.254C6.0636 7.18741 5.98591 7.09275 5.94004 6.982C5.89417 6.87125 5.88216 6.74938 5.90555 6.63181C5.92894 6.51424 5.98666 6.40625 6.07143 6.32148C6.15619 6.23672 6.26418 6.179 6.38176 6.15561C6.49933 6.13222 6.62119 6.14423 6.73194 6.1901C6.84269 6.23597 6.93735 6.31366 7.00395 6.41333C7.07054 6.513 7.10609 6.63018 7.10609 6.75006C7.10609 6.9108 7.04224 7.06496 6.92857 7.17863C6.81491 7.29229 6.66074 7.35615 6.5 7.35615Z" fill="black"/>
</g>
<defs>
<clipPath id="clip0_6264_10551">
<rect width="6" height="6" fill="white" transform="translate(3.5 3.75)"/>
</clipPath>
</defs>
</svg>
