<svg width="8" height="11" viewBox="0 0 8 11" fill="none" xmlns="http://www.w3.org/2000/svg">
<path d="M7.94499 4.27514C7.90344 4.19269 7.83987 4.12334 7.76132 4.07481C7.68278 4.02627 7.59233 4.00042 7.49999 4.00014H4.99999V1.00014C5.00536 0.890485 4.97448 0.782109 4.91213 0.691744C4.84978 0.601378 4.75942 0.534047 4.65499 0.500144C4.55461 0.467115 4.44633 0.466744 4.34572 0.499083C4.24511 0.531423 4.15733 0.594809 4.09499 0.680144L0.0949918 6.18014C0.0448746 6.25258 0.0147811 6.33696 0.00775707 6.42476C0.000733006 6.51257 0.0170277 6.60066 0.0549918 6.68014C0.0899528 6.77102 0.150686 6.84971 0.229737 6.90655C0.308787 6.9634 0.402716 6.99593 0.499992 7.00014H2.99999V10.0001C3.00007 10.1056 3.03348 10.2083 3.09544 10.2936C3.1574 10.3789 3.24475 10.4425 3.34499 10.4751C3.39523 10.4907 3.44741 10.4991 3.49999 10.5001C3.57888 10.5003 3.65671 10.4819 3.7271 10.4463C3.79749 10.4106 3.85845 10.3588 3.90499 10.2951L7.90499 4.79514C7.95886 4.72054 7.9911 4.63252 7.99816 4.54077C8.00522 4.44902 7.98682 4.35711 7.94499 4.27514ZM3.99999 8.46014V6.50014C3.99999 6.36754 3.94731 6.24036 3.85354 6.14659C3.75978 6.05282 3.6326 6.00014 3.49999 6.00014H1.49999L3.99999 2.54014V4.50014C3.99999 4.63275 4.05267 4.75993 4.14644 4.8537C4.24021 4.94746 4.36738 5.00014 4.49999 5.00014H6.49999L3.99999 8.46014Z" fill="black"/>
</svg>
