<svg width="13" height="13" viewBox="0 0 13 13" fill="none" xmlns="http://www.w3.org/2000/svg">
<circle cx="6.77344" cy="6.24805" r="5.35" stroke="black" stroke-width="1.3"/>
<path d="M4.73193 7.99844H5.9686C6.00699 7.99866 6.04504 7.9913 6.08057 7.97679C6.11611 7.96227 6.14843 7.94088 6.17568 7.91385L8.19402 5.8926L9.02235 5.08177C9.04969 5.05466 9.07139 5.0224 9.08619 4.98685C9.101 4.95131 9.10862 4.91319 9.10862 4.87469C9.10862 4.83618 9.101 4.79806 9.08619 4.76252C9.07139 4.72698 9.04969 4.69472 9.02235 4.6676L7.78568 3.41635C7.75857 3.38902 7.72631 3.36732 7.69077 3.35251C7.65523 3.3377 7.6171 3.33008 7.5786 3.33008C7.5401 3.33008 7.50197 3.3377 7.46643 3.35251C7.43089 3.36732 7.39863 3.38902 7.37152 3.41635L6.54902 4.24177L4.52485 6.26302C4.49782 6.29027 4.47643 6.32259 4.46192 6.35813C4.4474 6.39367 4.44004 6.43172 4.44027 6.4701V7.70677C4.44027 7.78412 4.471 7.85831 4.52569 7.91301C4.58039 7.96771 4.65458 7.99844 4.73193 7.99844ZM7.5786 4.03469L8.40402 4.8601L7.98985 5.27427L7.16443 4.44885L7.5786 4.03469ZM5.0236 6.58969L6.75318 4.8601L7.5786 5.68552L5.84902 7.4151H5.0236V6.58969ZM9.3986 8.58177H4.1486C4.07125 8.58177 3.99706 8.6125 3.94236 8.6672C3.88766 8.72189 3.85693 8.79608 3.85693 8.87344C3.85693 8.95079 3.88766 9.02498 3.94236 9.07968C3.99706 9.13437 4.07125 9.1651 4.1486 9.1651H9.3986C9.47596 9.1651 9.55014 9.13437 9.60484 9.07968C9.65954 9.02498 9.69027 8.95079 9.69027 8.87344C9.69027 8.79608 9.65954 8.72189 9.60484 8.6672C9.55014 8.6125 9.47596 8.58177 9.3986 8.58177Z" fill="black"/>
</svg>
