<svg width="86" height="86" viewBox="0 0 86 86" fill="none" xmlns="http://www.w3.org/2000/svg">
<g clip-path="url(#clip0_7011_132163)">
<path d="M70.0527 22.8215H35.04C33.6953 22.8215 32.6162 21.7258 32.6162 20.3977V18.9865C32.6162 17.6418 31.5205 16.5627 30.1924 16.5627H3.71289C2.38477 16.5461 1.28906 17.6252 1.28906 18.9699V77.258C1.28906 78.6027 2.38477 79.6818 3.71289 79.6818H70.0361C71.3809 79.6818 72.46 78.5861 72.46 77.258V25.2453C72.4766 23.9006 71.3809 22.8215 70.0527 22.8215Z" fill="#F0B972"/>
<path d="M70.0527 22.8215H35.04C33.6953 22.8215 32.6162 21.7258 32.6162 20.3976V18.9865C32.6162 17.6418 31.5205 16.5627 30.1924 16.5627H3.71289C2.38477 16.5461 1.28906 17.6252 1.28906 18.9699V20.4143C1.28906 19.0695 2.38477 17.9904 3.71289 17.9904H30.1758C31.5205 17.9904 32.5996 19.0861 32.5996 20.4143V21.8254C32.5996 23.1701 33.6953 24.2492 35.0234 24.2492H70.0195C71.3643 24.2492 72.4434 25.3449 72.4434 26.673V25.2287C72.4766 23.9006 71.3809 22.8215 70.0527 22.8215Z" fill="#FFC88D"/>
<path d="M7.14941 9.55176C7.14941 7.8949 8.49256 6.55176 10.1494 6.55176H63.5996C65.2565 6.55176 66.5996 7.8949 66.5996 9.55176V76.6982C66.5996 78.3551 65.2565 79.6982 63.5996 79.6982H10.1494C8.49256 79.6982 7.14941 78.3551 7.14941 76.6982V9.55176Z" fill="#E0E0E0"/>
<g filter="url(#filter0_d_7011_132163)">
<path d="M10.4365 14.8018C10.4365 12.5926 12.2274 10.8018 14.4365 10.8018H65.8867C68.0959 10.8018 69.8867 12.5926 69.8867 14.8018V75.6982C69.8867 77.9074 68.0959 79.6982 65.8867 79.6982H14.4365C12.2274 79.6982 10.4365 77.9074 10.4365 75.6982V14.8018Z" fill="#F7F7F7"/>
</g>
<path d="M83.1846 37.0654H57.0206C55.9913 37.0654 55.0782 37.7129 54.7296 38.6758L54.3643 39.6885C54.0157 40.6514 53.1026 41.2988 52.0733 41.2988H15.6495C14.6202 41.2988 13.7071 41.9463 13.3585 42.9092L1.42194 76.4443C0.857485 78.0215 2.0362 79.6982 3.71295 79.6982H69.7374C70.7667 79.6982 71.6797 79.0508 72.0284 78.0879L85.4756 40.3193C86.0401 38.7256 84.878 37.0654 83.1846 37.0654Z" fill="#FBD984"/>
<path d="M13.375 44.5361C13.7237 43.5732 14.6368 42.9258 15.6661 42.9258H52.0899C53.1192 42.9258 54.0323 42.2783 54.3809 41.3154L54.7461 40.3027C55.0948 39.3398 56.0079 38.6924 57.0371 38.6924H83.2012C84.2969 38.6924 85.1602 39.4063 85.4922 40.3193V40.3027C86.0567 38.7256 84.878 37.0488 83.2012 37.0488H57.0371C56.0079 37.0488 55.0948 37.6963 54.7461 38.6592L54.3809 39.6719C54.0323 40.6348 53.1192 41.2822 52.0899 41.2822H15.6495C14.6202 41.2822 13.7071 41.9297 13.3584 42.8926L1.42191 76.4277C1.22269 76.9756 1.2559 77.54 1.42191 78.0381L13.375 44.5361Z" fill="#FFE3A4"/>
</g>
<defs>
<filter id="filter0_d_7011_132163" x="8.43652" y="6.80176" width="63.4502" height="72.8965" filterUnits="userSpaceOnUse" color-interpolation-filters="sRGB">
<feFlood flood-opacity="0" result="BackgroundImageFix"/>
<feColorMatrix in="SourceAlpha" type="matrix" values="0 0 0 0 0 0 0 0 0 0 0 0 0 0 0 0 0 0 127 0" result="hardAlpha"/>
<feOffset dy="-2"/>
<feGaussianBlur stdDeviation="1"/>
<feComposite in2="hardAlpha" operator="out"/>
<feColorMatrix type="matrix" values="0 0 0 0 0 0 0 0 0 0 0 0 0 0 0 0 0 0 0.03 0"/>
<feBlend mode="normal" in2="BackgroundImageFix" result="effect1_dropShadow_7011_132163"/>
<feBlend mode="normal" in="SourceGraphic" in2="effect1_dropShadow_7011_132163" result="shape"/>
</filter>
<clipPath id="clip0_7011_132163">
<rect width="85" height="85" fill="white" transform="translate(0.957031 0.625)"/>
</clipPath>
</defs>
</svg>
