<svg width="86" height="86" viewBox="0 0 86 86" fill="none" xmlns="http://www.w3.org/2000/svg">
<g clip-path="url(#clip0_7011_132183)">
<path d="M69.5527 22.8215H34.54C33.1953 22.8215 32.1162 21.7258 32.1162 20.3977V18.9865C32.1162 17.6418 31.0205 16.5627 29.6924 16.5627H3.21289C1.88477 16.5461 0.789062 17.6252 0.789062 18.9699V77.258C0.789062 78.6027 1.88477 79.6818 3.21289 79.6818H69.5361C70.8809 79.6818 71.96 78.5861 71.96 77.258V25.2453C71.9766 23.9006 70.8809 22.8215 69.5527 22.8215Z" fill="#F0B972"/>
<path d="M69.5527 22.8215H34.54C33.1953 22.8215 32.1162 21.7258 32.1162 20.3976V18.9865C32.1162 17.6418 31.0205 16.5627 29.6924 16.5627H3.21289C1.88477 16.5461 0.789062 17.6252 0.789062 18.9699V20.4143C0.789062 19.0695 1.88477 17.9904 3.21289 17.9904H29.6758C31.0205 17.9904 32.0996 19.0861 32.0996 20.4143V21.8254C32.0996 23.1701 33.1953 24.2492 34.5234 24.2492H69.5195C70.8643 24.2492 71.9434 25.3449 71.9434 26.673V25.2287C71.9766 23.9006 70.8809 22.8215 69.5527 22.8215Z" fill="#FFC88D"/>
<path d="M82.6846 37.0654H56.5206C55.4913 37.0654 54.5782 37.7129 54.2296 38.6758L53.8643 39.6885C53.5157 40.6514 52.6026 41.2988 51.5733 41.2988H15.1495C14.1202 41.2988 13.2071 41.9463 12.8585 42.9092L0.921938 76.4443C0.357485 78.0215 1.5362 79.6982 3.21295 79.6982H69.2374C70.2667 79.6982 71.1797 79.0508 71.5284 78.0879L84.9756 40.3193C85.5401 38.7256 84.378 37.0654 82.6846 37.0654Z" fill="#FBD984"/>
<path d="M12.875 44.5361C13.2237 43.5732 14.1368 42.9258 15.1661 42.9258H51.5899C52.6192 42.9258 53.5323 42.2783 53.8809 41.3154L54.2461 40.3027C54.5948 39.3398 55.5079 38.6924 56.5371 38.6924H82.7012C83.7969 38.6924 84.6602 39.4063 84.9922 40.3193V40.3027C85.5567 38.7256 84.378 37.0488 82.7012 37.0488H56.5371C55.5079 37.0488 54.5948 37.6963 54.2461 38.6592L53.8809 39.6719C53.5323 40.6348 52.6192 41.2822 51.5899 41.2822H15.1495C14.1202 41.2822 13.2071 41.9297 12.8584 42.8926L0.921913 76.4277C0.722694 76.9756 0.755897 77.54 0.921913 78.0381L12.875 44.5361Z" fill="#FFE3A4"/>
</g>
<defs>
<clipPath id="clip0_7011_132183">
<rect width="85" height="85" fill="white" transform="translate(0.457031 0.625)"/>
</clipPath>
</defs>
</svg>
