<svg width="12" height="14" viewBox="0 0 12 14" fill="none" xmlns="http://www.w3.org/2000/svg">
<path d="M3.54045 10.6182C3.40859 10.6182 3.2797 10.6573 3.17007 10.7305C3.06043 10.8038 2.97498 10.9079 2.92453 11.0297C2.87407 11.1515 2.86087 11.2856 2.88659 11.4149C2.91231 11.5442 2.97581 11.663 3.06904 11.7562C3.16228 11.8495 3.28107 11.913 3.41039 11.9387C3.53971 11.9644 3.67375 11.9512 3.79557 11.9008C3.91739 11.8503 4.02151 11.7648 4.09476 11.6552C4.16801 11.5456 4.20711 11.4167 4.20711 11.2848C4.20711 11.108 4.13687 10.9384 4.01185 10.8134C3.88683 10.6884 3.71726 10.6182 3.54045 10.6182ZM3.54045 6.61816C3.40859 6.61816 3.2797 6.65726 3.17007 6.73052C3.06043 6.80377 2.97498 6.90789 2.92453 7.02971C2.87407 7.15153 2.86087 7.28557 2.88659 7.41489C2.91231 7.54421 2.97581 7.663 3.06904 7.75623C3.16228 7.84947 3.28107 7.91296 3.41039 7.93869C3.53971 7.96441 3.67375 7.95121 3.79557 7.90075C3.91739 7.85029 4.02151 7.76484 4.09476 7.65521C4.16801 7.54558 4.20711 7.41668 4.20711 7.28483C4.20711 7.10802 4.13687 6.93845 4.01185 6.81343C3.88683 6.6884 3.71726 6.61816 3.54045 6.61816ZM8.87378 0.618164H3.54045C2.8332 0.618164 2.15492 0.899116 1.65483 1.39921C1.15473 1.89931 0.873779 2.57759 0.873779 3.28483V11.2848C0.873779 11.9921 1.15473 12.6704 1.65483 13.1704C2.15492 13.6705 2.8332 13.9515 3.54045 13.9515H8.87378C9.58102 13.9515 10.2593 13.6705 10.7594 13.1704C11.2595 12.6704 11.5404 11.9921 11.5404 11.2848V3.28483C11.5404 2.57759 11.2595 1.89931 10.7594 1.39921C10.2593 0.899116 9.58102 0.618164 8.87378 0.618164ZM10.2071 11.2848C10.2071 11.6385 10.0666 11.9776 9.81659 12.2276C9.56654 12.4777 9.2274 12.6182 8.87378 12.6182H3.54045C3.18682 12.6182 2.84769 12.4777 2.59764 12.2276C2.34759 11.9776 2.20711 11.6385 2.20711 11.2848V9.57816C2.60977 9.82053 3.07047 9.94953 3.54045 9.9515H8.87378C9.34375 9.94953 9.80445 9.82053 10.2071 9.57816V11.2848ZM10.2071 7.28483C10.2071 7.63845 10.0666 7.97759 9.81659 8.22764C9.56654 8.47769 9.2274 8.61816 8.87378 8.61816H3.54045C3.18682 8.61816 2.84769 8.47769 2.59764 8.22764C2.34759 7.97759 2.20711 7.63845 2.20711 7.28483V5.57816C2.60977 5.82053 3.07047 5.94953 3.54045 5.9515H8.87378C9.34375 5.94953 9.80445 5.82053 10.2071 5.57816V7.28483ZM8.87378 4.61816H3.54045C3.18682 4.61816 2.84769 4.47769 2.59764 4.22764C2.34759 3.97759 2.20711 3.63845 2.20711 3.28483C2.20711 2.93121 2.34759 2.59207 2.59764 2.34202C2.84769 2.09197 3.18682 1.9515 3.54045 1.9515H8.87378C9.2274 1.9515 9.56654 2.09197 9.81659 2.34202C10.0666 2.59207 10.2071 2.93121 10.2071 3.28483C10.2071 3.63845 10.0666 3.97759 9.81659 4.22764C9.56654 4.47769 9.2274 4.61816 8.87378 4.61816Z" fill="#808080"/>
</svg>
