<svg width="12" height="15" viewBox="0 0 12 15" fill="none" xmlns="http://www.w3.org/2000/svg">
<path d="M3.51286 10.7061C3.381 10.7061 3.25211 10.7452 3.14248 10.8184C3.03285 10.8917 2.9474 10.9958 2.89694 11.1176C2.84648 11.2394 2.83328 11.3735 2.859 11.5028C2.88472 11.6321 2.94822 11.7509 3.04145 11.8441C3.13469 11.9374 3.25348 12.0009 3.3828 12.0266C3.51212 12.0523 3.64616 12.0391 3.76798 11.9886C3.8898 11.9382 3.99392 11.8527 4.06717 11.7431C4.14043 11.6335 4.17953 11.5046 4.17953 11.3727C4.17953 11.1959 4.10929 11.0263 3.98426 10.9013C3.85924 10.7763 3.68967 10.7061 3.51286 10.7061ZM3.51286 6.70605C3.381 6.70605 3.25211 6.74515 3.14248 6.81841C3.03285 6.89166 2.9474 6.99578 2.89694 7.1176C2.84648 7.23942 2.83328 7.37346 2.859 7.50278C2.88472 7.6321 2.94822 7.75089 3.04145 7.84413C3.13469 7.93736 3.25348 8.00085 3.3828 8.02658C3.51212 8.0523 3.64616 8.0391 3.76798 7.98864C3.8898 7.93818 3.99392 7.85273 4.06717 7.7431C4.14043 7.63347 4.17953 7.50458 4.17953 7.37272C4.17953 7.19591 4.10929 7.02634 3.98426 6.90132C3.85924 6.77629 3.68967 6.70605 3.51286 6.70605ZM8.84619 0.706055H3.51286C2.80561 0.706055 2.12734 0.987006 1.62724 1.4871C1.12714 1.9872 0.846191 2.66548 0.846191 3.37272V11.3727C0.846191 12.08 1.12714 12.7582 1.62724 13.2583C2.12734 13.7584 2.80561 14.0394 3.51286 14.0394H8.84619C9.55344 14.0394 10.2317 13.7584 10.7318 13.2583C11.2319 12.7582 11.5129 12.08 11.5129 11.3727V3.37272C11.5129 2.66548 11.2319 1.9872 10.7318 1.4871C10.2317 0.987006 9.55344 0.706055 8.84619 0.706055ZM10.1795 11.3727C10.1795 11.7263 10.0391 12.0655 9.789 12.3155C9.53895 12.5656 9.19981 12.7061 8.84619 12.7061H3.51286C3.15924 12.7061 2.8201 12.5656 2.57005 12.3155C2.32 12.0655 2.17952 11.7263 2.17952 11.3727V9.66605C2.58219 9.90842 3.04289 10.0374 3.51286 10.0394H8.84619C9.31617 10.0374 9.77686 9.90842 10.1795 9.66605V11.3727ZM10.1795 7.37272C10.1795 7.72634 10.0391 8.06548 9.789 8.31553C9.53895 8.56558 9.19981 8.70605 8.84619 8.70605H3.51286C3.15924 8.70605 2.8201 8.56558 2.57005 8.31553C2.32 8.06548 2.17952 7.72634 2.17952 7.37272V5.66605C2.58219 5.90842 3.04289 6.03742 3.51286 6.03939H8.84619C9.31617 6.03742 9.77686 5.90842 10.1795 5.66605V7.37272ZM8.84619 4.70605H3.51286C3.15924 4.70605 2.8201 4.56558 2.57005 4.31553C2.32 4.06548 2.17952 3.72634 2.17952 3.37272C2.17952 3.0191 2.32 2.67996 2.57005 2.42991C2.8201 2.17986 3.15924 2.03939 3.51286 2.03939H8.84619C9.19981 2.03939 9.53895 2.17986 9.789 2.42991C10.0391 2.67996 10.1795 3.0191 10.1795 3.37272C10.1795 3.72634 10.0391 4.06548 9.789 4.31553C9.53895 4.56558 9.19981 4.70605 8.84619 4.70605Z" fill="#01A747"/>
</svg>
