<svg width="12" height="13" viewBox="0 0 12 13" fill="none" xmlns="http://www.w3.org/2000/svg">
<path d="M9.66162 0.706055H2.99495C2.37612 0.706055 1.78262 0.951887 1.34504 1.38947C0.907454 1.82706 0.661621 2.42055 0.661621 3.03939V9.70606C0.661621 10.3249 0.907454 10.9184 1.34504 11.356C1.78262 11.7936 2.37612 12.0394 2.99495 12.0394H9.66162C10.2805 12.0394 10.874 11.7936 11.3115 11.356C11.7491 10.9184 11.995 10.3249 11.995 9.70606V3.03939C11.995 2.42055 11.7491 1.82706 11.3115 1.38947C10.874 0.951887 10.2805 0.706055 9.66162 0.706055ZM5.32829 2.03939H7.32829V4.03939H5.32829V2.03939ZM3.99495 10.7061H2.99495C2.72974 10.7061 2.47538 10.6007 2.28785 10.4132C2.10031 10.2256 1.99495 9.97127 1.99495 9.70606V8.70606H3.99495V10.7061ZM7.32829 10.7061H5.32829V8.70606H7.32829V10.7061ZM10.6616 9.70606C10.6616 9.97127 10.5563 10.2256 10.3687 10.4132C10.1812 10.6007 9.92684 10.7061 9.66162 10.7061H8.66162V8.70606H10.6616V9.70606ZM10.6616 7.37272H1.99495V3.03939C1.99495 2.77417 2.10031 2.51982 2.28785 2.33228C2.47538 2.14474 2.72974 2.03939 2.99495 2.03939H3.99495V4.70606C3.99495 4.88287 4.06519 5.05244 4.19022 5.17746C4.31524 5.30248 4.48481 5.37272 4.66162 5.37272H10.6616V7.37272ZM10.6616 4.03939H8.66162V2.03939H9.66162C9.92684 2.03939 10.1812 2.14474 10.3687 2.33228C10.5563 2.51982 10.6616 2.77417 10.6616 3.03939V4.03939Z" fill="#01A747"/>
</svg>
