<svg width="16" height="13" viewBox="0 0 16 13" fill="none" xmlns="http://www.w3.org/2000/svg">
<path d="M15.3872 5.1985C15.3244 5.12116 15.2452 5.05885 15.1552 5.01617C15.0652 4.97348 14.9668 4.9515 14.8672 4.95184H13.5339V4.28517C13.5339 3.75474 13.3231 3.24603 12.9481 2.87096C12.573 2.49588 12.0643 2.28517 11.5339 2.28517H7.34719L7.13385 1.6185C6.99555 1.22732 6.73902 0.88884 6.39979 0.649945C6.06056 0.41105 5.65543 0.283572 5.24052 0.285171H2.86719C2.33675 0.285171 1.82805 0.495885 1.45297 0.870958C1.0779 1.24603 0.867188 1.75474 0.867188 2.28517V10.2852C0.867188 10.8156 1.0779 11.3243 1.45297 11.6994C1.82805 12.0745 2.33675 12.2852 2.86719 12.2852H12.4672C12.9213 12.2838 13.3615 12.128 13.7153 11.8433C14.0691 11.5585 14.3155 11.1619 14.4139 10.7185L15.5339 5.76517C15.5541 5.66578 15.5515 5.56308 15.526 5.46488C15.5006 5.36668 15.4531 5.27558 15.3872 5.1985ZM3.78052 10.4318C3.74665 10.5822 3.66172 10.7162 3.54016 10.811C3.41861 10.9058 3.26796 10.9556 3.11385 10.9518H2.86719C2.69038 10.9518 2.52081 10.8816 2.39578 10.7566C2.27076 10.6316 2.20052 10.462 2.20052 10.2852V2.28517C2.20052 2.10836 2.27076 1.93879 2.39578 1.81377C2.52081 1.68874 2.69038 1.6185 2.86719 1.6185H5.24052C5.3859 1.61092 5.52976 1.65112 5.65014 1.73298C5.77052 1.81484 5.8608 1.93385 5.90719 2.07184L6.26719 3.16517C6.30997 3.29233 6.39012 3.40363 6.49717 3.48451C6.60422 3.56539 6.73318 3.61209 6.86719 3.6185H11.5339C11.7107 3.6185 11.8802 3.68874 12.0053 3.81377C12.1303 3.93879 12.2005 4.10836 12.2005 4.28517V4.95184H5.53385C5.37975 4.94807 5.2291 4.99783 5.10754 5.09264C4.98599 5.18745 4.90106 5.32145 4.86719 5.47184L3.78052 10.4318ZM13.1139 10.4318C13.08 10.5822 12.995 10.7162 12.8735 10.811C12.7519 10.9058 12.6013 10.9556 12.4472 10.9518H5.00719C5.04162 10.8776 5.06627 10.7991 5.08052 10.7185L6.06719 6.28517H14.0672L13.1139 10.4318Z" fill="#01A747"/>
</svg>
