<svg width="15" height="13" viewBox="0 0 15 13" fill="none" xmlns="http://www.w3.org/2000/svg">
<path d="M10.0964 10.9902H3.09635C2.63223 10.9902 2.18711 10.8059 1.85892 10.4777C1.53073 10.1495 1.34635 9.70436 1.34635 9.24023V4.57357C1.34635 4.41886 1.2849 4.27048 1.1755 4.16109C1.0661 4.05169 0.91773 3.99023 0.763021 3.99023C0.608311 3.99023 0.459938 4.05169 0.350542 4.16109C0.241146 4.27048 0.179688 4.41886 0.179688 4.57357L0.179688 9.24023C0.179688 10.0138 0.486978 10.7556 1.03396 11.3026C1.58094 11.8496 2.32281 12.1569 3.09635 12.1569H10.0964C10.2511 12.1569 10.3994 12.0954 10.5088 11.986C10.6182 11.8766 10.6797 11.7283 10.6797 11.5736C10.6797 11.4189 10.6182 11.2705 10.5088 11.1611C10.3994 11.0517 10.2511 10.9902 10.0964 10.9902ZM12.4297 0.490234H4.26302C3.79889 0.490234 3.35377 0.674609 3.02558 1.0028C2.6974 1.33099 2.51302 1.77611 2.51302 2.24023V8.07357C2.51302 8.53769 2.6974 8.98281 3.02558 9.311C3.35377 9.63919 3.79889 9.82357 4.26302 9.82357H12.4297C12.8938 9.82357 13.3389 9.63919 13.6671 9.311C13.9953 8.98281 14.1797 8.53769 14.1797 8.07357V2.24023C14.1797 1.77611 13.9953 1.33099 13.6671 1.0028C13.3389 0.674609 12.8938 0.490234 12.4297 0.490234ZM12.1905 1.6569L8.76052 5.0869C8.70629 5.14158 8.64178 5.18497 8.57069 5.21459C8.49961 5.2442 8.42336 5.25945 8.34635 5.25945C8.26935 5.25945 8.1931 5.2442 8.12202 5.21459C8.05093 5.18497 7.98642 5.14158 7.93219 5.0869L4.50219 1.6569H12.1905ZM13.013 8.07357C13.013 8.22828 12.9516 8.37665 12.8422 8.48605C12.7328 8.59544 12.5844 8.6569 12.4297 8.6569H4.26302C4.10831 8.6569 3.95994 8.59544 3.85054 8.48605C3.74115 8.37665 3.67969 8.22828 3.67969 8.07357V2.45607L7.10969 5.88607C7.43781 6.21378 7.8826 6.39786 8.34635 6.39786C8.81011 6.39786 9.2549 6.21378 9.58302 5.88607L13.013 2.45607V8.07357Z" fill="#808080"/>
</svg>
