<svg width="16" height="13" viewBox="0 0 16 13" fill="none" xmlns="http://www.w3.org/2000/svg">
<path d="M15.3598 5.2864C15.2971 5.20905 15.2178 5.14674 15.1278 5.10406C15.0378 5.06137 14.9394 5.03939 14.8398 5.03973H13.5065V4.37306C13.5065 3.84263 13.2958 3.33392 12.9207 2.95885C12.5457 2.58378 12.0369 2.37306 11.5065 2.37306H7.31984L7.10651 1.7064C6.96821 1.31522 6.71168 0.976731 6.37244 0.737836C6.03321 0.498941 5.62808 0.371462 5.21318 0.373062H2.83984C2.30941 0.373062 1.8007 0.583775 1.42563 0.958848C1.05056 1.33392 0.839844 1.84263 0.839844 2.37306V10.3731C0.839844 10.9035 1.05056 11.4122 1.42563 11.7873C1.8007 12.1623 2.30941 12.3731 2.83984 12.3731H12.4398C12.894 12.3717 13.3342 12.2159 13.688 11.9312C14.0418 11.6464 14.2881 11.2498 14.3865 10.8064L15.5065 5.85306C15.5268 5.75367 15.5241 5.65097 15.4987 5.55277C15.4733 5.45457 15.4258 5.36347 15.3598 5.2864ZM3.75318 10.5197C3.71931 10.6701 3.63437 10.8041 3.51282 10.8989C3.39127 10.9937 3.24062 11.0435 3.08651 11.0397H2.83984C2.66303 11.0397 2.49346 10.9695 2.36844 10.8445C2.24342 10.7194 2.17318 10.5499 2.17318 10.3731V2.37306C2.17318 2.19625 2.24342 2.02668 2.36844 1.90166C2.49346 1.77663 2.66303 1.7064 2.83984 1.7064H5.21318C5.35855 1.69881 5.50242 1.73901 5.6228 1.82087C5.74318 1.90273 5.83346 2.02174 5.87984 2.15973L6.23984 3.25306C6.28262 3.38023 6.36278 3.49152 6.46982 3.5724C6.57687 3.65328 6.70583 3.69998 6.83984 3.7064H11.5065C11.6833 3.7064 11.8529 3.77663 11.9779 3.90166C12.1029 4.02668 12.1732 4.19625 12.1732 4.37306V5.03973H5.50651C5.3524 5.03596 5.20175 5.08572 5.0802 5.18053C4.95865 5.27534 4.87371 5.40934 4.83984 5.55973L3.75318 10.5197ZM13.0865 10.5197C13.0526 10.6701 12.9677 10.8041 12.8462 10.8989C12.7246 10.9937 12.574 11.0435 12.4198 11.0397H4.97984C5.01428 10.9654 5.03893 10.887 5.05318 10.8064L6.03984 6.37306H14.0398L13.0865 10.5197Z" fill="#808080"/>
</svg>
