<svg width="12" height="13" viewBox="0 0 12 13" fill="none" xmlns="http://www.w3.org/2000/svg">
<path d="M9.51318 0.706055H2.84652C2.22768 0.706055 1.63419 0.951887 1.1966 1.38947C0.759016 1.82706 0.513184 2.42055 0.513184 3.03939V9.70606C0.513184 10.3249 0.759016 10.9184 1.1966 11.356C1.63419 11.7936 2.22768 12.0394 2.84652 12.0394H9.51318C10.132 12.0394 10.7255 11.7936 11.1631 11.356C11.6007 10.9184 11.8465 10.3249 11.8465 9.70606V3.03939C11.8465 2.42055 11.6007 1.82706 11.1631 1.38947C10.7255 0.951887 10.132 0.706055 9.51318 0.706055ZM5.17985 2.03939H7.17985V4.03939H5.17985V2.03939ZM3.84652 10.7061H2.84652C2.5813 10.7061 2.32695 10.6007 2.13941 10.4132C1.95187 10.2256 1.84652 9.97127 1.84652 9.70606V8.70606H3.84652V10.7061ZM7.17985 10.7061H5.17985V8.70606H7.17985V10.7061ZM10.5132 9.70606C10.5132 9.97127 10.4078 10.2256 10.2203 10.4132C10.0328 10.6007 9.7784 10.7061 9.51318 10.7061H8.51318V8.70606H10.5132V9.70606ZM10.5132 7.37272H1.84652V3.03939C1.84652 2.77417 1.95187 2.51982 2.13941 2.33228C2.32695 2.14474 2.5813 2.03939 2.84652 2.03939H3.84652V4.70606C3.84652 4.88287 3.91676 5.05244 4.04178 5.17746C4.1668 5.30248 4.33637 5.37272 4.51318 5.37272H10.5132V7.37272ZM10.5132 4.03939H8.51318V2.03939H9.51318C9.7784 2.03939 10.0328 2.14474 10.2203 2.33228C10.4078 2.51982 10.5132 2.77417 10.5132 3.03939V4.03939Z" fill="#808080"/>
</svg>
