<svg width="15" height="17" viewBox="0 0 15 17" fill="none" xmlns="http://www.w3.org/2000/svg">
<path d="M10.9868 0.455078H3.46043C1.81403 0.455078 0.402832 1.78788 0.402832 3.51268V14.5671C0.402832 15.9783 1.42203 16.6055 2.67643 15.8999L6.51804 13.7831C6.91004 13.5479 7.61564 13.5479 8.00764 13.7831L11.8492 15.8999C13.1036 16.6055 14.1228 15.9783 14.1228 14.5671V3.51268C14.0444 1.86628 12.7116 0.455078 10.9868 0.455078ZM10.046 6.02148L6.91004 9.15748C6.75324 9.23588 6.67484 9.31428 6.51804 9.31428C6.36124 9.31428 6.20444 9.23588 6.12604 9.15748L4.95004 7.98148C4.71484 7.74628 4.71484 7.35428 4.95004 7.11908C5.18524 6.88388 5.57724 6.88388 5.81244 7.11908L6.59644 7.90308L9.26204 5.23748C9.49724 5.00228 9.88924 5.00228 10.1244 5.23748C10.2812 5.47268 10.2812 5.78628 10.046 6.02148Z" fill="#4A4A4A"/>
</svg>
