<svg width="75" height="57" viewBox="0 0 75 57" fill="none" xmlns="http://www.w3.org/2000/svg">
<path d="M23.8019 55.1565L0.446289 46.1549L50.8069 31.5576L73.4634 38.0439L23.8019 55.1565Z" fill="#C5DCCB"/>
<path d="M0.490723 47.8734V46.1855L23.8312 55.096V56.7382L0.490723 47.8734Z" fill="#E9F6EC"/>
<path d="M73.5239 38.0442L23.7105 55.0276L23.8333 56.6195L73.5239 39.6179L73.5239 38.0442Z" fill="#ABCEB3"/>
<path d="M33.9336 35.9299V29.2266L50.4423 35.5289V42.2L33.9336 35.9299Z" fill="#90B898"/>
<path d="M52.9906 34.8096L50.4424 35.5415V42.1991L52.9906 41.1882V34.8096Z" fill="#BDDAC4"/>
<path d="M50.4432 35.5332L52.9742 34.8187L36.3422 28.6807L33.936 29.2316L50.4432 35.5332Z" fill="#84A78C"/>
<path d="M26.3379 38.8059V32.1025L42.8466 38.4049V45.076L26.3379 38.8059Z" fill="#9CBFA3"/>
<path d="M45.3934 37.6865L42.8452 38.4185V45.076L45.3934 44.0652V37.6865Z" fill="#BDDAC4"/>
<path d="M42.8475 38.4092L45.3785 37.6947L28.7465 31.5566L26.3403 32.1076L42.8475 38.4092Z" fill="#84A78C"/>
<path d="M18.5078 41.7942V35.0908L35.0165 41.3932V48.0643L18.5078 41.7942Z" fill="#ACC7B1"/>
<path d="M37.5633 40.6748L35.0151 41.4068V48.0643L37.5633 47.0535V40.6748Z" fill="#BDDAC4"/>
<path d="M35.0175 41.3975L37.5484 40.6829L20.9164 34.5449L18.5103 35.0959L35.0175 41.3975Z" fill="#96BB9E"/>
<path fill-rule="evenodd" clip-rule="evenodd" d="M52.5806 33.8034C56.9379 32.6353 59.0025 26.2108 57.1918 19.4534C55.3811 12.6957 50.3806 8.1641 46.0228 9.33176C46.0103 9.3351 45.9979 9.33848 45.9855 9.3419L11.2598 18.6466L17.817 43.1184L52.5806 33.8035L52.5806 33.8034Z" fill="#B4D6BC"/>
<ellipse cx="14.5352" cy="30.8834" rx="8.16877" ry="12.6675" transform="rotate(-15 14.5352 30.8834)" fill="#D2ECD8"/>
<path fill-rule="evenodd" clip-rule="evenodd" d="M14.0692 35.1029C15.5859 34.6966 16.3046 32.4605 15.6743 30.1085C15.0441 27.7565 13.3037 26.1794 11.7871 26.5857C11.6552 26.6211 11.5294 26.6702 11.41 26.7321L11.3989 26.6904L6.70232 27.9489L8.9845 36.4661L13.6811 35.2076L13.6696 35.1648C13.8039 35.1586 13.9374 35.1383 14.0692 35.1029Z" fill="#93BC9C"/>
<ellipse cx="7.84579" cy="32.2073" rx="2.84308" ry="4.40883" transform="rotate(-15 7.84579 32.2073)" fill="#D2ECD8"/>
<path fill-rule="evenodd" clip-rule="evenodd" d="M21.4614 17.4373L21.4614 6.46191L19.0087 6.46191L19.0087 17.4517L19.0092 17.4517C19.0276 17.7252 19.5694 17.9446 20.2351 17.9446C20.9008 17.9446 21.4426 17.7252 21.4609 17.4517L21.4614 17.4517L21.4614 17.4373Z" fill="#A3C0AB"/>
<ellipse cx="20.2356" cy="6.46231" rx="0.481844" ry="1.22634" transform="rotate(90 20.2356 6.46231)" fill="#E9F6EC"/>
<path fill-rule="evenodd" clip-rule="evenodd" d="M33.5225 14.1587L33.5225 3.16895L31.0698 3.16895L31.0698 14.1373C31.0697 14.1397 31.0697 14.1421 31.0697 14.1445C31.0697 14.1469 31.0697 14.1493 31.0698 14.1517L31.0698 14.1587L31.0701 14.1587C31.0884 14.4323 31.6302 14.6518 32.296 14.6518C32.9618 14.6518 33.5036 14.4323 33.5219 14.1587L33.5225 14.1587Z" fill="#A3C0AB"/>
<ellipse cx="32.2956" cy="3.16934" rx="0.481844" ry="1.22634" transform="rotate(90 32.2956 3.16934)" fill="#E9F6EC"/>
<path fill-rule="evenodd" clip-rule="evenodd" d="M45.584 10.6808L45.584 0.530273L43.1313 0.530273L43.1313 10.6944L43.1318 10.6944C43.1506 10.9472 43.6922 11.15 44.3576 11.15C45.0231 11.15 45.5647 10.9472 45.5835 10.6944L45.584 10.6944L45.584 10.6808Z" fill="#A3C0AB"/>
<ellipse cx="44.3572" cy="0.530603" rx="0.445642" ry="1.22634" transform="rotate(90 44.3572 0.530603)" fill="#E9F6EC"/>
<path d="M30.4931 33.8519C31.9105 24.8475 29.048 21.7071 26.8247 19.3448L44.6667 14.4258C48.5852 18.261 49.7525 25.709 48.5852 28.4326L30.4931 33.8519Z" fill="#A2C7AA"/>
<mask id="mask0_7319_145076" style="mask-type:alpha" maskUnits="userSpaceOnUse" x="26" y="14" width="24" height="20">
<path d="M30.4931 33.8519C31.9105 24.8475 29.048 21.7071 26.8247 19.3448L44.6667 14.4258C48.5852 18.261 49.7525 25.709 48.5852 28.4326L30.4931 33.8519Z" fill="#A2C7AA"/>
</mask>
<g mask="url(#mask0_7319_145076)">
<path d="M46.0845 26.5988L44.4587 12.8838C48.9942 13.6508 51.1286 24.4866 51.6288 29.8086L28.9512 36.3118L29.5765 31.5178L46.0845 26.5988Z" fill="#9CBFA3"/>
</g>
</svg>
